M48
; DRILL file {KiCad 5.1.0-rc2-unknown-036be7d~80~ubuntu16.04.1} date  5.05.2023 (пт) 15:17:39 EEST
; FORMAT={-:-/ absolute / inch / decimal}
; #@! TF.CreationDate,2023-05-05T15:17:39+03:00*
; #@! TF.GenerationSoftware,Kicad,Pcbnew,5.1.0-rc2-unknown-036be7d~80~ubuntu16.04.1
; #@! TF.FileFunction,Plated,1,2,PTH
FMAT,2
INCH
T1C0.0157
T2C0.0236
T3C0.0315
T4C0.0354
T5C0.0394
T6C0.0472
T7C0.0512
T8C0.0984
T9C0.1299
%
G90
G05
T1
X4.315Y-3.205
X4.38Y-2.54
X4.425Y-3.19
X4.47Y-3.16
X4.475Y-3.495
X4.515Y-3.595
X4.53Y-3.175
X4.58Y-3.205
X4.615Y-2.515
X4.635Y-2.44
X4.635Y-3.215
X4.66Y-2.555
X4.7Y-2.405
X4.71Y-2.69
X4.72Y-3.365
X4.76Y-2.935
X4.785Y-3.365
X4.805Y-2.97
X4.85Y-3.005
X4.86Y-3.675
X4.86Y-3.845
X4.9Y-2.405
X4.935Y-3.67
X4.98Y-4.105
X4.99Y-3.67
X5.09Y-2.455
X5.12Y-4.105
X5.17Y-2.405
X5.21Y-3.9
X5.26Y-2.335
X5.34Y-2.435
X5.43Y-3.855
X5.655Y-4.235
X5.71Y-4.235
X5.76Y-2.655
X5.765Y-4.235
X5.812Y-3.836
X5.812Y-3.907
X5.935Y-3.845
X5.935Y-3.895
X6.05Y-3.66
X6.32Y-2.935
X6.32Y-2.995
X6.48Y-2.41
X6.57Y-3.82
X6.68Y-3.925
X6.765Y-3.905
X6.855Y-3.86
X6.875Y-2.7
X6.9Y-3.92
X6.92Y-2.74
X6.965Y-3.83
X6.98Y-3.035
X7.215Y-2.41
X7.215Y-3.875
X7.275Y-4.035
X7.305Y-3.41
X7.36Y-3.29
X7.36Y-3.35
X7.36Y-3.41
X7.455Y-4.18
X7.47Y-3.96
X7.475Y-4.12
X7.515Y-2.459
X7.525Y-4.18
X7.685Y-3.685
X7.705Y-2.61
X7.705Y-3.52
X7.77Y-2.305
X7.825Y-2.305
X4.5094Y-2.9843
X4.5094Y-3.0394
X4.537Y-2.9567
X4.537Y-3.0669
X4.5921Y-2.9567
X4.5921Y-3.0669
X4.6197Y-2.9843
X4.6197Y-3.0394
T2
X3.99Y-3.78
X3.99Y-4.185
X3.995Y-3.47
X4.025Y-2.23
X4.025Y-2.425
X4.175Y-2.345
X4.21Y-3.96
X4.21Y-4.27
X4.22Y-4.04
X4.22Y-4.095
X4.23Y-3.61
X4.25Y-1.945
X4.265Y-3.225
X4.265Y-3.38
X4.265Y-3.425
X4.285Y-3.03
X4.29Y-2.5
X4.29Y-2.7
X4.29Y-2.87
X4.305Y-3.805
X4.345Y-4.515
X4.365Y-3.61
X4.39Y-2.35
X4.49Y-2.5
X4.515Y-2.825
X4.515Y-3.665
X4.575Y-4.315
X4.585Y-2.705
X4.585Y-3.595
X4.6Y-1.945
X4.605Y-2.255
X4.64Y-4.105
X4.675Y-2.825
X4.7Y-3.185
X4.71Y-3.84
X4.715Y-4.515
X4.74Y-3.62
X4.765Y-2.27
X4.785Y-2.705
X4.87Y-2.83
X4.885Y-2.27
X4.89Y-3.18
X4.96Y-3.225
X4.96Y-3.36
X4.98Y-4.025
X5.06Y-2.265
X5.115Y-4.515
X5.15Y-4.025
X5.17Y-3.025
X5.235Y-3.37
X5.26Y-2.21
X5.265Y-2.79
X5.275Y-4.105
X5.28Y-1.955
X5.29Y-3.62
X5.325Y-3.135
X5.325Y-3.86
X5.345Y-2.535
X5.37Y-2.675
X5.39Y-3.945
X5.395Y-4.025
X5.435Y-4.515
X5.495Y-3.135
X5.505Y-4.02
X5.52Y-2.25
X5.56Y-3.86
X5.58Y-2.705
X5.595Y-3.62
X5.595Y-4.38
X5.605Y-1.955
X5.615Y-4.055
X5.655Y-4.38
X5.67Y-4.115
X5.675Y-2.535
X5.68Y-3.015
X5.7Y-2.65
X5.71Y-4.38
X5.735Y-2.03
X5.755Y-4.515
X5.765Y-2.86
X5.82Y-3.225
X5.88Y-3.63
X5.89Y-3.375
X5.915Y-3.13
X5.92Y-2.005
X5.92Y-4.11
X6.025Y-3.045
X6.025Y-3.225
X6.045Y-3.81
X6.05Y-2.79
X6.055Y-2.405
X6.095Y-3.54
X6.14Y-4.05
X6.15Y-4.49
X6.155Y-1.94
X6.19Y-2.28
X6.195Y-3.48
X6.195Y-3.54
X6.195Y-4.05
X6.215Y-2.88
X6.26Y-2.79
X6.26Y-3.125
X6.26Y-3.77
X6.26Y-4.115
X6.275Y-3.575
X6.28Y-3.7
X6.31Y-4.29
X6.33Y-2.41
X6.38Y-3.225
X6.415Y-2.815
X6.43Y-2.31
X6.5Y-3.575
X6.54Y-4.49
X6.545Y-4.06
X6.555Y-3.21
X6.635Y-2.945
X6.635Y-3.05
X6.665Y-2.31
X6.69Y-3.21
X6.71Y-3.48
X6.72Y-4.05
X6.81Y-2.855
X6.81Y-2.905
X6.815Y-2.405
X6.815Y-4.29
X6.83Y-3.68
X6.835Y-2.18
X6.86Y-4.115
X6.865Y-3.575
X6.88Y-2.35
X6.93Y-3.22
X6.95Y-1.98
X6.97Y-2.7
X6.98Y-3.72
X7.005Y-4.06
X7.01Y-3.48
X7.02Y-2.7
X7.03Y-2.94
X7.035Y-4.475
X7.045Y-2.225
X7.065Y-3.48
X7.09Y-3.57
X7.11Y-2.78
X7.11Y-2.83
X7.11Y-3.775
X7.11Y-3.825
X7.11Y-4.065
X7.11Y-4.115
X7.12Y-4.24
X7.145Y-3.24
X7.22Y-2.885
X7.24Y-3.505
X7.245Y-3.125
X7.26Y-2.925
X7.3Y-2.305
X7.315Y-4.125
X7.315Y-4.175
X7.335Y-2.535
X7.355Y-3.05
X7.375Y-2.405
X7.38Y-3.695
X7.38Y-3.88
X7.385Y-2.58
X7.39Y-4.12
X7.39Y-4.175
X7.405Y-3.58
X7.425Y-2.485
X7.475Y-3.81
X7.48Y-4.51
X7.49Y-2.305
X7.525Y-3.615
X7.58Y-4.12
X7.58Y-4.175
X7.59Y-3.965
X7.62Y-2.765
X7.62Y-2.815
X7.625Y-3.56
X7.65Y-4.175
X7.685Y-3.87
X7.705Y-2.24
X7.715Y-4.51
X7.725Y-4.175
X7.76Y-2.545
X7.76Y-2.77
X7.76Y-2.93
X7.76Y-3.03
X7.855Y-4.085
X7.98Y-2.24
X7.98Y-2.68
X7.985Y-2.985
X7.985Y-3.255
X7.985Y-3.475
X7.99Y-3.915
X7.99Y-4.215
T4
X6.3677Y-2.1366
X6.3677Y-2.2366
X6.4461Y-2.1366
X6.4461Y-2.2366
X6.5461Y-2.1366
X6.5461Y-2.2366
X6.6244Y-2.1366
X6.6244Y-2.2366
X7.2732Y-2.1366
X7.2732Y-2.2366
X7.3516Y-2.1366
X7.3516Y-2.2366
X7.4516Y-2.1366
X7.4516Y-2.2366
X7.5299Y-2.1366
X7.5299Y-2.2366
X7.8951Y-2.4398
X7.8952Y-2.5197
T5
X4.0945Y-3.4689
X4.0945Y-3.5689
X4.0945Y-3.6689
X4.0945Y-3.7689
X4.0945Y-3.8689
X4.0945Y-3.9689
X4.0945Y-4.0689
X4.0945Y-4.1689
X6.435Y-3.795
X4.7213Y-4.2807
X4.7213Y-4.3807
X4.8213Y-4.2807
X4.8213Y-4.3807
X4.9213Y-4.2807
X4.9213Y-4.3807
X5.0213Y-4.2807
X5.0213Y-4.3807
X5.1213Y-4.2807
X5.1213Y-4.3807
X4.688Y-2.0909
X4.7331Y-2.013
X4.7331Y-2.1689
X4.7781Y-2.0909
X4.8232Y-2.013
X4.8232Y-2.1689
X4.8683Y-2.0909
X4.9134Y-2.013
X4.9134Y-2.1689
X4.9585Y-2.0909
X5.0035Y-2.013
X5.0035Y-2.1689
X5.0486Y-2.0909
X5.0937Y-2.013
X5.0937Y-2.1689
X7.874Y-2.6783
X7.874Y-2.7783
X7.874Y-2.8783
X7.874Y-2.9783
X7.874Y-3.0783
X7.874Y-3.1783
X7.874Y-3.2783
X7.874Y-3.3783
X7.874Y-3.4783
X7.874Y-3.5783
X7.874Y-3.6783
X7.874Y-3.7783
X5.9449Y-4.2807
X5.9449Y-4.3807
T6
X4.5646Y-3.0118
T7
X5.5118Y-2.5098
X5.5118Y-2.7657
T8
X6.248Y-2.0276
X6.4961Y-1.9961
X6.7441Y-2.0276
X7.1535Y-2.0276
X7.4016Y-1.9961
X7.6496Y-2.0276
T9
X4.4096Y-2.0909
X5.3935Y-2.0909
T3
G00X7.3102Y-4.2528
M15
G01X7.3102Y-4.2882
M16
G05
G00X7.3102Y-4.4232
M15
G01X7.3102Y-4.4469
M16
G05
G00X7.6504Y-4.2528
M15
G01X7.6504Y-4.2882
M16
G05
G00X7.6504Y-4.4232
M15
G01X7.6504Y-4.4469
M16
G05
T0
M30
