G04 #@! TF.GenerationSoftware,KiCad,Pcbnew,5.1.0-rc2-unknown-036be7d~80~ubuntu16.04.1*
G04 #@! TF.CreationDate,2023-05-05T15:17:37+03:00*
G04 #@! TF.ProjectId,ESP32-SBC-FabGL_Rev_A,45535033-322d-4534-9243-2d466162474c,A*
G04 #@! TF.SameCoordinates,Original*
G04 #@! TF.FileFunction,Legend,Bot*
G04 #@! TF.FilePolarity,Positive*
%FSLAX46Y46*%
G04 Gerber Fmt 4.6, Leading zero omitted, Abs format (unit mm)*
G04 Created by KiCad (PCBNEW 5.1.0-rc2-unknown-036be7d~80~ubuntu16.04.1) date 2023-05-05 15:17:37*
%MOMM*%
%LPD*%
G04 APERTURE LIST*
%ADD10C,0.317500*%
%ADD11C,0.444500*%
%ADD12C,0.762000*%
%ADD13C,0.254000*%
%ADD14C,0.508000*%
%ADD15C,0.150000*%
%ADD16C,0.127000*%
%ADD17C,0.200000*%
%ADD18C,0.420000*%
%ADD19C,0.370000*%
%ADD20C,0.400000*%
%ADD21C,0.380000*%
%ADD22C,1.000000*%
%ADD23C,0.700000*%
%ADD24C,0.500000*%
%ADD25C,0.100000*%
%ADD26C,0.300000*%
%ADD27C,0.350000*%
%ADD28C,0.180000*%
G04 APERTURE END LIST*
D10*
X202528714Y-63524190D02*
X202528714Y-64491809D01*
X202528714Y-61492190D02*
X202528714Y-62459809D01*
X203012523Y-61976000D02*
X202044904Y-61976000D01*
X143104809Y-63590714D02*
X142137190Y-63590714D01*
X142621000Y-64074523D02*
X142621000Y-63106904D01*
D11*
X141943666Y-65913000D02*
X141605000Y-67098333D01*
X141266333Y-66251666D01*
X140927666Y-67098333D01*
X140589000Y-65913000D01*
X140081000Y-65913000D02*
X139742333Y-67098333D01*
X139403666Y-66251666D01*
X139065000Y-67098333D01*
X138726333Y-65913000D01*
X138218333Y-65913000D02*
X137879666Y-67098333D01*
X137541000Y-66251666D01*
X137202333Y-67098333D01*
X136863666Y-65913000D01*
X136186333Y-66929000D02*
X136101666Y-67013666D01*
X136186333Y-67098333D01*
X136271000Y-67013666D01*
X136186333Y-66929000D01*
X136186333Y-67098333D01*
X135085666Y-67098333D02*
X135255000Y-67013666D01*
X135339666Y-66929000D01*
X135424333Y-66759666D01*
X135424333Y-66251666D01*
X135339666Y-66082333D01*
X135255000Y-65997666D01*
X135085666Y-65913000D01*
X134831666Y-65913000D01*
X134662333Y-65997666D01*
X134577666Y-66082333D01*
X134493000Y-66251666D01*
X134493000Y-66759666D01*
X134577666Y-66929000D01*
X134662333Y-67013666D01*
X134831666Y-67098333D01*
X135085666Y-67098333D01*
X133477000Y-67098333D02*
X133646333Y-67013666D01*
X133731000Y-66844333D01*
X133731000Y-65320333D01*
X132799666Y-67098333D02*
X132799666Y-65913000D01*
X132799666Y-65320333D02*
X132884333Y-65405000D01*
X132799666Y-65489666D01*
X132715000Y-65405000D01*
X132799666Y-65320333D01*
X132799666Y-65489666D01*
X131953000Y-67098333D02*
X131953000Y-65913000D01*
X131953000Y-66082333D02*
X131868333Y-65997666D01*
X131699000Y-65913000D01*
X131445000Y-65913000D01*
X131275666Y-65997666D01*
X131191000Y-66167000D01*
X131191000Y-67098333D01*
X131191000Y-66167000D02*
X131106333Y-65997666D01*
X130937000Y-65913000D01*
X130683000Y-65913000D01*
X130513666Y-65997666D01*
X130429000Y-66167000D01*
X130429000Y-67098333D01*
X128905000Y-67013666D02*
X129074333Y-67098333D01*
X129413000Y-67098333D01*
X129582333Y-67013666D01*
X129667000Y-66844333D01*
X129667000Y-66167000D01*
X129582333Y-65997666D01*
X129413000Y-65913000D01*
X129074333Y-65913000D01*
X128905000Y-65997666D01*
X128820333Y-66167000D01*
X128820333Y-66336333D01*
X129667000Y-66505666D01*
X128227666Y-67098333D02*
X127296333Y-65913000D01*
X128227666Y-65913000D02*
X127296333Y-67098333D01*
X126619000Y-66929000D02*
X126534333Y-67013666D01*
X126619000Y-67098333D01*
X126703666Y-67013666D01*
X126619000Y-66929000D01*
X126619000Y-67098333D01*
X125010333Y-67013666D02*
X125179666Y-67098333D01*
X125518333Y-67098333D01*
X125687666Y-67013666D01*
X125772333Y-66929000D01*
X125857000Y-66759666D01*
X125857000Y-66251666D01*
X125772333Y-66082333D01*
X125687666Y-65997666D01*
X125518333Y-65913000D01*
X125179666Y-65913000D01*
X125010333Y-65997666D01*
X123994333Y-67098333D02*
X124163666Y-67013666D01*
X124248333Y-66929000D01*
X124333000Y-66759666D01*
X124333000Y-66251666D01*
X124248333Y-66082333D01*
X124163666Y-65997666D01*
X123994333Y-65913000D01*
X123740333Y-65913000D01*
X123571000Y-65997666D01*
X123486333Y-66082333D01*
X123401666Y-66251666D01*
X123401666Y-66759666D01*
X123486333Y-66929000D01*
X123571000Y-67013666D01*
X123740333Y-67098333D01*
X123994333Y-67098333D01*
X122639666Y-67098333D02*
X122639666Y-65913000D01*
X122639666Y-66082333D02*
X122555000Y-65997666D01*
X122385666Y-65913000D01*
X122131666Y-65913000D01*
X121962333Y-65997666D01*
X121877666Y-66167000D01*
X121877666Y-67098333D01*
X121877666Y-66167000D02*
X121793000Y-65997666D01*
X121623666Y-65913000D01*
X121369666Y-65913000D01*
X121200333Y-65997666D01*
X121115666Y-66167000D01*
X121115666Y-67098333D01*
D12*
X178035857Y-74657857D02*
X176765857Y-74657857D01*
X176221571Y-76653571D02*
X178035857Y-76653571D01*
X178035857Y-72843571D01*
X176221571Y-72843571D01*
X174770142Y-76472142D02*
X174225857Y-76653571D01*
X173318714Y-76653571D01*
X172955857Y-76472142D01*
X172774428Y-76290714D01*
X172593000Y-75927857D01*
X172593000Y-75565000D01*
X172774428Y-75202142D01*
X172955857Y-75020714D01*
X173318714Y-74839285D01*
X174044428Y-74657857D01*
X174407285Y-74476428D01*
X174588714Y-74295000D01*
X174770142Y-73932142D01*
X174770142Y-73569285D01*
X174588714Y-73206428D01*
X174407285Y-73025000D01*
X174044428Y-72843571D01*
X173137285Y-72843571D01*
X172593000Y-73025000D01*
X170960142Y-76653571D02*
X170960142Y-72843571D01*
X169508714Y-72843571D01*
X169145857Y-73025000D01*
X168964428Y-73206428D01*
X168783000Y-73569285D01*
X168783000Y-74113571D01*
X168964428Y-74476428D01*
X169145857Y-74657857D01*
X169508714Y-74839285D01*
X170960142Y-74839285D01*
X167513000Y-72843571D02*
X165154428Y-72843571D01*
X166424428Y-74295000D01*
X165880142Y-74295000D01*
X165517285Y-74476428D01*
X165335857Y-74657857D01*
X165154428Y-75020714D01*
X165154428Y-75927857D01*
X165335857Y-76290714D01*
X165517285Y-76472142D01*
X165880142Y-76653571D01*
X166968714Y-76653571D01*
X167331571Y-76472142D01*
X167513000Y-76290714D01*
X163703000Y-73206428D02*
X163521571Y-73025000D01*
X163158714Y-72843571D01*
X162251571Y-72843571D01*
X161888714Y-73025000D01*
X161707285Y-73206428D01*
X161525857Y-73569285D01*
X161525857Y-73932142D01*
X161707285Y-74476428D01*
X163884428Y-76653571D01*
X161525857Y-76653571D01*
X159893000Y-75202142D02*
X156990142Y-75202142D01*
X155357285Y-76472142D02*
X154813000Y-76653571D01*
X153905857Y-76653571D01*
X153543000Y-76472142D01*
X153361571Y-76290714D01*
X153180142Y-75927857D01*
X153180142Y-75565000D01*
X153361571Y-75202142D01*
X153543000Y-75020714D01*
X153905857Y-74839285D01*
X154631571Y-74657857D01*
X154994428Y-74476428D01*
X155175857Y-74295000D01*
X155357285Y-73932142D01*
X155357285Y-73569285D01*
X155175857Y-73206428D01*
X154994428Y-73025000D01*
X154631571Y-72843571D01*
X153724428Y-72843571D01*
X153180142Y-73025000D01*
X150277285Y-74657857D02*
X149733000Y-74839285D01*
X149551571Y-75020714D01*
X149370142Y-75383571D01*
X149370142Y-75927857D01*
X149551571Y-76290714D01*
X149733000Y-76472142D01*
X150095857Y-76653571D01*
X151547285Y-76653571D01*
X151547285Y-72843571D01*
X150277285Y-72843571D01*
X149914428Y-73025000D01*
X149733000Y-73206428D01*
X149551571Y-73569285D01*
X149551571Y-73932142D01*
X149733000Y-74295000D01*
X149914428Y-74476428D01*
X150277285Y-74657857D01*
X151547285Y-74657857D01*
X145560142Y-76290714D02*
X145741571Y-76472142D01*
X146285857Y-76653571D01*
X146648714Y-76653571D01*
X147193000Y-76472142D01*
X147555857Y-76109285D01*
X147737285Y-75746428D01*
X147918714Y-75020714D01*
X147918714Y-74476428D01*
X147737285Y-73750714D01*
X147555857Y-73387857D01*
X147193000Y-73025000D01*
X146648714Y-72843571D01*
X146285857Y-72843571D01*
X145741571Y-73025000D01*
X145560142Y-73206428D01*
X143927285Y-75202142D02*
X141024428Y-75202142D01*
X137940142Y-74657857D02*
X139210142Y-74657857D01*
X139210142Y-76653571D02*
X139210142Y-72843571D01*
X137395857Y-72843571D01*
X134311571Y-76653571D02*
X134311571Y-74657857D01*
X134493000Y-74295000D01*
X134855857Y-74113571D01*
X135581571Y-74113571D01*
X135944428Y-74295000D01*
X134311571Y-76472142D02*
X134674428Y-76653571D01*
X135581571Y-76653571D01*
X135944428Y-76472142D01*
X136125857Y-76109285D01*
X136125857Y-75746428D01*
X135944428Y-75383571D01*
X135581571Y-75202142D01*
X134674428Y-75202142D01*
X134311571Y-75020714D01*
X132497285Y-76653571D02*
X132497285Y-72843571D01*
X132497285Y-74295000D02*
X132134428Y-74113571D01*
X131408714Y-74113571D01*
X131045857Y-74295000D01*
X130864428Y-74476428D01*
X130683000Y-74839285D01*
X130683000Y-75927857D01*
X130864428Y-76290714D01*
X131045857Y-76472142D01*
X131408714Y-76653571D01*
X132134428Y-76653571D01*
X132497285Y-76472142D01*
X127054428Y-73025000D02*
X127417285Y-72843571D01*
X127961571Y-72843571D01*
X128505857Y-73025000D01*
X128868714Y-73387857D01*
X129050142Y-73750714D01*
X129231571Y-74476428D01*
X129231571Y-75020714D01*
X129050142Y-75746428D01*
X128868714Y-76109285D01*
X128505857Y-76472142D01*
X127961571Y-76653571D01*
X127598714Y-76653571D01*
X127054428Y-76472142D01*
X126873000Y-76290714D01*
X126873000Y-75020714D01*
X127598714Y-75020714D01*
X123425857Y-76653571D02*
X125240142Y-76653571D01*
X125240142Y-72843571D01*
D13*
X123698000Y-85598000D02*
X123190000Y-85598000D01*
X123571000Y-85471000D02*
X122936000Y-85471000D01*
X123444000Y-85344000D02*
X122809000Y-85344000D01*
X123444000Y-85217000D02*
X122682000Y-85217000D01*
X123393200Y-85090000D02*
X122555000Y-85090000D01*
X123317000Y-84963000D02*
X122555000Y-84963000D01*
X123317000Y-84836000D02*
X122555000Y-84836000D01*
X123317000Y-84709000D02*
X122555000Y-84709000D01*
X123317000Y-84582000D02*
X122555000Y-84582000D01*
X123317000Y-84455000D02*
X122555000Y-84455000D01*
X123317000Y-84328000D02*
X122555000Y-84328000D01*
X123317000Y-84201000D02*
X122682000Y-84201000D01*
X123190000Y-84074000D02*
X122682000Y-84074000D01*
X123190000Y-83947000D02*
X122682000Y-83947000D01*
X122809000Y-83439000D02*
X122809000Y-83947000D01*
X122936000Y-83439000D02*
X122936000Y-83947000D01*
X123063000Y-83058000D02*
X122555000Y-83058000D01*
X123190000Y-83185000D02*
X122555000Y-83185000D01*
X123444000Y-83312000D02*
X122682000Y-83312000D01*
X122936000Y-83439000D02*
X123825000Y-83439000D01*
X122809000Y-83439000D02*
X122936000Y-83439000D01*
X122682000Y-83439000D02*
X122809000Y-83439000D01*
X123444000Y-83566000D02*
X123952000Y-83566000D01*
X123571000Y-83693000D02*
X124206000Y-83693000D01*
X123571000Y-83820000D02*
X124333000Y-83820000D01*
X123698000Y-83947000D02*
X124460000Y-83947000D01*
X123698000Y-84074000D02*
X124587000Y-84074000D01*
X123825000Y-84201000D02*
X124587000Y-84201000D01*
X123825000Y-84328000D02*
X124587000Y-84328000D01*
X123825000Y-84455000D02*
X124714000Y-84455000D01*
X123825000Y-84582000D02*
X124714000Y-84582000D01*
X124587000Y-85344000D02*
X124079000Y-85344000D01*
X124587000Y-85217000D02*
X123952000Y-85217000D01*
X124714000Y-85090000D02*
X123952000Y-85090000D01*
X124714000Y-84963000D02*
X123952000Y-84963000D01*
X124587000Y-84836000D02*
X123952000Y-84836000D01*
X124079000Y-84709000D02*
X124079000Y-85217000D01*
X123825000Y-84709000D02*
X124333000Y-85598000D01*
X124079000Y-84709000D02*
X123825000Y-84709000D01*
X124460000Y-84709000D02*
X124079000Y-84709000D01*
X124587000Y-85344000D02*
X124587000Y-85471000D01*
X124587000Y-85217000D02*
X124587000Y-85344000D01*
X124587000Y-84836000D02*
X124587000Y-85217000D01*
X124587000Y-84709000D02*
X124587000Y-84836000D01*
X124460000Y-84709000D02*
X124460000Y-85344000D01*
X124587000Y-84709000D02*
X124460000Y-84709000D01*
X124714000Y-84709000D02*
X124587000Y-84709000D01*
X124714000Y-84963000D02*
X124714000Y-84709000D01*
X124714000Y-84985860D02*
X124714000Y-84963000D01*
X123774200Y-84531200D02*
X123774200Y-84523580D01*
X124157740Y-85600540D02*
X124185680Y-85628480D01*
D14*
X127508000Y-84201000D02*
X128778000Y-83947000D01*
X127127000Y-84328000D02*
X127508000Y-84201000D01*
X127000000Y-84201000D02*
X127127000Y-84328000D01*
X127000000Y-84074000D02*
X127000000Y-84201000D01*
X127508000Y-83820000D02*
X127000000Y-84074000D01*
X127762000Y-83820000D02*
X127508000Y-83820000D01*
X128778000Y-83566000D02*
X127762000Y-83820000D01*
X129286000Y-83566000D02*
X128778000Y-83566000D01*
X129413000Y-83693000D02*
X129286000Y-83566000D01*
X129286000Y-83820000D02*
X129413000Y-83693000D01*
X128651000Y-84328000D02*
X129286000Y-83820000D01*
X128143000Y-84455000D02*
X128651000Y-84328000D01*
X127762000Y-84582000D02*
X128143000Y-84455000D01*
X127127000Y-84582000D02*
X127762000Y-84582000D01*
X126746000Y-84455000D02*
X127127000Y-84582000D01*
X126492000Y-84455000D02*
X126746000Y-84455000D01*
X126365000Y-84201000D02*
X126492000Y-84455000D01*
X126492000Y-84074000D02*
X126365000Y-84201000D01*
X127127000Y-83566000D02*
X126492000Y-84074000D01*
X128143000Y-83312000D02*
X127127000Y-83566000D01*
X129286000Y-83185000D02*
X128143000Y-83312000D01*
X129413000Y-83185000D02*
X129286000Y-83185000D01*
X129540000Y-83312000D02*
X129413000Y-83185000D01*
X130302000Y-82677000D02*
X129540000Y-83312000D01*
X129667000Y-82677000D02*
X130429000Y-82296000D01*
X128930400Y-82931000D02*
X129667000Y-82677000D01*
X128320800Y-82931000D02*
X128930400Y-82931000D01*
X126923800Y-83413600D02*
X128320800Y-82931000D01*
X126238000Y-83820000D02*
X126923800Y-83413600D01*
X125730000Y-84328000D02*
X126238000Y-83820000D01*
X125476000Y-84836000D02*
X125730000Y-84328000D01*
X125730000Y-84582000D02*
X125476000Y-84836000D01*
X126111000Y-84455000D02*
X125730000Y-84582000D01*
X126873000Y-84963000D02*
X126111000Y-84455000D01*
X127762000Y-84963000D02*
X126873000Y-84963000D01*
X128651000Y-84709000D02*
X127762000Y-84963000D01*
X129159000Y-84328000D02*
X128651000Y-84709000D01*
X130048000Y-83439000D02*
X129159000Y-84328000D01*
X130302000Y-83058000D02*
X130048000Y-83439000D01*
X130683000Y-82550000D02*
X130302000Y-83058000D01*
X130812540Y-82042000D02*
X131191000Y-81155540D01*
X130812540Y-82423000D02*
X130812540Y-82042000D01*
X131191000Y-81915000D02*
X130812540Y-82423000D01*
X131318000Y-81407000D02*
X131191000Y-81915000D01*
X131826000Y-80518000D02*
X131318000Y-81407000D01*
X126238000Y-82042000D02*
X127889000Y-82042000D01*
X126365000Y-81661000D02*
X131318000Y-81584800D01*
X126365000Y-81915000D02*
X126365000Y-81661000D01*
X126365000Y-81407000D02*
X126365000Y-81661000D01*
X130937000Y-81407000D02*
X126365000Y-81407000D01*
X130429000Y-81534000D02*
X130937000Y-81407000D01*
X129159000Y-81915000D02*
X130429000Y-81534000D01*
X128016000Y-82042000D02*
X129159000Y-81915000D01*
X127889000Y-82042000D02*
X128016000Y-82042000D01*
X127381000Y-82042000D02*
X127889000Y-82042000D01*
X126746000Y-82423000D02*
X127381000Y-82042000D01*
X126365000Y-81915000D02*
X125984000Y-82423000D01*
X126619000Y-82423000D02*
X126365000Y-81915000D01*
X125984000Y-82804000D02*
X126619000Y-82423000D01*
X125476000Y-83439000D02*
X125984000Y-82804000D01*
X125603000Y-82423000D02*
X125476000Y-83439000D01*
X125857000Y-81915000D02*
X125603000Y-82423000D01*
X126365000Y-81407000D02*
X125857000Y-81915000D01*
X127000000Y-81026000D02*
X126365000Y-81407000D01*
X128651000Y-81026000D02*
X127000000Y-81026000D01*
X129667000Y-81155540D02*
X128651000Y-81026000D01*
X130812540Y-81155540D02*
X129667000Y-81155540D01*
D13*
X131826000Y-80518000D02*
X130812540Y-81155540D01*
X123367800Y-84533740D02*
X123393200Y-84924900D01*
X124447300Y-85725000D02*
X124460000Y-85725000D01*
X123545600Y-85725000D02*
X123901200Y-85725000D01*
X122742960Y-85404960D02*
X122765820Y-85427820D01*
X122428000Y-82804000D02*
X122562620Y-83342480D01*
X123444000Y-83185000D02*
X122428000Y-82804000D01*
X123865640Y-83365340D02*
X123444000Y-83185000D01*
X124640340Y-84104480D02*
X124587000Y-84010500D01*
X124460000Y-85725000D02*
X124757180Y-85305900D01*
X124594620Y-85859620D02*
X124460000Y-85725000D01*
X125349000Y-85725000D02*
X125244860Y-85831680D01*
X126111000Y-86487000D02*
X125620780Y-85996780D01*
X125349000Y-85389720D02*
X125349000Y-85344000D01*
X125984000Y-86614000D02*
X125476000Y-85852000D01*
X129425700Y-82075020D02*
X130812540Y-81661000D01*
X127558800Y-82364580D02*
X128076960Y-82290920D01*
X126283720Y-82872580D02*
X126291340Y-82867500D01*
X125224540Y-83947000D02*
X125227080Y-83944460D01*
X125638560Y-84091780D02*
X125468380Y-84279740D01*
X128503680Y-82760820D02*
X128193800Y-82821780D01*
X130812540Y-81661000D02*
X130530600Y-82008980D01*
X125984000Y-86487000D02*
X125798580Y-86301580D01*
X125326140Y-85171280D02*
X125349000Y-85217000D01*
X125224540Y-83566000D02*
X125224540Y-83947000D01*
X125430280Y-82288380D02*
X125282960Y-82887820D01*
X129628900Y-80967580D02*
X127480060Y-80772000D01*
X132207000Y-80010000D02*
X131345940Y-80629760D01*
X127452120Y-85217000D02*
X126936500Y-85217000D01*
X129357120Y-84513420D02*
X129321560Y-84548980D01*
X132207000Y-80010000D02*
X131340860Y-82125820D01*
X125625860Y-84942680D02*
X125349000Y-85217000D01*
X126398020Y-84996020D02*
X126344680Y-84942680D01*
X139065000Y-89027000D02*
X127254000Y-89027000D01*
X127254000Y-85979000D02*
X139065000Y-85979000D01*
X124713556Y-84987371D02*
G75*
G02X124460000Y-85598000I-865696J1511D01*
G01*
X123267020Y-83492180D02*
G75*
G02X123774200Y-84523580I-991420J-1127920D01*
G01*
X124184340Y-85628046D02*
G75*
G02X123774200Y-84531200I1118940J1043506D01*
G01*
X124461788Y-85726791D02*
G75*
G02X124157740Y-85600540I752J431051D01*
G01*
X123895340Y-85720613D02*
G75*
G02X123393200Y-84924900I709440J1003993D01*
G01*
X123013795Y-83586066D02*
G75*
G02X123367800Y-84576920I-1408755J-1061974D01*
G01*
X123546927Y-85726303D02*
G75*
G02X123347480Y-85702140I-1327J824263D01*
G01*
X123345497Y-85701453D02*
G75*
G02X122765820Y-85427820I205183J1185493D01*
G01*
X122741946Y-85405974D02*
G75*
G02X122428000Y-84648040I757934J757934D01*
G01*
X122428283Y-84648487D02*
G75*
G02X122499120Y-84279740I992857J447D01*
G01*
X122563148Y-83345136D02*
G75*
G02X122499120Y-84279740I-1478808J-368184D01*
G01*
X123865000Y-83366511D02*
G75*
G02X124587000Y-84010500I-601340J-1400909D01*
G01*
X124640794Y-84106321D02*
G75*
G02X124841000Y-84861400I-1323794J-755079D01*
G01*
X124842874Y-84861901D02*
G75*
G02X124757180Y-85305900I-1195674J501D01*
G01*
X124886720Y-85980612D02*
G75*
G02X124594620Y-85859620I0J413092D01*
G01*
X125244134Y-85830954D02*
G75*
G02X124886720Y-85979000I-357414J357414D01*
G01*
X125617258Y-85996710D02*
G75*
G02X125349000Y-85344000I653762J650170D01*
G01*
X125854978Y-86614280D02*
G75*
G02X125349000Y-85389720I1228842J1224560D01*
G01*
X129419379Y-82075186D02*
G75*
G02X128076960Y-82290920I-1812319J6992786D01*
G01*
X126295130Y-82864934D02*
G75*
G02X127558800Y-82364580I2134890J-3545866D01*
G01*
X125228641Y-83942765D02*
G75*
G02X126283720Y-82872580I3831299J-2722035D01*
G01*
X125348155Y-85217069D02*
G75*
G02X125468380Y-84279740I762845J378529D01*
G01*
X125639473Y-84091156D02*
G75*
G02X128193800Y-82821780I3654147J-4148444D01*
G01*
X130530541Y-82010778D02*
G75*
G02X128503680Y-82760820I-2631381J3997218D01*
G01*
X125796549Y-86302559D02*
G75*
G02X125349000Y-85217000I1086611J1083019D01*
G01*
X125222760Y-83565243D02*
G75*
G02X125282960Y-82887820I3049780J70363D01*
G01*
X125429736Y-82284585D02*
G75*
G02X127480060Y-80772000I2144304J-760715D01*
G01*
X131343952Y-80627522D02*
G75*
G02X129628900Y-80967580I-1268012J1900222D01*
G01*
X129317933Y-84551013D02*
G75*
G02X127452120Y-85217000I-1738813J1924813D01*
G01*
X131338464Y-82131447D02*
G75*
G02X129357120Y-84513420I-8344044J4925607D01*
G01*
X125625860Y-84940140D02*
G75*
G02X126344680Y-84942680I358140J-360680D01*
G01*
X126936500Y-85219066D02*
G75*
G02X126398020Y-84996020I0J761526D01*
G01*
X127254000Y-89027000D02*
G75*
G02X125730000Y-87503000I0J1524000D01*
G01*
X140589000Y-87503000D02*
G75*
G02X139065000Y-89027000I-1524000J0D01*
G01*
X139065000Y-85979000D02*
G75*
G02X140589000Y-87503000I0J-1524000D01*
G01*
X125730000Y-87503000D02*
G75*
G02X127254000Y-85979000I1524000J0D01*
G01*
D15*
X153495000Y-100788000D02*
X153495000Y-101550000D01*
X158067000Y-100788000D02*
X153495000Y-100788000D01*
X158067000Y-101550000D02*
X158067000Y-100788000D01*
X153495000Y-101550000D02*
X158067000Y-101550000D01*
X153545800Y-100838800D02*
X157965400Y-100838800D01*
X158016200Y-100940400D02*
X153545800Y-100940400D01*
X153545800Y-101092800D02*
X157965400Y-101092800D01*
X153545800Y-101245200D02*
X157965400Y-101245200D01*
X158016200Y-100991200D02*
X153596600Y-100991200D01*
X158016200Y-101143600D02*
X153545800Y-101143600D01*
X153596600Y-101346800D02*
X157965400Y-101346800D01*
X158016200Y-101448400D02*
X153596600Y-101448400D01*
D13*
X157861000Y-96012000D02*
X153670000Y-100203000D01*
X157734000Y-100076000D02*
X153670000Y-96139000D01*
X156718000Y-99695000D02*
X155321000Y-99695000D01*
X156718000Y-99695000D02*
X156972000Y-96647000D01*
X157226000Y-96520000D02*
X154305000Y-96520000D01*
X156210000Y-100076000D02*
X156210000Y-99822000D01*
X156718000Y-100076000D02*
X156210000Y-100076000D01*
X156718000Y-99695000D02*
X156718000Y-100076000D01*
X154813000Y-99187000D02*
X154686000Y-97155000D01*
X155214609Y-99695000D02*
G75*
G03X155214609Y-99695000I-401609J0D01*
G01*
X156591000Y-95885000D02*
X156591000Y-96393000D01*
X156718000Y-95885000D02*
X156591000Y-95885000D01*
X156718000Y-96393000D02*
X156718000Y-95885000D01*
X154305000Y-97028000D02*
X154305000Y-96520000D01*
X154686000Y-97028000D02*
X154305000Y-97028000D01*
X154686000Y-96520000D02*
X154686000Y-97028000D01*
X154559000Y-96647000D02*
X154559000Y-96774000D01*
X154559000Y-96520000D02*
X154432000Y-96901000D01*
X154559000Y-96647000D02*
X154559000Y-96774000D01*
X154432000Y-96647000D02*
X154432000Y-97028000D01*
X154559000Y-96647000D02*
X154432000Y-96647000D01*
X154559000Y-97028000D02*
X154559000Y-96647000D01*
X155956000Y-97409000D02*
X155956000Y-97028000D01*
X155067000Y-97409000D02*
X155956000Y-97409000D01*
X155067000Y-97028000D02*
X155067000Y-97409000D01*
X155956000Y-97028000D02*
X155067000Y-97028000D01*
X155829000Y-97155000D02*
X155194000Y-97155000D01*
X155575000Y-95631000D02*
X155956000Y-95631000D01*
X155575000Y-95758000D02*
X155575000Y-95631000D01*
X155956000Y-95758000D02*
X155575000Y-95758000D01*
X155956000Y-95631000D02*
X155956000Y-95758000D01*
D16*
X154940000Y-99695000D02*
G75*
G03X154940000Y-99695000I-127000J0D01*
G01*
D13*
X154686000Y-96393000D02*
G75*
G02X156972000Y-96393000I1143000J-1143000D01*
G01*
X131520037Y-99501960D02*
G75*
G03X131520037Y-99501960I-1802237J0D01*
G01*
D17*
X128557020Y-100665280D02*
X130990340Y-98244660D01*
D18*
X174073820Y-87551260D02*
X173522640Y-86128860D01*
D19*
X174419260Y-87365840D02*
X174101760Y-87571580D01*
D20*
X175209200Y-87914480D02*
X174429420Y-87383620D01*
D21*
X175785780Y-87376000D02*
X175221900Y-87914480D01*
D19*
X175770540Y-87376000D02*
X175237140Y-86542880D01*
X175595280Y-85615780D02*
X175237140Y-86499700D01*
X176573180Y-85374480D02*
X175623220Y-85592920D01*
D21*
X176563020Y-84597240D02*
X176568100Y-85384640D01*
D19*
X176575720Y-84584540D02*
X175557180Y-84404200D01*
X175526700Y-84368640D02*
X175178720Y-83502500D01*
X175755300Y-82600800D02*
X175199040Y-83451700D01*
D21*
X175765460Y-82577940D02*
X175265080Y-82044540D01*
D19*
X175216820Y-82019140D02*
X174388780Y-82671920D01*
X174327820Y-82661760D02*
X173482000Y-82255360D01*
X173222920Y-81221580D02*
X173428660Y-82235040D01*
X173230540Y-81208880D02*
X172445680Y-81208880D01*
X172463460Y-81229200D02*
X172250100Y-82247740D01*
X172250100Y-82247740D02*
X171348400Y-82697320D01*
X171335700Y-82692240D02*
X170431460Y-82057800D01*
X170431460Y-82059780D02*
X169877740Y-82605880D01*
X169877740Y-82608420D02*
X170494960Y-83398360D01*
X170494960Y-83398360D02*
X170154600Y-84335620D01*
X170154600Y-84335620D02*
X169072560Y-84564220D01*
X169072560Y-84564220D02*
X169072560Y-85399880D01*
X169072560Y-85399880D02*
X170086020Y-85570060D01*
X170086020Y-85570060D02*
X170492420Y-86481920D01*
X170441620Y-87929720D02*
X171277280Y-87363300D01*
X171277280Y-87363300D02*
X171615100Y-87548720D01*
X171615100Y-87548720D02*
X172189140Y-86108540D01*
X170492420Y-86481920D02*
X169872660Y-87368380D01*
X170426380Y-87922100D02*
X169872660Y-87376000D01*
D15*
X173992540Y-87731600D02*
X173342300Y-86062820D01*
X174376080Y-87528400D02*
X174030640Y-87749380D01*
X174388780Y-87518240D02*
X175214280Y-88082120D01*
X175221900Y-88089740D02*
X175943260Y-87396320D01*
X175950880Y-87393780D02*
X175353980Y-86530180D01*
X176712880Y-85486240D02*
X175641000Y-85681820D01*
X176712880Y-84493100D02*
X176712880Y-85478620D01*
X176715420Y-84490560D02*
X175544480Y-84287360D01*
X175646080Y-84292440D02*
X175310800Y-83459320D01*
X175907700Y-82608420D02*
X175313340Y-83461860D01*
X175928020Y-82572860D02*
X175254920Y-81859120D01*
X175242220Y-81856580D02*
X174271940Y-82572860D01*
X174307500Y-82504280D02*
X173403260Y-82125820D01*
X173319440Y-81109820D02*
X173520100Y-82135980D01*
X173309280Y-81102200D02*
X172344080Y-81102200D01*
X172344080Y-81102200D02*
X172118020Y-82273140D01*
X172128180Y-82191860D02*
X171323000Y-82529680D01*
X171442380Y-82577940D02*
X170431460Y-81904840D01*
X170426380Y-81902300D02*
X169732960Y-82593180D01*
X169727880Y-82600800D02*
X170431460Y-83591400D01*
X170342560Y-83482180D02*
X169976800Y-84350860D01*
X169039540Y-85252560D02*
X170146980Y-85476080D01*
X168955720Y-84510880D02*
X168958260Y-85468460D01*
X170093640Y-85699600D02*
X168970960Y-85488780D01*
X169989500Y-85666580D02*
X170370500Y-86647020D01*
X170022520Y-87302340D02*
X170507660Y-87833200D01*
X170418760Y-88077040D02*
X169735500Y-87386160D01*
X171305220Y-87462360D02*
X170428920Y-88082120D01*
X170441620Y-87767160D02*
X171262040Y-87238840D01*
X171124880Y-87434420D02*
X171653200Y-87762080D01*
X171653200Y-87762080D02*
X172039280Y-86781640D01*
X172044360Y-86083140D02*
X171516040Y-87464900D01*
X176420780Y-84681060D02*
X176420780Y-85331300D01*
X176563020Y-84736940D02*
X175447960Y-84490560D01*
X175033940Y-83469480D02*
X175420020Y-84467700D01*
X175028860Y-83474560D02*
X175630840Y-82565240D01*
X175272700Y-82120740D02*
X174388780Y-82842100D01*
X172001180Y-86141560D02*
X171823380Y-86019640D01*
X171823380Y-86019640D02*
X171447460Y-85308440D01*
X171447460Y-85308440D02*
X171447460Y-84790280D01*
X171442380Y-84802980D02*
X171676060Y-84129880D01*
X171676060Y-84129880D02*
X172186600Y-83700620D01*
X172186600Y-83700620D02*
X173001940Y-83540600D01*
X173001940Y-83532980D02*
X173873160Y-83962240D01*
X173873160Y-83962240D02*
X174292260Y-84693760D01*
X174297340Y-84698840D02*
X174165260Y-85521800D01*
X174160180Y-85552280D02*
X174066200Y-85722460D01*
X174160180Y-85552280D02*
X174066200Y-85722460D01*
X173936660Y-85773260D02*
X173677580Y-86111080D01*
X173568360Y-85887560D02*
X173342300Y-86062820D01*
X172067220Y-85890100D02*
X172321220Y-86055200D01*
X172204380Y-86344760D02*
X172326300Y-86060280D01*
X174383700Y-82839560D02*
X173400720Y-82346800D01*
X174053500Y-85752940D02*
X173746160Y-86019640D01*
D22*
X175069500Y-87182960D02*
X174216060Y-86161880D01*
X176105820Y-84978240D02*
X174688500Y-84917280D01*
X175120300Y-82692240D02*
X174058580Y-83799680D01*
X172859700Y-81716880D02*
X172854620Y-83230720D01*
X170594020Y-82773520D02*
X171706540Y-83840320D01*
X169603420Y-84957920D02*
X171071540Y-85044280D01*
X174393860Y-87010240D02*
X174028100Y-86248240D01*
X175059340Y-86111080D02*
X174495460Y-85631020D01*
X175308260Y-85465920D02*
X174602140Y-85338920D01*
X174983140Y-84221320D02*
X174541180Y-84381340D01*
X174807880Y-83741260D02*
X174350680Y-84030820D01*
X173809660Y-82964020D02*
X173634400Y-83322160D01*
X173375320Y-82704940D02*
X173207680Y-83314540D01*
X172110400Y-82720180D02*
X172331380Y-83405980D01*
X171523660Y-82971640D02*
X171942760Y-83558380D01*
X170654980Y-83840320D02*
X171310300Y-84206080D01*
X170413680Y-84533740D02*
X171135040Y-84681060D01*
X171249340Y-85691980D02*
X170639740Y-85798660D01*
X171569380Y-86111080D02*
X170952160Y-86438740D01*
X171683680Y-86248240D02*
X170502580Y-87261700D01*
X171683680Y-86156800D02*
X171350940Y-86888320D01*
D19*
X172178980Y-86106000D02*
G75*
G02X171808140Y-84241640I746760J1117600D01*
G01*
X171797980Y-84256880D02*
G75*
G02X173723300Y-84058760I1061720J-863600D01*
G01*
X173748700Y-84084160D02*
G75*
G02X173672500Y-85938360I-965200J-889000D01*
G01*
D13*
X156400500Y-87757000D02*
X156464000Y-87757000D01*
X156400500Y-87757000D02*
X156400500Y-86741000D01*
X156337000Y-87947500D02*
X156337000Y-87820500D01*
X156781500Y-86550500D02*
X156781500Y-87630000D01*
X155829000Y-87947500D02*
X155676600Y-87947500D01*
X152844500Y-86360000D02*
X153162000Y-86360000D01*
X154470100Y-85471000D02*
X153289000Y-85471000D01*
X156845000Y-85534500D02*
X151511000Y-89027000D01*
X153289000Y-85471000D02*
X155067000Y-81915000D01*
X152844500Y-86360000D02*
X153289000Y-85471000D01*
X151511000Y-89027000D02*
X152844500Y-86360000D01*
X158623000Y-89027000D02*
X151511000Y-89027000D01*
X155067000Y-81915000D02*
X158623000Y-89027000D01*
X156464000Y-87757000D02*
G75*
G02X156591000Y-87884000I0J-127000D01*
G01*
X156337000Y-87820500D02*
G75*
G02X156400500Y-87757000I63500J0D01*
G01*
X156398071Y-88013545D02*
G75*
G02X156337000Y-87947500I2429J63505D01*
G01*
X156781500Y-87630000D02*
G75*
G02X156400500Y-88011000I-381000J0D01*
G01*
X156592048Y-86234575D02*
G75*
G02X156781500Y-86550500I-168688J-315925D01*
G01*
X156589549Y-86233142D02*
G75*
G02X156273500Y-85915500I478971J792622D01*
G01*
X156398935Y-86742845D02*
G75*
G02X155702000Y-86296500I153965J1007685D01*
G01*
X155955068Y-87503674D02*
G75*
G02X155956000Y-87820500I-316568J-159346D01*
G01*
X155955967Y-87820600D02*
G75*
G02X155829000Y-87947500I-190467J63600D01*
G01*
X154627275Y-87059493D02*
G75*
G02X155067000Y-87185500I-825195J-3709947D01*
G01*
X155066915Y-87186965D02*
G75*
G02X155638500Y-87947500I-284395J-808795D01*
G01*
X155004708Y-86742166D02*
G75*
G02X155956000Y-87503000I-285688J-1332334D01*
G01*
X154492461Y-86996576D02*
G75*
G02X153670000Y-86550500I147819J1253796D01*
G01*
X153161301Y-86360474D02*
G75*
G02X153670000Y-86550500I64199J-604046D01*
G01*
X154685915Y-85409114D02*
G75*
G02X154470100Y-85471000I-182795J230214D01*
G01*
X154686721Y-85407678D02*
G75*
G02X156273500Y-85915500I466639J-1274902D01*
G01*
D20*
X177235747Y-65405000D02*
G75*
G03X177235747Y-65405000I-337447J0D01*
G01*
D23*
X176911000Y-64630300D02*
X176403000Y-64122300D01*
X175310800Y-64046100D02*
X174675800Y-64655700D01*
X174701200Y-66611500D02*
X175260000Y-67195700D01*
X173075600Y-67208400D02*
X173532800Y-66751200D01*
X172089800Y-67208400D02*
X173075600Y-67208400D01*
D20*
X171943324Y-67183000D02*
G75*
G03X171943324Y-67183000I-366324J0D01*
G01*
D23*
X171577000Y-64490600D02*
X171577000Y-66090800D01*
D20*
X171937818Y-63957200D02*
G75*
G03X171937818Y-63957200I-373518J0D01*
G01*
X170704759Y-67157600D02*
G75*
G03X170704759Y-67157600I-359659J0D01*
G01*
D23*
X170357800Y-66649600D02*
X170357800Y-64058800D01*
X170357800Y-64058800D02*
X169519600Y-64058800D01*
X169519600Y-64058800D02*
X168910000Y-64566800D01*
X168808400Y-65354200D02*
X168808400Y-64643000D01*
X168732200Y-64566800D02*
X168097200Y-64058800D01*
D20*
X169179318Y-65887600D02*
G75*
G03X169179318Y-65887600I-370918J0D01*
G01*
D23*
X168097200Y-64058800D02*
X167208200Y-64058800D01*
D20*
X167558729Y-67170300D02*
G75*
G03X167558729Y-67170300I-363229J0D01*
G01*
X161695666Y-67259200D02*
G75*
G03X161695666Y-67259200I-329466J0D01*
G01*
D23*
X161696400Y-66903600D02*
X162534600Y-66090800D01*
D24*
X163042600Y-65989200D02*
X162509200Y-65989200D01*
D23*
X164185600Y-67208400D02*
X163042600Y-66090800D01*
X165506400Y-67208400D02*
X164185600Y-67208400D01*
X165938200Y-66776600D02*
X165506400Y-67208400D01*
X165938200Y-64541400D02*
X165938200Y-66776600D01*
X165938200Y-64516000D02*
X165455600Y-64008000D01*
X165407500Y-64033400D02*
X164185600Y-64033400D01*
X164185600Y-64033400D02*
X163093400Y-65100200D01*
D24*
X163068000Y-65214500D02*
X162509200Y-65214500D01*
D23*
X161645600Y-64223900D02*
X162509200Y-65117600D01*
D20*
X161636735Y-63868300D02*
G75*
G03X161636735Y-63868300I-359435J0D01*
G01*
D23*
X164719000Y-65608200D02*
X165938200Y-65608200D01*
D20*
X164570659Y-65608200D02*
G75*
G03X164570659Y-65608200I-359659J0D01*
G01*
D23*
X176339500Y-67221100D02*
X175298100Y-67221100D01*
X176898300Y-66662300D02*
X176898300Y-65900300D01*
X176911000Y-66649600D02*
X176326800Y-67221100D01*
X176911000Y-64681100D02*
X176911000Y-64922400D01*
X174688500Y-64643000D02*
X174688500Y-66573400D01*
X175310800Y-64033400D02*
X176314100Y-64033400D01*
X167195500Y-64046100D02*
X167195500Y-66649600D01*
X173532800Y-66763900D02*
X173532800Y-64033400D01*
D25*
X173532800Y-63690500D02*
X173812200Y-63690500D01*
X173837600Y-63690500D02*
X173837600Y-66840100D01*
X173824900Y-63690500D02*
X173837600Y-63690500D01*
X173812200Y-63690500D02*
X173824900Y-63690500D01*
X173697900Y-63779400D02*
X173761400Y-63766700D01*
X173215300Y-63690500D02*
X173215300Y-66725800D01*
X173520100Y-63690500D02*
X173215300Y-63690500D01*
X173393100Y-63766700D02*
X173278800Y-63766700D01*
X171894500Y-64376300D02*
X171894500Y-66395600D01*
X171259500Y-66395600D02*
X171259500Y-64376300D01*
X171284900Y-66395600D02*
X171259500Y-66395600D01*
X171894500Y-66395600D02*
X171284900Y-66395600D01*
X171754800Y-66332100D02*
X171818300Y-66332100D01*
X171411900Y-66332100D02*
X171323000Y-66332100D01*
X170675300Y-66738500D02*
X170675300Y-63754000D01*
X169430700Y-63741300D02*
X168846500Y-64223900D01*
X170675300Y-63741300D02*
X169430700Y-63741300D01*
X170522900Y-63804800D02*
X170599100Y-63804800D01*
X166865300Y-66763900D02*
X166865300Y-63754000D01*
X168186100Y-63741300D02*
X168808400Y-64236600D01*
X168160700Y-63741300D02*
X168186100Y-63741300D01*
X166865300Y-63741300D02*
X168160700Y-63741300D01*
X166865300Y-63754000D02*
X166865300Y-63741300D01*
X167017700Y-63817500D02*
X166916100Y-63817500D01*
X164071300Y-63703200D02*
X162814000Y-64947800D01*
X164122100Y-63703200D02*
X164071300Y-63703200D01*
X165493700Y-63703200D02*
X164122100Y-63703200D01*
D13*
X172363000Y-99568000D02*
X173613000Y-99568000D01*
X172363000Y-99818000D02*
X173613000Y-99818000D01*
X172363000Y-99318000D02*
X172363000Y-99818000D01*
X173613000Y-99318000D02*
X172363000Y-99318000D01*
X172113000Y-97568000D02*
X172113000Y-98068000D01*
X172113000Y-101068000D02*
X172113000Y-101568000D01*
X175613000Y-101068000D02*
X175613000Y-101568000D01*
X175613000Y-97568000D02*
X175613000Y-98068000D01*
X172113000Y-101568000D02*
G75*
G03X172113000Y-97568000I0J2000000D01*
G01*
D26*
X172162980Y-101318000D02*
G75*
G03X172163000Y-97818000I-49980J1750000D01*
G01*
D13*
X172113000Y-101068000D02*
G75*
G03X172113000Y-98068000I0J1500000D01*
G01*
D26*
X175662980Y-101318000D02*
G75*
G03X175663000Y-97818000I-49980J1750000D01*
G01*
D13*
X175613000Y-101568000D02*
G75*
G03X175613000Y-97568000I0J2000000D01*
G01*
X175613000Y-101068000D02*
G75*
G03X175613000Y-98068000I0J1500000D01*
G01*
D27*
X138622193Y-88188800D02*
X138706860Y-88273466D01*
X138960860Y-88358133D01*
X139130193Y-88358133D01*
X139384193Y-88273466D01*
X139553526Y-88104133D01*
X139638193Y-87934800D01*
X139722860Y-87596133D01*
X139722860Y-87342133D01*
X139638193Y-87003466D01*
X139553526Y-86834133D01*
X139384193Y-86664800D01*
X139130193Y-86580133D01*
X138960860Y-86580133D01*
X138706860Y-86664800D01*
X138622193Y-86749466D01*
X137606193Y-88358133D02*
X137775526Y-88273466D01*
X137860193Y-88188800D01*
X137944860Y-88019466D01*
X137944860Y-87511466D01*
X137860193Y-87342133D01*
X137775526Y-87257466D01*
X137606193Y-87172800D01*
X137352193Y-87172800D01*
X137182860Y-87257466D01*
X137098193Y-87342133D01*
X137013526Y-87511466D01*
X137013526Y-88019466D01*
X137098193Y-88188800D01*
X137182860Y-88273466D01*
X137352193Y-88358133D01*
X137606193Y-88358133D01*
X136251526Y-88358133D02*
X136251526Y-87172800D01*
X136251526Y-87342133D02*
X136166860Y-87257466D01*
X135997526Y-87172800D01*
X135743526Y-87172800D01*
X135574193Y-87257466D01*
X135489526Y-87426800D01*
X135489526Y-88358133D01*
X135489526Y-87426800D02*
X135404860Y-87257466D01*
X135235526Y-87172800D01*
X134981526Y-87172800D01*
X134812193Y-87257466D01*
X134727526Y-87426800D01*
X134727526Y-88358133D01*
X133880860Y-87172800D02*
X133880860Y-88950800D01*
X133880860Y-87257466D02*
X133711526Y-87172800D01*
X133372860Y-87172800D01*
X133203526Y-87257466D01*
X133118860Y-87342133D01*
X133034193Y-87511466D01*
X133034193Y-88019466D01*
X133118860Y-88188800D01*
X133203526Y-88273466D01*
X133372860Y-88358133D01*
X133711526Y-88358133D01*
X133880860Y-88273466D01*
X132018193Y-88358133D02*
X132187526Y-88273466D01*
X132272193Y-88104133D01*
X132272193Y-86580133D01*
X131340860Y-88358133D02*
X131340860Y-87172800D01*
X131340860Y-86580133D02*
X131425526Y-86664800D01*
X131340860Y-86749466D01*
X131256193Y-86664800D01*
X131340860Y-86580133D01*
X131340860Y-86749466D01*
X129732193Y-88358133D02*
X129732193Y-87426800D01*
X129816860Y-87257466D01*
X129986193Y-87172800D01*
X130324860Y-87172800D01*
X130494193Y-87257466D01*
X129732193Y-88273466D02*
X129901526Y-88358133D01*
X130324860Y-88358133D01*
X130494193Y-88273466D01*
X130578860Y-88104133D01*
X130578860Y-87934800D01*
X130494193Y-87765466D01*
X130324860Y-87680800D01*
X129901526Y-87680800D01*
X129732193Y-87596133D01*
X128885526Y-87172800D02*
X128885526Y-88358133D01*
X128885526Y-87342133D02*
X128800860Y-87257466D01*
X128631526Y-87172800D01*
X128377526Y-87172800D01*
X128208193Y-87257466D01*
X128123526Y-87426800D01*
X128123526Y-88358133D01*
X127530860Y-87172800D02*
X126853526Y-87172800D01*
X127276860Y-86580133D02*
X127276860Y-88104133D01*
X127192193Y-88273466D01*
X127022860Y-88358133D01*
X126853526Y-88358133D01*
D24*
X138043634Y-85253081D02*
X138710300Y-84300700D01*
X139186491Y-85253081D02*
X139186491Y-83253081D01*
X138424586Y-83253081D01*
X138234110Y-83348320D01*
X138138872Y-83443558D01*
X138043634Y-83634034D01*
X138043634Y-83919748D01*
X138138872Y-84110224D01*
X138234110Y-84205462D01*
X138424586Y-84300700D01*
X139186491Y-84300700D01*
X136900777Y-85253081D02*
X137091253Y-85157843D01*
X137186491Y-85062605D01*
X137281729Y-84872129D01*
X137281729Y-84300700D01*
X137186491Y-84110224D01*
X137091253Y-84014986D01*
X136900777Y-83919748D01*
X136615062Y-83919748D01*
X136424586Y-84014986D01*
X136329348Y-84110224D01*
X136234110Y-84300700D01*
X136234110Y-84872129D01*
X136329348Y-85062605D01*
X136424586Y-85157843D01*
X136615062Y-85253081D01*
X136900777Y-85253081D01*
X135376967Y-85253081D02*
X135376967Y-83253081D01*
X135376967Y-84205462D02*
X134234110Y-84205462D01*
X134234110Y-85253081D02*
X134234110Y-83253081D01*
X133376967Y-85157843D02*
X133091253Y-85253081D01*
X132615062Y-85253081D01*
X132424586Y-85157843D01*
X132329348Y-85062605D01*
X132234110Y-84872129D01*
X132234110Y-84681653D01*
X132329348Y-84491177D01*
X132424586Y-84395939D01*
X132615062Y-84300700D01*
X132996015Y-84205462D01*
X133186491Y-84110224D01*
X133281729Y-84014986D01*
X133376967Y-83824510D01*
X133376967Y-83634034D01*
X133281729Y-83443558D01*
X133186491Y-83348320D01*
X132996015Y-83253081D01*
X132519824Y-83253081D01*
X132234110Y-83348320D01*
D13*
X130906068Y-100291327D02*
X130906068Y-98591327D01*
X130334640Y-98591327D01*
X130191782Y-98672280D01*
X130120354Y-98753232D01*
X130048925Y-98915137D01*
X130048925Y-99157994D01*
X130120354Y-99319899D01*
X130191782Y-99400851D01*
X130334640Y-99481803D01*
X130906068Y-99481803D01*
X129406068Y-100291327D02*
X129406068Y-98591327D01*
X129406068Y-99238946D02*
X129263211Y-99157994D01*
X128977497Y-99157994D01*
X128834640Y-99238946D01*
X128763211Y-99319899D01*
X128691782Y-99481803D01*
X128691782Y-99967518D01*
X128763211Y-100129422D01*
X128834640Y-100210375D01*
X128977497Y-100291327D01*
X129263211Y-100291327D01*
X129406068Y-100210375D01*
X177793298Y-89763379D02*
X177898060Y-89710998D01*
X177950440Y-89658617D01*
X178002821Y-89553855D01*
X178002821Y-89239569D01*
X177950440Y-89134807D01*
X177898060Y-89082426D01*
X177793298Y-89030045D01*
X177636155Y-89030045D01*
X177531393Y-89082426D01*
X177479012Y-89134807D01*
X177426631Y-89239569D01*
X177426631Y-89553855D01*
X177479012Y-89658617D01*
X177531393Y-89710998D01*
X177636155Y-89763379D01*
X177793298Y-89763379D01*
X176955202Y-89030045D02*
X176955202Y-90130045D01*
X176955202Y-89082426D02*
X176850440Y-89030045D01*
X176640917Y-89030045D01*
X176536155Y-89082426D01*
X176483774Y-89134807D01*
X176431393Y-89239569D01*
X176431393Y-89553855D01*
X176483774Y-89658617D01*
X176536155Y-89710998D01*
X176640917Y-89763379D01*
X176850440Y-89763379D01*
X176955202Y-89710998D01*
X175540917Y-89710998D02*
X175645679Y-89763379D01*
X175855202Y-89763379D01*
X175959964Y-89710998D01*
X176012345Y-89606236D01*
X176012345Y-89187188D01*
X175959964Y-89082426D01*
X175855202Y-89030045D01*
X175645679Y-89030045D01*
X175540917Y-89082426D01*
X175488536Y-89187188D01*
X175488536Y-89291950D01*
X176012345Y-89396712D01*
X175017107Y-89030045D02*
X175017107Y-89763379D01*
X175017107Y-89134807D02*
X174964726Y-89082426D01*
X174859964Y-89030045D01*
X174702821Y-89030045D01*
X174598060Y-89082426D01*
X174545679Y-89187188D01*
X174545679Y-89763379D01*
D28*
X173477797Y-89809580D02*
X173477797Y-88809580D01*
X173049225Y-89809580D02*
X173049225Y-89285771D01*
X173096844Y-89190533D01*
X173192082Y-89142914D01*
X173334940Y-89142914D01*
X173430178Y-89190533D01*
X173477797Y-89238152D01*
X172144463Y-89809580D02*
X172144463Y-89285771D01*
X172192082Y-89190533D01*
X172287320Y-89142914D01*
X172477797Y-89142914D01*
X172573035Y-89190533D01*
X172144463Y-89761961D02*
X172239701Y-89809580D01*
X172477797Y-89809580D01*
X172573035Y-89761961D01*
X172620654Y-89666723D01*
X172620654Y-89571485D01*
X172573035Y-89476247D01*
X172477797Y-89428628D01*
X172239701Y-89428628D01*
X172144463Y-89381009D01*
X171668273Y-89809580D02*
X171668273Y-89142914D01*
X171668273Y-89333390D02*
X171620654Y-89238152D01*
X171573035Y-89190533D01*
X171477797Y-89142914D01*
X171382559Y-89142914D01*
X170620654Y-89809580D02*
X170620654Y-88809580D01*
X170620654Y-89761961D02*
X170715892Y-89809580D01*
X170906368Y-89809580D01*
X171001606Y-89761961D01*
X171049225Y-89714342D01*
X171096844Y-89619104D01*
X171096844Y-89333390D01*
X171049225Y-89238152D01*
X171001606Y-89190533D01*
X170906368Y-89142914D01*
X170715892Y-89142914D01*
X170620654Y-89190533D01*
X170239701Y-89142914D02*
X170049225Y-89809580D01*
X169858749Y-89333390D01*
X169668273Y-89809580D01*
X169477797Y-89142914D01*
X168668273Y-89809580D02*
X168668273Y-89285771D01*
X168715892Y-89190533D01*
X168811130Y-89142914D01*
X169001606Y-89142914D01*
X169096844Y-89190533D01*
X168668273Y-89761961D02*
X168763511Y-89809580D01*
X169001606Y-89809580D01*
X169096844Y-89761961D01*
X169144463Y-89666723D01*
X169144463Y-89571485D01*
X169096844Y-89476247D01*
X169001606Y-89428628D01*
X168763511Y-89428628D01*
X168668273Y-89381009D01*
X168192082Y-89809580D02*
X168192082Y-89142914D01*
X168192082Y-89333390D02*
X168144463Y-89238152D01*
X168096844Y-89190533D01*
X168001606Y-89142914D01*
X167906368Y-89142914D01*
X167192082Y-89761961D02*
X167287320Y-89809580D01*
X167477797Y-89809580D01*
X167573035Y-89761961D01*
X167620654Y-89666723D01*
X167620654Y-89285771D01*
X167573035Y-89190533D01*
X167477797Y-89142914D01*
X167287320Y-89142914D01*
X167192082Y-89190533D01*
X167144463Y-89285771D01*
X167144463Y-89381009D01*
X167620654Y-89476247D01*
M02*
