G04 #@! TF.GenerationSoftware,KiCad,Pcbnew,5.1.0-rc2-unknown-036be7d~80~ubuntu16.04.1*
G04 #@! TF.CreationDate,2023-05-05T15:17:37+03:00*
G04 #@! TF.ProjectId,ESP32-SBC-FabGL_Rev_A,45535033-322d-4534-9243-2d466162474c,A*
G04 #@! TF.SameCoordinates,Original*
G04 #@! TF.FileFunction,Legend,Top*
G04 #@! TF.FilePolarity,Positive*
%FSLAX46Y46*%
G04 Gerber Fmt 4.6, Leading zero omitted, Abs format (unit mm)*
G04 Created by KiCad (PCBNEW 5.1.0-rc2-unknown-036be7d~80~ubuntu16.04.1) date 2023-05-05 15:17:37*
%MOMM*%
%LPD*%
G04 APERTURE LIST*
%ADD10C,0.317500*%
%ADD11C,0.254000*%
%ADD12C,0.762000*%
%ADD13C,0.100000*%
%ADD14C,0.700000*%
%ADD15C,0.400000*%
%ADD16C,0.500000*%
%ADD17C,0.150000*%
%ADD18C,0.127000*%
%ADD19C,0.050000*%
%ADD20C,0.200000*%
%ADD21C,0.120000*%
%ADD22C,0.203200*%
%ADD23C,0.066040*%
%ADD24C,0.250000*%
%ADD25C,0.225000*%
G04 APERTURE END LIST*
D10*
X195985190Y-61939714D02*
X196952809Y-61939714D01*
X196469000Y-62423523D02*
X196469000Y-61455904D01*
D11*
X104303285Y-108790619D02*
X103722714Y-108790619D01*
X104013000Y-108790619D02*
X104013000Y-107774619D01*
X103916238Y-107919761D01*
X103819476Y-108016523D01*
X103722714Y-108064904D01*
X200315285Y-98884619D02*
X199734714Y-98884619D01*
X200025000Y-98884619D02*
X200025000Y-97868619D01*
X199928238Y-98013761D01*
X199831476Y-98110523D01*
X199734714Y-98158904D01*
X188504285Y-99900619D02*
X187923714Y-99900619D01*
X188214000Y-99900619D02*
X188214000Y-98884619D01*
X188117238Y-99029761D01*
X188020476Y-99126523D01*
X187923714Y-99174904D01*
D10*
X139470190Y-59780714D02*
X140437809Y-59780714D01*
X139954000Y-60264523D02*
X139954000Y-59296904D01*
X162015714Y-91990333D02*
X161955238Y-91929857D01*
X161834285Y-91748428D01*
X161773809Y-91627476D01*
X161713333Y-91446047D01*
X161652857Y-91143666D01*
X161652857Y-90901761D01*
X161713333Y-90599380D01*
X161773809Y-90417952D01*
X161834285Y-90297000D01*
X161955238Y-90115571D01*
X162015714Y-90055095D01*
X163225238Y-91385571D02*
X163164761Y-91446047D01*
X162983333Y-91506523D01*
X162862380Y-91506523D01*
X162680952Y-91446047D01*
X162560000Y-91325095D01*
X162499523Y-91204142D01*
X162439047Y-90962238D01*
X162439047Y-90780809D01*
X162499523Y-90538904D01*
X162560000Y-90417952D01*
X162680952Y-90297000D01*
X162862380Y-90236523D01*
X162983333Y-90236523D01*
X163164761Y-90297000D01*
X163225238Y-90357476D01*
X163648571Y-91990333D02*
X163709047Y-91929857D01*
X163830000Y-91748428D01*
X163890476Y-91627476D01*
X163950952Y-91446047D01*
X164011428Y-91143666D01*
X164011428Y-90901761D01*
X163950952Y-90599380D01*
X163890476Y-90417952D01*
X163830000Y-90297000D01*
X163709047Y-90115571D01*
X163648571Y-90055095D01*
X165523333Y-90357476D02*
X165583809Y-90297000D01*
X165704761Y-90236523D01*
X166007142Y-90236523D01*
X166128095Y-90297000D01*
X166188571Y-90357476D01*
X166249047Y-90478428D01*
X166249047Y-90599380D01*
X166188571Y-90780809D01*
X165462857Y-91506523D01*
X166249047Y-91506523D01*
X167035238Y-90236523D02*
X167156190Y-90236523D01*
X167277142Y-90297000D01*
X167337619Y-90357476D01*
X167398095Y-90478428D01*
X167458571Y-90720333D01*
X167458571Y-91022714D01*
X167398095Y-91264619D01*
X167337619Y-91385571D01*
X167277142Y-91446047D01*
X167156190Y-91506523D01*
X167035238Y-91506523D01*
X166914285Y-91446047D01*
X166853809Y-91385571D01*
X166793333Y-91264619D01*
X166732857Y-91022714D01*
X166732857Y-90720333D01*
X166793333Y-90478428D01*
X166853809Y-90357476D01*
X166914285Y-90297000D01*
X167035238Y-90236523D01*
X167942380Y-90357476D02*
X168002857Y-90297000D01*
X168123809Y-90236523D01*
X168426190Y-90236523D01*
X168547142Y-90297000D01*
X168607619Y-90357476D01*
X168668095Y-90478428D01*
X168668095Y-90599380D01*
X168607619Y-90780809D01*
X167881904Y-91506523D01*
X168668095Y-91506523D01*
X169091428Y-90236523D02*
X169877619Y-90236523D01*
X169454285Y-90720333D01*
X169635714Y-90720333D01*
X169756666Y-90780809D01*
X169817142Y-90841285D01*
X169877619Y-90962238D01*
X169877619Y-91264619D01*
X169817142Y-91385571D01*
X169756666Y-91446047D01*
X169635714Y-91506523D01*
X169272857Y-91506523D01*
X169151904Y-91446047D01*
X169091428Y-91385571D01*
X136440333Y-91506523D02*
X136017000Y-90901761D01*
X135714619Y-91506523D02*
X135714619Y-90236523D01*
X136198428Y-90236523D01*
X136319380Y-90297000D01*
X136379857Y-90357476D01*
X136440333Y-90478428D01*
X136440333Y-90659857D01*
X136379857Y-90780809D01*
X136319380Y-90841285D01*
X136198428Y-90901761D01*
X135714619Y-90901761D01*
X137468428Y-91446047D02*
X137347476Y-91506523D01*
X137105571Y-91506523D01*
X136984619Y-91446047D01*
X136924142Y-91325095D01*
X136924142Y-90841285D01*
X136984619Y-90720333D01*
X137105571Y-90659857D01*
X137347476Y-90659857D01*
X137468428Y-90720333D01*
X137528904Y-90841285D01*
X137528904Y-90962238D01*
X136924142Y-91083190D01*
X137952238Y-90659857D02*
X138254619Y-91506523D01*
X138557000Y-90659857D01*
X139040809Y-91385571D02*
X139101285Y-91446047D01*
X139040809Y-91506523D01*
X138980333Y-91446047D01*
X139040809Y-91385571D01*
X139040809Y-91506523D01*
X139585095Y-91143666D02*
X140189857Y-91143666D01*
X139464142Y-91506523D02*
X139887476Y-90236523D01*
X140310809Y-91506523D01*
D12*
X133694714Y-86904285D02*
X134710714Y-86904285D01*
X135146142Y-88500857D02*
X133694714Y-88500857D01*
X133694714Y-85452857D01*
X135146142Y-85452857D01*
X136307285Y-88355714D02*
X136742714Y-88500857D01*
X137468428Y-88500857D01*
X137758714Y-88355714D01*
X137903857Y-88210571D01*
X138049000Y-87920285D01*
X138049000Y-87630000D01*
X137903857Y-87339714D01*
X137758714Y-87194571D01*
X137468428Y-87049428D01*
X136887857Y-86904285D01*
X136597571Y-86759142D01*
X136452428Y-86614000D01*
X136307285Y-86323714D01*
X136307285Y-86033428D01*
X136452428Y-85743142D01*
X136597571Y-85598000D01*
X136887857Y-85452857D01*
X137613571Y-85452857D01*
X138049000Y-85598000D01*
X139355285Y-88500857D02*
X139355285Y-85452857D01*
X140516428Y-85452857D01*
X140806714Y-85598000D01*
X140951857Y-85743142D01*
X141097000Y-86033428D01*
X141097000Y-86468857D01*
X140951857Y-86759142D01*
X140806714Y-86904285D01*
X140516428Y-87049428D01*
X139355285Y-87049428D01*
X142113000Y-85452857D02*
X143999857Y-85452857D01*
X142983857Y-86614000D01*
X143419285Y-86614000D01*
X143709571Y-86759142D01*
X143854714Y-86904285D01*
X143999857Y-87194571D01*
X143999857Y-87920285D01*
X143854714Y-88210571D01*
X143709571Y-88355714D01*
X143419285Y-88500857D01*
X142548428Y-88500857D01*
X142258142Y-88355714D01*
X142113000Y-88210571D01*
X145161000Y-85743142D02*
X145306142Y-85598000D01*
X145596428Y-85452857D01*
X146322142Y-85452857D01*
X146612428Y-85598000D01*
X146757571Y-85743142D01*
X146902714Y-86033428D01*
X146902714Y-86323714D01*
X146757571Y-86759142D01*
X145015857Y-88500857D01*
X146902714Y-88500857D01*
X148209000Y-87339714D02*
X150531285Y-87339714D01*
X151837571Y-88355714D02*
X152273000Y-88500857D01*
X152998714Y-88500857D01*
X153289000Y-88355714D01*
X153434142Y-88210571D01*
X153579285Y-87920285D01*
X153579285Y-87630000D01*
X153434142Y-87339714D01*
X153289000Y-87194571D01*
X152998714Y-87049428D01*
X152418142Y-86904285D01*
X152127857Y-86759142D01*
X151982714Y-86614000D01*
X151837571Y-86323714D01*
X151837571Y-86033428D01*
X151982714Y-85743142D01*
X152127857Y-85598000D01*
X152418142Y-85452857D01*
X153143857Y-85452857D01*
X153579285Y-85598000D01*
X155901571Y-86904285D02*
X156337000Y-87049428D01*
X156482142Y-87194571D01*
X156627285Y-87484857D01*
X156627285Y-87920285D01*
X156482142Y-88210571D01*
X156337000Y-88355714D01*
X156046714Y-88500857D01*
X154885571Y-88500857D01*
X154885571Y-85452857D01*
X155901571Y-85452857D01*
X156191857Y-85598000D01*
X156337000Y-85743142D01*
X156482142Y-86033428D01*
X156482142Y-86323714D01*
X156337000Y-86614000D01*
X156191857Y-86759142D01*
X155901571Y-86904285D01*
X154885571Y-86904285D01*
X159675285Y-88210571D02*
X159530142Y-88355714D01*
X159094714Y-88500857D01*
X158804428Y-88500857D01*
X158369000Y-88355714D01*
X158078714Y-88065428D01*
X157933571Y-87775142D01*
X157788428Y-87194571D01*
X157788428Y-86759142D01*
X157933571Y-86178571D01*
X158078714Y-85888285D01*
X158369000Y-85598000D01*
X158804428Y-85452857D01*
X159094714Y-85452857D01*
X159530142Y-85598000D01*
X159675285Y-85743142D01*
X160981571Y-87339714D02*
X163303857Y-87339714D01*
X165771285Y-86904285D02*
X164755285Y-86904285D01*
X164755285Y-88500857D02*
X164755285Y-85452857D01*
X166206714Y-85452857D01*
X168674142Y-88500857D02*
X168674142Y-86904285D01*
X168529000Y-86614000D01*
X168238714Y-86468857D01*
X167658142Y-86468857D01*
X167367857Y-86614000D01*
X168674142Y-88355714D02*
X168383857Y-88500857D01*
X167658142Y-88500857D01*
X167367857Y-88355714D01*
X167222714Y-88065428D01*
X167222714Y-87775142D01*
X167367857Y-87484857D01*
X167658142Y-87339714D01*
X168383857Y-87339714D01*
X168674142Y-87194571D01*
X170125571Y-88500857D02*
X170125571Y-85452857D01*
X170125571Y-86614000D02*
X170415857Y-86468857D01*
X170996428Y-86468857D01*
X171286714Y-86614000D01*
X171431857Y-86759142D01*
X171577000Y-87049428D01*
X171577000Y-87920285D01*
X171431857Y-88210571D01*
X171286714Y-88355714D01*
X170996428Y-88500857D01*
X170415857Y-88500857D01*
X170125571Y-88355714D01*
X174479857Y-85598000D02*
X174189571Y-85452857D01*
X173754142Y-85452857D01*
X173318714Y-85598000D01*
X173028428Y-85888285D01*
X172883285Y-86178571D01*
X172738142Y-86759142D01*
X172738142Y-87194571D01*
X172883285Y-87775142D01*
X173028428Y-88065428D01*
X173318714Y-88355714D01*
X173754142Y-88500857D01*
X174044428Y-88500857D01*
X174479857Y-88355714D01*
X174625000Y-88210571D01*
X174625000Y-87194571D01*
X174044428Y-87194571D01*
X177382714Y-88500857D02*
X175931285Y-88500857D01*
X175931285Y-85452857D01*
D13*
X123558300Y-93548200D02*
X124929900Y-93548200D01*
X124929900Y-93548200D02*
X124980700Y-93548200D01*
X124980700Y-93548200D02*
X126238000Y-94792800D01*
X122034300Y-93662500D02*
X122135900Y-93662500D01*
X122186700Y-93599000D02*
X122186700Y-93586300D01*
X122186700Y-93586300D02*
X120891300Y-93586300D01*
X120891300Y-93586300D02*
X120865900Y-93586300D01*
X120865900Y-93586300D02*
X120243600Y-94081600D01*
X122186700Y-96608900D02*
X122186700Y-93599000D01*
X118529100Y-93649800D02*
X118452900Y-93649800D01*
X118376700Y-93586300D02*
X119621300Y-93586300D01*
X119621300Y-93586300D02*
X120205500Y-94068900D01*
X118376700Y-96583500D02*
X118376700Y-93599000D01*
X117640100Y-96177100D02*
X117729000Y-96177100D01*
X117297200Y-96177100D02*
X117233700Y-96177100D01*
X117157500Y-96240600D02*
X117767100Y-96240600D01*
X117767100Y-96240600D02*
X117792500Y-96240600D01*
X117792500Y-96240600D02*
X117792500Y-94221300D01*
X117157500Y-94221300D02*
X117157500Y-96240600D01*
X115658900Y-93611700D02*
X115773200Y-93611700D01*
X115531900Y-93535500D02*
X115836700Y-93535500D01*
X115836700Y-93535500D02*
X115836700Y-96570800D01*
X115354100Y-93624400D02*
X115290600Y-93611700D01*
X115239800Y-93535500D02*
X115227100Y-93535500D01*
X115227100Y-93535500D02*
X115214400Y-93535500D01*
X115214400Y-93535500D02*
X115214400Y-96685100D01*
X115519200Y-93535500D02*
X115239800Y-93535500D01*
D14*
X115519200Y-96608900D02*
X115519200Y-93878400D01*
X121856500Y-93891100D02*
X121856500Y-96494600D01*
X113741200Y-93878400D02*
X112737900Y-93878400D01*
X114363500Y-94488000D02*
X114363500Y-96418400D01*
X112141000Y-94526100D02*
X112141000Y-94767400D01*
X112141000Y-96494600D02*
X112725200Y-97066100D01*
X112153700Y-96507300D02*
X112153700Y-95745300D01*
X112712500Y-97066100D02*
X113753900Y-97066100D01*
D15*
X125200659Y-95453200D02*
G75*
G03X125200659Y-95453200I-359659J0D01*
G01*
D14*
X124333000Y-95453200D02*
X123113800Y-95453200D01*
D15*
X128134135Y-93713300D02*
G75*
G03X128134135Y-93713300I-359435J0D01*
G01*
D14*
X127406400Y-94068900D02*
X126542800Y-94962600D01*
D16*
X125984000Y-95059500D02*
X126542800Y-95059500D01*
D14*
X124866400Y-93878400D02*
X125958600Y-94945200D01*
X123644500Y-93878400D02*
X124866400Y-93878400D01*
X123113800Y-94361000D02*
X123596400Y-93853000D01*
X123113800Y-94386400D02*
X123113800Y-96621600D01*
X123113800Y-96621600D02*
X123545600Y-97053400D01*
X123545600Y-97053400D02*
X124866400Y-97053400D01*
X124866400Y-97053400D02*
X126009400Y-95935800D01*
D16*
X126009400Y-95834200D02*
X126542800Y-95834200D01*
D14*
X127355600Y-96748600D02*
X126517400Y-95935800D01*
D15*
X128015266Y-97104200D02*
G75*
G03X128015266Y-97104200I-329466J0D01*
G01*
X122219729Y-97015300D02*
G75*
G03X122219729Y-97015300I-363229J0D01*
G01*
D14*
X120954800Y-93903800D02*
X121843800Y-93903800D01*
D15*
X120614518Y-95732600D02*
G75*
G03X120614518Y-95732600I-370918J0D01*
G01*
D14*
X120319800Y-94411800D02*
X120954800Y-93903800D01*
X120243600Y-95199200D02*
X120243600Y-94488000D01*
X119532400Y-93903800D02*
X120142000Y-94411800D01*
X118694200Y-93903800D02*
X119532400Y-93903800D01*
X118694200Y-96494600D02*
X118694200Y-93903800D01*
D15*
X119066559Y-97002600D02*
G75*
G03X119066559Y-97002600I-359659J0D01*
G01*
X117861218Y-93802200D02*
G75*
G03X117861218Y-93802200I-373518J0D01*
G01*
D14*
X117475000Y-94335600D02*
X117475000Y-95935800D01*
D15*
X117841324Y-97028000D02*
G75*
G03X117841324Y-97028000I-366324J0D01*
G01*
D14*
X116962200Y-97053400D02*
X115976400Y-97053400D01*
X115976400Y-97053400D02*
X115519200Y-96596200D01*
X114350800Y-96456500D02*
X113792000Y-97040700D01*
X113741200Y-93891100D02*
X114376200Y-94500700D01*
X112141000Y-94475300D02*
X112649000Y-93967300D01*
D15*
X112491147Y-95250000D02*
G75*
G03X112491147Y-95250000I-337447J0D01*
G01*
D11*
X143212100Y-48040900D02*
X143212100Y-51673100D01*
X148000000Y-60004300D02*
X143212100Y-59991600D01*
X143212100Y-59991600D02*
X143212100Y-58835900D01*
X148000000Y-48053600D02*
X143199400Y-48053600D01*
X147987300Y-60004300D02*
X152787900Y-59991600D01*
X152787900Y-59991600D02*
X152787900Y-58429500D01*
X148000000Y-48053600D02*
X152800600Y-48053600D01*
X152800600Y-48053600D02*
X152800600Y-49310900D01*
D17*
X149019727Y-57000000D02*
G75*
G03X149019727Y-57000000I-1019727J0D01*
G01*
X149001249Y-51000000D02*
G75*
G03X149001249Y-51000000I-1001249J0D01*
G01*
D11*
X150091600Y-48034000D02*
X150091600Y-45024000D01*
X150091600Y-45024000D02*
X146151600Y-45024000D01*
X146151600Y-45024000D02*
X146151600Y-48034000D01*
X197609600Y-59969780D02*
X197609600Y-66017520D01*
X197609600Y-66017520D02*
X202125720Y-66017520D01*
X202125720Y-66017520D02*
X202125720Y-59982480D01*
X202125720Y-59982480D02*
X197632460Y-59982480D01*
X140300000Y-66100000D02*
X140800000Y-67100000D01*
X139700000Y-66100000D02*
X140300000Y-66100000D01*
X139200000Y-67100000D02*
X139700000Y-66100000D01*
X140800000Y-67100000D02*
X139300000Y-67100000D01*
X146000000Y-67000000D02*
G75*
G03X146000000Y-67000000I-6000000J0D01*
G01*
X141600000Y-67000000D02*
G75*
G03X141600000Y-67000000I-1600000J0D01*
G01*
X142500000Y-63750000D02*
X141500000Y-63750000D01*
X142000000Y-63250000D02*
X142000000Y-64250000D01*
X139583975Y-67377350D02*
G75*
G03X140400000Y-67400000I416025J277350D01*
G01*
X139223420Y-67543760D02*
G75*
G03X140800000Y-67500000I776580J443760D01*
G01*
X179070000Y-72263000D02*
X178054000Y-72263000D01*
X179070000Y-70739000D02*
X178054000Y-70739000D01*
X172085000Y-72898000D02*
X172085000Y-73914000D01*
X170561000Y-72898000D02*
X170561000Y-73914000D01*
X177800000Y-79756000D02*
X177800000Y-78740000D01*
X179324000Y-79756000D02*
X179324000Y-78740000D01*
X176022000Y-79756000D02*
X176022000Y-78740000D01*
X177546000Y-79756000D02*
X177546000Y-78740000D01*
X108585000Y-89217500D02*
X108331000Y-89217500D01*
X108585000Y-89217500D02*
X108839000Y-89217500D01*
X108585000Y-88328500D02*
X108839000Y-88328500D01*
X108585000Y-88328500D02*
X108331000Y-88328500D01*
X111633000Y-89027000D02*
X111633000Y-90043000D01*
X110109000Y-89027000D02*
X110109000Y-90043000D01*
D18*
X201397000Y-57584200D02*
X200381000Y-57584200D01*
X200381000Y-56365000D02*
X201397000Y-56365000D01*
D13*
X199740000Y-57000000D02*
X200260000Y-57000000D01*
X199910000Y-56890000D02*
X199910000Y-57110000D01*
X199910000Y-56890000D02*
X200020000Y-56990000D01*
X199910000Y-57110000D02*
X200010000Y-57010000D01*
X200100000Y-56890000D02*
X200100000Y-57110000D01*
D19*
X200177800Y-57245600D02*
X200047800Y-57355600D01*
X200046200Y-57354600D02*
X200126200Y-57344600D01*
X200046200Y-57354600D02*
X200046200Y-57274600D01*
X199830800Y-57354600D02*
X199830800Y-57274600D01*
X199830800Y-57354600D02*
X199910800Y-57344600D01*
X199970800Y-57224600D02*
X199840800Y-57334600D01*
D11*
X201409700Y-56428500D02*
X201562100Y-56555500D01*
X201409700Y-57520700D02*
X201549400Y-57393700D01*
X201562100Y-56555500D02*
X201562100Y-57381000D01*
X201397000Y-57482600D02*
X201397000Y-56441200D01*
X183435000Y-93385000D02*
X183435000Y-98385000D01*
X186135000Y-94755000D02*
X183435000Y-94755000D01*
X186135000Y-98385000D02*
X186135000Y-93385000D01*
X186135000Y-95195000D02*
X183435000Y-95195000D01*
X189651000Y-75137000D02*
X194651000Y-75137000D01*
X191021000Y-72437000D02*
X191021000Y-75137000D01*
X194651000Y-72437000D02*
X189651000Y-72437000D01*
X191461000Y-72437000D02*
X191461000Y-75137000D01*
X191643000Y-71653400D02*
X191643000Y-70942200D01*
X190804800Y-71653400D02*
X191643000Y-71653400D01*
X190804800Y-68808600D02*
X191643000Y-68808600D01*
X191643000Y-69519800D02*
X191643000Y-68808600D01*
X133985001Y-107035600D02*
X133985001Y-107746800D01*
X134823201Y-107035600D02*
X133985001Y-107035600D01*
X134823201Y-109880400D02*
X133985001Y-109880400D01*
X133985001Y-109169200D02*
X133985001Y-109880400D01*
X166092000Y-74876000D02*
X166092000Y-74476000D01*
X163092000Y-74876000D02*
X163092000Y-74476000D01*
D20*
X163842000Y-74826000D02*
X163492000Y-74826000D01*
X165342000Y-74826000D02*
X165692000Y-74826000D01*
X164342000Y-74776000D02*
G75*
G02X164842000Y-74776000I250000J0D01*
G01*
X163842000Y-74776000D02*
G75*
G02X164342000Y-74776000I250000J0D01*
G01*
X164842000Y-74776000D02*
G75*
G02X165342000Y-74776000I250000J0D01*
G01*
D11*
X179602000Y-79048000D02*
X179602000Y-79448000D01*
X182602000Y-79048000D02*
X182602000Y-79448000D01*
D20*
X181852000Y-79098000D02*
X182202000Y-79098000D01*
X180352000Y-79098000D02*
X180002000Y-79098000D01*
X181352000Y-79148000D02*
G75*
G02X180852000Y-79148000I-250000J0D01*
G01*
X181852000Y-79148000D02*
G75*
G02X181352000Y-79148000I-250000J0D01*
G01*
X180852000Y-79148000D02*
G75*
G02X180352000Y-79148000I-250000J0D01*
G01*
D11*
X169672000Y-95199200D02*
X169672000Y-96037400D01*
X171450000Y-95199200D02*
X171450000Y-96037400D01*
X178048760Y-115630160D02*
X175648460Y-114929120D01*
X166651780Y-112630420D02*
X166651780Y-114929120D01*
X181348220Y-112630420D02*
X181348220Y-115630160D01*
X175648460Y-114929120D02*
X166651780Y-114929120D01*
X181348220Y-115630160D02*
X178048760Y-115630160D01*
X181348220Y-102632980D02*
X181348220Y-109828800D01*
X176849880Y-101131840D02*
X179748020Y-101131840D01*
X166651780Y-102632980D02*
X166651780Y-109828800D01*
X171997700Y-53498220D02*
X171997700Y-58999860D01*
X171997700Y-46000140D02*
X171997700Y-49500260D01*
X158002300Y-46000140D02*
X171997700Y-46000140D01*
X158002300Y-49500260D02*
X158002300Y-46000140D01*
X158002300Y-58999860D02*
X158002300Y-53498220D01*
X171997700Y-58999860D02*
X158002300Y-58999860D01*
X194997700Y-53498220D02*
X194997700Y-58999860D01*
X194997700Y-46000140D02*
X194997700Y-49500260D01*
X181002300Y-46000140D02*
X194997700Y-46000140D01*
X181002300Y-49500260D02*
X181002300Y-46000140D01*
X181002300Y-58999860D02*
X181002300Y-53498220D01*
X194997700Y-58999860D02*
X181002300Y-58999860D01*
D18*
X201397000Y-107584200D02*
X200381000Y-107584200D01*
X200381000Y-106365000D02*
X201397000Y-106365000D01*
D13*
X199740000Y-107000000D02*
X200260000Y-107000000D01*
X199910000Y-106890000D02*
X199910000Y-107110000D01*
X199910000Y-106890000D02*
X200020000Y-106990000D01*
X199910000Y-107110000D02*
X200010000Y-107010000D01*
X200100000Y-106890000D02*
X200100000Y-107110000D01*
D19*
X200177800Y-107245600D02*
X200047800Y-107355600D01*
X200046200Y-107354600D02*
X200126200Y-107344600D01*
X200046200Y-107354600D02*
X200046200Y-107274600D01*
X199830800Y-107354600D02*
X199830800Y-107274600D01*
X199830800Y-107354600D02*
X199910800Y-107344600D01*
X199970800Y-107224600D02*
X199840800Y-107334600D01*
D11*
X201409700Y-106428500D02*
X201562100Y-106555500D01*
X201409700Y-107520700D02*
X201549400Y-107393700D01*
X201562100Y-106555500D02*
X201562100Y-107381000D01*
X201397000Y-107482600D02*
X201397000Y-106441200D01*
X200025000Y-104965500D02*
X200279000Y-104965500D01*
X200025000Y-104965500D02*
X199771000Y-104965500D01*
X200025000Y-105854500D02*
X199771000Y-105854500D01*
X200025000Y-105854500D02*
X200279000Y-105854500D01*
X187642500Y-70231000D02*
X187642500Y-69977000D01*
X187642500Y-70231000D02*
X187642500Y-70485000D01*
X188531500Y-70231000D02*
X188531500Y-70485000D01*
X188531500Y-70231000D02*
X188531500Y-69977000D01*
X200025000Y-58102500D02*
X200279000Y-58102500D01*
X200025000Y-58102500D02*
X199771000Y-58102500D01*
X200025000Y-58991500D02*
X199771000Y-58991500D01*
X200025000Y-58991500D02*
X200279000Y-58991500D01*
X193675000Y-67500500D02*
X193421000Y-67500500D01*
X193675000Y-67500500D02*
X193929000Y-67500500D01*
X193675000Y-66611500D02*
X193929000Y-66611500D01*
X193675000Y-66611500D02*
X193421000Y-66611500D01*
X193230500Y-93726000D02*
X193230500Y-93980000D01*
X193230500Y-93726000D02*
X193230500Y-93472000D01*
X192341500Y-93726000D02*
X192341500Y-93472000D01*
X192341500Y-93726000D02*
X192341500Y-93980000D01*
X175704500Y-75819000D02*
X175704500Y-75565000D01*
X175704500Y-75819000D02*
X175704500Y-76073000D01*
X176593500Y-75819000D02*
X176593500Y-76073000D01*
X176593500Y-75819000D02*
X176593500Y-75565000D01*
X176593500Y-73533000D02*
X176593500Y-73787000D01*
X176593500Y-73533000D02*
X176593500Y-73279000D01*
X175704500Y-73533000D02*
X175704500Y-73279000D01*
X175704500Y-73533000D02*
X175704500Y-73787000D01*
X139319000Y-98615500D02*
X139065000Y-98615500D01*
X139319000Y-98615500D02*
X139573000Y-98615500D01*
X139319000Y-97726500D02*
X139573000Y-97726500D01*
X139319000Y-97726500D02*
X139065000Y-97726500D01*
X139319000Y-99123500D02*
X139573000Y-99123500D01*
X139319000Y-99123500D02*
X139065000Y-99123500D01*
X139319000Y-100012500D02*
X139065000Y-100012500D01*
X139319000Y-100012500D02*
X139573000Y-100012500D01*
X152400000Y-92519500D02*
X152654000Y-92519500D01*
X152400000Y-92519500D02*
X152146000Y-92519500D01*
X152400000Y-93408500D02*
X152146000Y-93408500D01*
X152400000Y-93408500D02*
X152654000Y-93408500D01*
X152400000Y-94805500D02*
X152146000Y-94805500D01*
X152400000Y-94805500D02*
X152654000Y-94805500D01*
X152400000Y-93916500D02*
X152654000Y-93916500D01*
X152400000Y-93916500D02*
X152146000Y-93916500D01*
X165925500Y-62611000D02*
X165925500Y-62865000D01*
X165925500Y-62611000D02*
X165925500Y-62357000D01*
X165036500Y-62611000D02*
X165036500Y-62357000D01*
X165036500Y-62611000D02*
X165036500Y-62865000D01*
X164147500Y-62611000D02*
X164147500Y-62865000D01*
X164147500Y-62611000D02*
X164147500Y-62357000D01*
X163258500Y-62611000D02*
X163258500Y-62357000D01*
X163258500Y-62611000D02*
X163258500Y-62865000D01*
X166560500Y-62611000D02*
X166560500Y-62357000D01*
X166560500Y-62611000D02*
X166560500Y-62865000D01*
X167449500Y-62611000D02*
X167449500Y-62865000D01*
X167449500Y-62611000D02*
X167449500Y-62357000D01*
X161734500Y-62611000D02*
X161734500Y-62357000D01*
X161734500Y-62611000D02*
X161734500Y-62865000D01*
X162623500Y-62611000D02*
X162623500Y-62865000D01*
X162623500Y-62611000D02*
X162623500Y-62357000D01*
X116713000Y-59690000D02*
X116713000Y-60706000D01*
X115189000Y-59690000D02*
X115189000Y-60706000D01*
X118491000Y-59690000D02*
X118491000Y-60706000D01*
X116967000Y-59690000D02*
X116967000Y-60706000D01*
X121793000Y-59690000D02*
X121793000Y-60706000D01*
X120269000Y-59690000D02*
X120269000Y-60706000D01*
X123571000Y-59690000D02*
X123571000Y-60706000D01*
X122047000Y-59690000D02*
X122047000Y-60706000D01*
X141033500Y-108458000D02*
X141033500Y-108712000D01*
X141033500Y-108458000D02*
X141033500Y-108204000D01*
X140144500Y-108458000D02*
X140144500Y-108204000D01*
X140144500Y-108458000D02*
X140144500Y-108712000D01*
X138747500Y-108458000D02*
X138747500Y-108204000D01*
X138747500Y-108458000D02*
X138747500Y-108712000D01*
X139636500Y-108458000D02*
X139636500Y-108712000D01*
X139636500Y-108458000D02*
X139636500Y-108204000D01*
X123380500Y-104521000D02*
X123380500Y-104267000D01*
X123380500Y-104521000D02*
X123380500Y-104775000D01*
X124269500Y-104521000D02*
X124269500Y-104775000D01*
X124269500Y-104521000D02*
X124269500Y-104267000D01*
X184594500Y-62611000D02*
X184594500Y-62865000D01*
X184594500Y-62611000D02*
X184594500Y-62357000D01*
X183705500Y-62611000D02*
X183705500Y-62357000D01*
X183705500Y-62611000D02*
X183705500Y-62865000D01*
X182816500Y-62611000D02*
X182816500Y-62865000D01*
X182816500Y-62611000D02*
X182816500Y-62357000D01*
X181927500Y-62611000D02*
X181927500Y-62357000D01*
X181927500Y-62611000D02*
X181927500Y-62865000D01*
X185229500Y-62611000D02*
X185229500Y-62357000D01*
X185229500Y-62611000D02*
X185229500Y-62865000D01*
X186118500Y-62611000D02*
X186118500Y-62865000D01*
X186118500Y-62611000D02*
X186118500Y-62357000D01*
X180403500Y-62611000D02*
X180403500Y-62357000D01*
X180403500Y-62611000D02*
X180403500Y-62865000D01*
X181292500Y-62611000D02*
X181292500Y-62865000D01*
X181292500Y-62611000D02*
X181292500Y-62357000D01*
X124904500Y-104521000D02*
X124904500Y-104267000D01*
X124904500Y-104521000D02*
X124904500Y-104775000D01*
X125793500Y-104521000D02*
X125793500Y-104775000D01*
X125793500Y-104521000D02*
X125793500Y-104267000D01*
X151384000Y-73723499D02*
X151638000Y-73723499D01*
X151384000Y-73723499D02*
X151130000Y-73723499D01*
X151384000Y-74612499D02*
X151130000Y-74612499D01*
X151384000Y-74612499D02*
X151638000Y-74612499D01*
X151130000Y-63817500D02*
X150876000Y-63817500D01*
X151130000Y-63817500D02*
X151384000Y-63817500D01*
X151130000Y-62928500D02*
X151384000Y-62928500D01*
X151130000Y-62928500D02*
X150876000Y-62928500D01*
X132143500Y-59563000D02*
X132143500Y-59309000D01*
X132143500Y-59563000D02*
X132143500Y-59817000D01*
X133032500Y-59563000D02*
X133032500Y-59817000D01*
X133032500Y-59563000D02*
X133032500Y-59309000D01*
X148717000Y-64452500D02*
X148971000Y-64452500D01*
X148717000Y-64452500D02*
X148463000Y-64452500D01*
X148717000Y-65341500D02*
X148463000Y-65341500D01*
X148717000Y-65341500D02*
X148971000Y-65341500D01*
X169252900Y-96596200D02*
X169252900Y-93649800D01*
X169240200Y-96596200D02*
X169062400Y-96596200D01*
X169265600Y-93649800D02*
X169049700Y-93649800D01*
X165442900Y-96596200D02*
X165252400Y-96596200D01*
X165252400Y-96596200D02*
X165252400Y-93649800D01*
X165252400Y-93649800D02*
X165468300Y-93649800D01*
X124015500Y-59563000D02*
X124015500Y-59817000D01*
X124015500Y-59563000D02*
X124015500Y-59309000D01*
X124904500Y-59563000D02*
X124904500Y-59309000D01*
X124904500Y-59563000D02*
X124904500Y-59817000D01*
X134429500Y-59563000D02*
X134429500Y-59817000D01*
X134429500Y-59563000D02*
X134429500Y-59309000D01*
X135318500Y-59563000D02*
X135318500Y-59309000D01*
X135318500Y-59563000D02*
X135318500Y-59817000D01*
X185530000Y-109950000D02*
X185530000Y-111250000D01*
X194470000Y-109950000D02*
X194470000Y-111250000D01*
X185530000Y-115818000D02*
X194470000Y-115818000D01*
X194470000Y-115818000D02*
X194470000Y-113950000D01*
X185530000Y-113950000D02*
X185530000Y-115818000D01*
D18*
X191750000Y-109500000D02*
X191750000Y-108750000D01*
X192400000Y-108750000D02*
X192400000Y-109500000D01*
X191750000Y-108750000D02*
X191850000Y-109000000D01*
X191750000Y-108750000D02*
X191650000Y-109000000D01*
X192400000Y-108750000D02*
X192300000Y-109000000D01*
X192400000Y-108750000D02*
X192500000Y-109000000D01*
X193350000Y-108750000D02*
X193250000Y-109000000D01*
X193350000Y-109500000D02*
X193350000Y-108750000D01*
X193350000Y-108750000D02*
X193450000Y-109000000D01*
X191250000Y-108750000D02*
X191150000Y-109000000D01*
X191250000Y-111250000D02*
X191250000Y-108750000D01*
X191250000Y-108750000D02*
X191350000Y-109000000D01*
X190750000Y-108750000D02*
X190650000Y-109000000D01*
X190750000Y-109500000D02*
X190750000Y-108750000D01*
X190750000Y-108750000D02*
X190850000Y-109000000D01*
X190250000Y-108750000D02*
X190150000Y-109000000D01*
X190250000Y-108750000D02*
X190350000Y-109000000D01*
X190250000Y-111250000D02*
X190250000Y-108750000D01*
X189750000Y-108750000D02*
X189850000Y-109000000D01*
X189750000Y-108750000D02*
X189650000Y-109000000D01*
X189750000Y-109500000D02*
X189750000Y-108750000D01*
X188750000Y-108750000D02*
X188650000Y-109000000D01*
X189250000Y-108750000D02*
X189350000Y-109000000D01*
X188750000Y-108750000D02*
X188850000Y-109000000D01*
X189250000Y-108750000D02*
X189150000Y-109000000D01*
X189250000Y-111250000D02*
X189250000Y-108750000D01*
X188750000Y-109500000D02*
X188750000Y-108750000D01*
X188250000Y-108750000D02*
X188150000Y-109000000D01*
X188250000Y-111250000D02*
X188250000Y-108750000D01*
X187600000Y-109500000D02*
X187600000Y-108750000D01*
X188250000Y-108750000D02*
X188350000Y-109000000D01*
X187600000Y-108750000D02*
X187500000Y-109000000D01*
X187600000Y-108750000D02*
X187700000Y-109000000D01*
X186650000Y-109500000D02*
X186650000Y-108750000D01*
X186650000Y-108750000D02*
X186550000Y-109000000D01*
X186650000Y-108750000D02*
X186750000Y-109000000D01*
D11*
X139319000Y-101409500D02*
X139065000Y-101409500D01*
X139319000Y-101409500D02*
X139573000Y-101409500D01*
X139319000Y-100520500D02*
X139573000Y-100520500D01*
X139319000Y-100520500D02*
X139065000Y-100520500D01*
X191643000Y-64135000D02*
X191643000Y-65151000D01*
X190119000Y-64135000D02*
X190119000Y-65151000D01*
X187579000Y-91376500D02*
X187833000Y-91376500D01*
X187579000Y-91376500D02*
X187325000Y-91376500D01*
X187579000Y-92265500D02*
X187325000Y-92265500D01*
X187579000Y-92265500D02*
X187833000Y-92265500D01*
X179070000Y-70612000D02*
X178054000Y-70612000D01*
X179070000Y-69088000D02*
X178054000Y-69088000D01*
X173736000Y-79883000D02*
X173736000Y-80899000D01*
X172212000Y-79883000D02*
X172212000Y-80899000D01*
X171958000Y-79883000D02*
X171958000Y-80899000D01*
X170434000Y-79883000D02*
X170434000Y-80899000D01*
X152400000Y-95313500D02*
X152654000Y-95313500D01*
X152400000Y-95313500D02*
X152146000Y-95313500D01*
X152400000Y-96202500D02*
X152146000Y-96202500D01*
X152400000Y-96202500D02*
X152654000Y-96202500D01*
X174815500Y-62611000D02*
X174815500Y-62865000D01*
X174815500Y-62611000D02*
X174815500Y-62357000D01*
X173926500Y-62611000D02*
X173926500Y-62357000D01*
X173926500Y-62611000D02*
X173926500Y-62865000D01*
X108839000Y-91186000D02*
X107823000Y-91186000D01*
X108839000Y-89662000D02*
X107823000Y-89662000D01*
X138303000Y-107949999D02*
X138303000Y-108965999D01*
X136779000Y-107949999D02*
X136779000Y-108965999D01*
X186880500Y-62611000D02*
X186880500Y-62357000D01*
X186880500Y-62611000D02*
X186880500Y-62865000D01*
X187769500Y-62611000D02*
X187769500Y-62865000D01*
X187769500Y-62611000D02*
X187769500Y-62357000D01*
X150749000Y-60833000D02*
X151765000Y-60833000D01*
X150749000Y-62357000D02*
X151765000Y-62357000D01*
X151130000Y-65341500D02*
X150876000Y-65341500D01*
X151130000Y-65341500D02*
X151384000Y-65341500D01*
X151130000Y-64452500D02*
X151384000Y-64452500D01*
X151130000Y-64452500D02*
X150876000Y-64452500D01*
X171704000Y-96139000D02*
X171704000Y-95123000D01*
X173736000Y-96139000D02*
X173736000Y-95123000D01*
X168997000Y-78152000D02*
X163997000Y-78152000D01*
X167627000Y-80852000D02*
X167627000Y-78152000D01*
X163997000Y-80852000D02*
X168997000Y-80852000D01*
X167187000Y-80852000D02*
X167187000Y-78152000D01*
X192151000Y-87350600D02*
X192938400Y-87350600D01*
X192938400Y-87350600D02*
X192938400Y-88011000D01*
X192938400Y-89535000D02*
X192938400Y-90195400D01*
X192938400Y-90195400D02*
X192151000Y-90195400D01*
X191617600Y-88569800D02*
X191617600Y-88976200D01*
X147967700Y-73512600D02*
X147967700Y-71036100D01*
X147015200Y-72928400D02*
X147929600Y-71556800D01*
X147929600Y-71556800D02*
X148920200Y-72928400D01*
X147015200Y-71556800D02*
X148920200Y-71556800D01*
X147015200Y-72928400D02*
X148920200Y-72928400D01*
X147015200Y-71379000D02*
X148920200Y-71379000D01*
X148920200Y-71556800D02*
X148920200Y-71379000D01*
X147015200Y-71556800D02*
X147015200Y-71379000D01*
X148717000Y-72776000D02*
X147193000Y-72776000D01*
X147320000Y-72649000D02*
X148590000Y-72649000D01*
X148463000Y-72522000D02*
X147320000Y-72522000D01*
X147574000Y-72395000D02*
X148463000Y-72395000D01*
X147574000Y-72268000D02*
X148336000Y-72268000D01*
X147701000Y-72141000D02*
X148336000Y-72141000D01*
X147828000Y-72014000D02*
X148209000Y-72014000D01*
X151099600Y-68059300D02*
X148623100Y-68059300D01*
X150515400Y-69011800D02*
X149143800Y-68097400D01*
X149143800Y-68097400D02*
X150515400Y-67106800D01*
X149143800Y-69011800D02*
X149143800Y-67106800D01*
X150515400Y-69011800D02*
X150515400Y-67106800D01*
X148966000Y-69011800D02*
X148966000Y-67106800D01*
X149143800Y-67106800D02*
X148966000Y-67106800D01*
X149143800Y-69011800D02*
X148966000Y-69011800D01*
X150363000Y-67310000D02*
X150363000Y-68834000D01*
X150236000Y-68707000D02*
X150236000Y-67437000D01*
X150109000Y-67564000D02*
X150109000Y-68707000D01*
X149982000Y-68453000D02*
X149982000Y-67564000D01*
X149855000Y-68453000D02*
X149855000Y-67691000D01*
X149728000Y-68326000D02*
X149728000Y-67691000D01*
X149601000Y-68199000D02*
X149601000Y-67818000D01*
X150495000Y-70078600D02*
X150495000Y-70789800D01*
X151333200Y-70078600D02*
X150495000Y-70078600D01*
X151333200Y-72923400D02*
X150495000Y-72923400D01*
X150495000Y-72212200D02*
X150495000Y-72923400D01*
X171577000Y-77025500D02*
X171831000Y-77025500D01*
X171577000Y-77025500D02*
X171323000Y-77025500D01*
X171577000Y-77914500D02*
X171323000Y-77914500D01*
X171577000Y-77914500D02*
X171831000Y-77914500D01*
X189801500Y-80772000D02*
X189801500Y-81026000D01*
X189801500Y-80772000D02*
X189801500Y-80518000D01*
X188912500Y-80772000D02*
X188912500Y-80518000D01*
X188912500Y-80772000D02*
X188912500Y-81026000D01*
X171577000Y-76390500D02*
X171323000Y-76390500D01*
X171577000Y-76390500D02*
X171831000Y-76390500D01*
X171577000Y-75501500D02*
X171831000Y-75501500D01*
X171577000Y-75501500D02*
X171323000Y-75501500D01*
X148300000Y-101725000D02*
X143800000Y-101725000D01*
X148300000Y-95125000D02*
X143800000Y-95125000D01*
X145150000Y-95925000D02*
G75*
G03X145150000Y-95925000I-400000J0D01*
G01*
X193624200Y-63246000D02*
X194754500Y-63246000D01*
X193624200Y-66052700D02*
X194754500Y-66052700D01*
D21*
X189015000Y-101966000D02*
X189015000Y-103266000D01*
X190715000Y-101966000D02*
X190715000Y-103266000D01*
D11*
X191365000Y-97385000D02*
X188365000Y-97385000D01*
X189455512Y-96635000D02*
G75*
G03X189455512Y-96635000I-390512J0D01*
G01*
X191365000Y-97385000D02*
X191365000Y-94385000D01*
X191365000Y-94385000D02*
X188365000Y-94385000D01*
X188365000Y-94385000D02*
X188365000Y-97385000D01*
X179959001Y-74117200D02*
X179959001Y-75247500D01*
X177152301Y-74117200D02*
X177152301Y-75247500D01*
D17*
X166873493Y-75813920D02*
G75*
G03X166873493Y-75813920I-158053J0D01*
G01*
D22*
X169951400Y-73865740D02*
X169951400Y-75486260D01*
X167106600Y-75486260D02*
X167106600Y-73865740D01*
X168102280Y-75486260D02*
X168008300Y-75486260D01*
X169049700Y-75486260D02*
X168955720Y-75486260D01*
X168102280Y-73868280D02*
X168008300Y-73868280D01*
X169049700Y-73868280D02*
X168955720Y-73868280D01*
D17*
X167762493Y-74924920D02*
G75*
G03X167762493Y-74924920I-158053J0D01*
G01*
D11*
X100700000Y-84000000D02*
X100700000Y-66000000D01*
X107000000Y-84000000D02*
X107000000Y-66000000D01*
X100700000Y-66000000D02*
X107320000Y-66000000D01*
X100700000Y-84000000D02*
X107320000Y-84000000D01*
X132100000Y-84000000D02*
X132100000Y-66000000D01*
X132100000Y-84000000D02*
X131800000Y-84000000D01*
X132100000Y-66000000D02*
X131800000Y-66000000D01*
X126200000Y-82150000D02*
X126200000Y-81500000D01*
X126200000Y-67850000D02*
X126200000Y-68450000D01*
D16*
X119907300Y-110101600D02*
X119907300Y-109898400D01*
X122434600Y-110101600D02*
X122434600Y-109898400D01*
X125000000Y-110101600D02*
X125000000Y-109898400D01*
X127540000Y-110101600D02*
X127540000Y-109898400D01*
X130080000Y-110101600D02*
X130080000Y-109898400D01*
X130080000Y-113060700D02*
X130080000Y-112565400D01*
D17*
X131741160Y-120350500D02*
X132063740Y-120614660D01*
X131027420Y-120668000D02*
X131134100Y-120472420D01*
X131423660Y-119405620D02*
X131484620Y-119108440D01*
X132459980Y-120761980D02*
X131484620Y-119215120D01*
X131484620Y-119215120D02*
X130669280Y-120761980D01*
X130669280Y-120761980D02*
X132330440Y-120769600D01*
X132330440Y-120769600D02*
X131499860Y-119428480D01*
X131499860Y-119428480D02*
X130829300Y-120685780D01*
X130829300Y-120685780D02*
X132200900Y-120670540D01*
X132200900Y-120670540D02*
X131499860Y-119641840D01*
X131499860Y-119641840D02*
X130958840Y-120617200D01*
X130958840Y-120617200D02*
X131987540Y-120563860D01*
X131987540Y-120563860D02*
X131461760Y-119817100D01*
X131461760Y-119817100D02*
X131172200Y-120556240D01*
X131172200Y-120556240D02*
X131758940Y-120472420D01*
X131758940Y-120472420D02*
X131469380Y-120030460D01*
X131469380Y-120030460D02*
X131324600Y-120480040D01*
X131324600Y-120480040D02*
X131606540Y-120434320D01*
X131606540Y-120434320D02*
X131431280Y-120327640D01*
X131431280Y-120327640D02*
X131537960Y-120259060D01*
X131537960Y-120259060D02*
X131530340Y-120251440D01*
X132439660Y-120840720D02*
X132632700Y-120845800D01*
X132475220Y-120845800D02*
X130478780Y-120845800D01*
X130478780Y-120845800D02*
X131484620Y-118956040D01*
X131484620Y-118956040D02*
X132612380Y-120769600D01*
X132612380Y-120769600D02*
X132658100Y-120845800D01*
D16*
X119920000Y-113086100D02*
X119920000Y-112590800D01*
X122460000Y-113086100D02*
X122460000Y-112590800D01*
X125000000Y-113086100D02*
X125000000Y-112590800D01*
X127540000Y-113086100D02*
X127540000Y-112590800D01*
D11*
X135248900Y-113225800D02*
X135248900Y-121938000D01*
X114751100Y-113225800D02*
X135248900Y-113225800D01*
X114751100Y-121938000D02*
X114751100Y-113225800D01*
X135248900Y-121938000D02*
X114751100Y-121938000D01*
X120402600Y-114927600D02*
X120402600Y-121938000D01*
X129597400Y-114927600D02*
X120402600Y-114927600D01*
X129597400Y-121938000D02*
X129597400Y-114927600D01*
X124675000Y-121100000D02*
X124675000Y-114950000D01*
X125325000Y-121100000D02*
X124675000Y-121100000D01*
X125325000Y-114950000D02*
X125325000Y-121100000D01*
X129064000Y-121099800D02*
X129064000Y-114927600D01*
X129597400Y-121099800D02*
X129064000Y-121099800D01*
X120936000Y-121099800D02*
X120936000Y-114927600D01*
X120402600Y-121099800D02*
X120936000Y-121099800D01*
X125127000Y-121099800D02*
X125127000Y-115054600D01*
X124898400Y-120947400D02*
X124898400Y-115105400D01*
X120758200Y-121023600D02*
X120758200Y-115054600D01*
X120605800Y-121023600D02*
X120529600Y-115003800D01*
X129394200Y-120972800D02*
X129368800Y-115029200D01*
X129241800Y-120998200D02*
X129241800Y-115029200D01*
X113093500Y-88900000D02*
X113093500Y-89154000D01*
X113093500Y-88900000D02*
X113093500Y-88646000D01*
X112204500Y-88900000D02*
X112204500Y-88646000D01*
X112204500Y-88900000D02*
X112204500Y-89154000D01*
X128270000Y-59690000D02*
X128270000Y-60706000D01*
X126746000Y-59690000D02*
X126746000Y-60706000D01*
X130048000Y-59690000D02*
X130048000Y-60706000D01*
X128524000Y-59690000D02*
X128524000Y-60706000D01*
X175577500Y-95631000D02*
X175577500Y-95377000D01*
X175577500Y-95631000D02*
X175577500Y-95885000D01*
X176466500Y-95631000D02*
X176466500Y-95885000D01*
X176466500Y-95631000D02*
X176466500Y-95377000D01*
X174180500Y-95631000D02*
X174180500Y-95377000D01*
X174180500Y-95631000D02*
X174180500Y-95885000D01*
X175069500Y-95631000D02*
X175069500Y-95885000D01*
X175069500Y-95631000D02*
X175069500Y-95377000D01*
X125412500Y-59563000D02*
X125412500Y-59817000D01*
X125412500Y-59563000D02*
X125412500Y-59309000D01*
X126301500Y-59563000D02*
X126301500Y-59309000D01*
X126301500Y-59563000D02*
X126301500Y-59817000D01*
X130746500Y-59563000D02*
X130746500Y-59817000D01*
X130746500Y-59563000D02*
X130746500Y-59309000D01*
X131635500Y-59563000D02*
X131635500Y-59309000D01*
X131635500Y-59563000D02*
X131635500Y-59817000D01*
X118935500Y-59563000D02*
X118935500Y-59817000D01*
X118935500Y-59563000D02*
X118935500Y-59309000D01*
X119824500Y-59563000D02*
X119824500Y-59309000D01*
X119824500Y-59563000D02*
X119824500Y-59817000D01*
X114900000Y-43650000D02*
X109500000Y-43650000D01*
X109500000Y-43650000D02*
X109500000Y-48050000D01*
X114900000Y-48050000D02*
X114900000Y-43650000D01*
X134100000Y-43650000D02*
X134100000Y-48050000D01*
X139500000Y-43650000D02*
X134100000Y-43650000D01*
X139500000Y-48050000D02*
X139500000Y-43650000D01*
X140000000Y-56850000D02*
X140000000Y-48050000D01*
X109000000Y-48050000D02*
X140000000Y-48050000D01*
X117150000Y-42150000D02*
X131850000Y-42150000D01*
X132500000Y-48050000D02*
X132500000Y-42800000D01*
X116500000Y-48050000D02*
X116500000Y-42800000D01*
X140000000Y-56850000D02*
X109000000Y-56850000D01*
X109000000Y-56850000D02*
X109000000Y-48050000D01*
D23*
X120100000Y-51722840D02*
X119698680Y-51722840D01*
X122386000Y-51722840D02*
X121984680Y-51722840D01*
X129241460Y-51722840D02*
X128840140Y-51722840D01*
X126955460Y-51722840D02*
X126554140Y-51722840D01*
X124669460Y-51722840D02*
X124268140Y-51722840D01*
D11*
X135500000Y-43650000D02*
X135500000Y-48050000D01*
X138100000Y-48050000D02*
X138100000Y-43650000D01*
X113500000Y-48050000D02*
X113500000Y-43650000D01*
X110900000Y-43650000D02*
X110900000Y-48050000D01*
X131799999Y-42148218D02*
G75*
G02X132499999Y-42899999I1J-701782D01*
G01*
X116498218Y-42850001D02*
G75*
G02X117249999Y-42150001I701782J1D01*
G01*
X133200001Y-48051782D02*
G75*
G02X132500001Y-47300001I-1J701782D01*
G01*
X116501782Y-47349999D02*
G75*
G02X115750001Y-48049999I-701782J-1D01*
G01*
X135953500Y-99949000D02*
X135953500Y-99695000D01*
X135953500Y-99949000D02*
X135953500Y-100203000D01*
X135064500Y-99949000D02*
X135064500Y-100203000D01*
X135064500Y-99949000D02*
X135064500Y-99695000D01*
X152270000Y-107460000D02*
X149730000Y-107460000D01*
X149730000Y-112286000D02*
X149984000Y-112540000D01*
X149730000Y-109746000D02*
X149730000Y-107968000D01*
X149984000Y-110000000D02*
X149730000Y-109746000D01*
X149730000Y-110254000D02*
X149984000Y-110000000D01*
X149730000Y-112286000D02*
X149730000Y-110254000D01*
X149730000Y-107968000D02*
X149730000Y-107460000D01*
X149730000Y-107714000D02*
X149984000Y-107460000D01*
X152016000Y-107460000D02*
X152270000Y-107714000D01*
X152016000Y-112540000D02*
X149984000Y-112540000D01*
X152270000Y-112286000D02*
X152016000Y-112540000D01*
X152270000Y-110254000D02*
X152270000Y-112286000D01*
X152016000Y-110000000D02*
X152270000Y-110254000D01*
X152270000Y-109746000D02*
X152016000Y-110000000D01*
X152270000Y-107714000D02*
X152270000Y-109746000D01*
X152270000Y-107460000D02*
X152270000Y-107714000D01*
X132892800Y-98031300D02*
X131762500Y-98031300D01*
X132892800Y-100838000D02*
X131762500Y-100838000D01*
X192786000Y-80695800D02*
X192786000Y-79984600D01*
X191947800Y-79984600D02*
X192786000Y-79984600D01*
X191947800Y-82829400D02*
X192786000Y-82829400D01*
X192786000Y-82829400D02*
X192786000Y-82118200D01*
X192786000Y-86385400D02*
X192786000Y-85674200D01*
X191947800Y-86385400D02*
X192786000Y-86385400D01*
X191947800Y-83540600D02*
X192786000Y-83540600D01*
X192786000Y-84251800D02*
X192786000Y-83540600D01*
X193484500Y-86868000D02*
X193484500Y-87122000D01*
X193484500Y-86868000D02*
X193484500Y-86614000D01*
X194373500Y-86868000D02*
X194373500Y-86614000D01*
X194373500Y-86868000D02*
X194373500Y-87122000D01*
X188912500Y-82931000D02*
X188912500Y-82677000D01*
X188912500Y-82931000D02*
X188912500Y-83185000D01*
X189801500Y-82931000D02*
X189801500Y-83185000D01*
X189801500Y-82931000D02*
X189801500Y-82677000D01*
X102730000Y-107160000D02*
X105270000Y-107160000D01*
X105016000Y-102080000D02*
X105270000Y-101826000D01*
X105270000Y-102334000D02*
X105016000Y-102080000D01*
X105270000Y-104874000D02*
X105270000Y-106652000D01*
X105016000Y-104620000D02*
X105270000Y-104874000D01*
X105270000Y-104366000D02*
X105016000Y-104620000D01*
X105270000Y-102334000D02*
X105270000Y-104366000D01*
X105270000Y-106652000D02*
X105270000Y-107160000D01*
X105270000Y-106906000D02*
X105016000Y-107160000D01*
X102984000Y-107160000D02*
X102730000Y-106906000D01*
X105270000Y-99794000D02*
X105270000Y-101826000D01*
X105016000Y-99540000D02*
X105270000Y-99794000D01*
X105270000Y-96746000D02*
X105016000Y-97000000D01*
X105270000Y-97254000D02*
X105270000Y-99286000D01*
X105016000Y-97000000D02*
X105270000Y-97254000D01*
X102730000Y-97254000D02*
X102984000Y-97000000D01*
X102730000Y-99286000D02*
X102730000Y-97254000D01*
X102984000Y-99540000D02*
X102730000Y-99286000D01*
X102730000Y-99794000D02*
X102984000Y-99540000D01*
X102730000Y-101826000D02*
X102730000Y-99794000D01*
X102984000Y-102080000D02*
X102730000Y-101826000D01*
X102730000Y-102334000D02*
X102984000Y-102080000D01*
X102730000Y-104366000D02*
X102730000Y-102334000D01*
X102984000Y-104620000D02*
X102730000Y-104366000D01*
X102730000Y-104874000D02*
X102984000Y-104620000D01*
X102730000Y-106906000D02*
X102730000Y-104874000D01*
X102730000Y-107160000D02*
X102730000Y-106906000D01*
X102984000Y-97000000D02*
X102730000Y-96746000D01*
X102730000Y-96746000D02*
X102730000Y-94714000D01*
X102730000Y-92174000D02*
X102984000Y-91920000D01*
X105270000Y-94714000D02*
X105270000Y-96746000D01*
X105270000Y-99286000D02*
X105016000Y-99540000D01*
X105016000Y-91920000D02*
X105270000Y-92174000D01*
X102730000Y-94206000D02*
X102730000Y-92174000D01*
X102984000Y-94460000D02*
X102730000Y-94206000D01*
X105270000Y-92174000D02*
X105270000Y-94206000D01*
X105016000Y-94460000D02*
X105270000Y-94714000D01*
X105270000Y-94206000D02*
X105016000Y-94460000D01*
X102730000Y-94714000D02*
X102984000Y-94460000D01*
X102730000Y-92174000D02*
X102984000Y-91920000D01*
X105016000Y-91920000D02*
X105270000Y-92174000D01*
X105270000Y-92174000D02*
X105270000Y-94206000D01*
X102730000Y-94206000D02*
X102730000Y-92174000D01*
X102984000Y-94460000D02*
X102730000Y-94206000D01*
X105270000Y-94206000D02*
X105016000Y-94460000D01*
X105270000Y-89126000D02*
X105016000Y-89380000D01*
X102984000Y-89380000D02*
X102730000Y-89126000D01*
X102730000Y-89126000D02*
X102730000Y-87094000D01*
X105270000Y-87094000D02*
X105270000Y-89126000D01*
X105016000Y-86840000D02*
X105270000Y-87094000D01*
X102730000Y-87094000D02*
X102984000Y-86840000D01*
X102730000Y-89634000D02*
X102984000Y-89380000D01*
X105270000Y-89126000D02*
X105016000Y-89380000D01*
X105016000Y-89380000D02*
X105270000Y-89634000D01*
X105270000Y-87094000D02*
X105270000Y-89126000D01*
X102984000Y-89380000D02*
X102730000Y-89126000D01*
X102730000Y-89126000D02*
X102730000Y-87094000D01*
X102984000Y-86840000D02*
X105016000Y-86840000D01*
X105016000Y-86840000D02*
X105270000Y-87094000D01*
X105270000Y-89634000D02*
X105270000Y-91666000D01*
X102730000Y-87094000D02*
X102984000Y-86840000D01*
X102730000Y-91666000D02*
X102730000Y-89634000D01*
X102984000Y-91920000D02*
X102730000Y-91666000D01*
X105270000Y-91666000D02*
X105016000Y-91920000D01*
X198730000Y-97240000D02*
X201270000Y-97240000D01*
X201016000Y-92160000D02*
X201270000Y-91906000D01*
X201270000Y-92414000D02*
X201016000Y-92160000D01*
X201270000Y-94954000D02*
X201270000Y-96732000D01*
X201016000Y-94700000D02*
X201270000Y-94954000D01*
X201270000Y-94446000D02*
X201016000Y-94700000D01*
X201270000Y-92414000D02*
X201270000Y-94446000D01*
X201270000Y-96732000D02*
X201270000Y-97240000D01*
X201270000Y-96986000D02*
X201016000Y-97240000D01*
X198984000Y-97240000D02*
X198730000Y-96986000D01*
X201270000Y-89874000D02*
X201270000Y-91906000D01*
X201016000Y-89620000D02*
X201270000Y-89874000D01*
X201270000Y-86826000D02*
X201016000Y-87080000D01*
X201270000Y-87334000D02*
X201270000Y-89366000D01*
X201016000Y-87080000D02*
X201270000Y-87334000D01*
X198730000Y-87334000D02*
X198984000Y-87080000D01*
X198730000Y-89366000D02*
X198730000Y-87334000D01*
X198984000Y-89620000D02*
X198730000Y-89366000D01*
X198730000Y-89874000D02*
X198984000Y-89620000D01*
X198730000Y-91906000D02*
X198730000Y-89874000D01*
X198984000Y-92160000D02*
X198730000Y-91906000D01*
X198730000Y-92414000D02*
X198984000Y-92160000D01*
X198730000Y-94446000D02*
X198730000Y-92414000D01*
X198984000Y-94700000D02*
X198730000Y-94446000D01*
X198730000Y-94954000D02*
X198984000Y-94700000D01*
X198730000Y-96986000D02*
X198730000Y-94954000D01*
X198730000Y-97240000D02*
X198730000Y-96986000D01*
X198984000Y-87080000D02*
X198730000Y-86826000D01*
X198730000Y-86826000D02*
X198730000Y-84794000D01*
X198730000Y-82254000D02*
X198984000Y-82000000D01*
X201270000Y-84794000D02*
X201270000Y-86826000D01*
X201270000Y-89366000D02*
X201016000Y-89620000D01*
X201016000Y-82000000D02*
X201270000Y-82254000D01*
X198730000Y-84286000D02*
X198730000Y-82254000D01*
X198984000Y-84540000D02*
X198730000Y-84286000D01*
X201270000Y-82254000D02*
X201270000Y-84286000D01*
X201016000Y-84540000D02*
X201270000Y-84794000D01*
X201270000Y-84286000D02*
X201016000Y-84540000D01*
X198730000Y-84794000D02*
X198984000Y-84540000D01*
X198730000Y-82254000D02*
X198984000Y-82000000D01*
X201016000Y-82000000D02*
X201270000Y-82254000D01*
X201270000Y-82254000D02*
X201270000Y-84286000D01*
X198730000Y-84286000D02*
X198730000Y-82254000D01*
X198984000Y-84540000D02*
X198730000Y-84286000D01*
X201270000Y-84286000D02*
X201016000Y-84540000D01*
X201270000Y-79206000D02*
X201016000Y-79460000D01*
X198984000Y-79460000D02*
X198730000Y-79206000D01*
X198730000Y-79206000D02*
X198730000Y-77174000D01*
X201270000Y-77174000D02*
X201270000Y-79206000D01*
X201016000Y-76920000D02*
X201270000Y-77174000D01*
X198730000Y-77174000D02*
X198984000Y-76920000D01*
X198730000Y-79714000D02*
X198984000Y-79460000D01*
X201270000Y-79206000D02*
X201016000Y-79460000D01*
X201016000Y-79460000D02*
X201270000Y-79714000D01*
X201270000Y-77174000D02*
X201270000Y-79206000D01*
X198984000Y-79460000D02*
X198730000Y-79206000D01*
X198730000Y-79206000D02*
X198730000Y-77174000D01*
X201016000Y-76920000D02*
X201270000Y-77174000D01*
X201270000Y-79714000D02*
X201270000Y-81746000D01*
X198730000Y-77174000D02*
X198984000Y-76920000D01*
X198730000Y-81746000D02*
X198730000Y-79714000D01*
X198984000Y-82000000D02*
X198730000Y-81746000D01*
X201270000Y-81746000D02*
X201016000Y-82000000D01*
X201270000Y-76666000D02*
X201016000Y-76920000D01*
X198984000Y-76920000D02*
X198730000Y-76666000D01*
X198730000Y-76666000D02*
X198730000Y-74634000D01*
X198730000Y-72094000D02*
X198984000Y-71840000D01*
X201270000Y-74634000D02*
X201270000Y-76666000D01*
X201016000Y-71840000D02*
X201270000Y-72094000D01*
X198730000Y-74126000D02*
X198730000Y-72094000D01*
X198984000Y-74380000D02*
X198730000Y-74126000D01*
X201270000Y-72094000D02*
X201270000Y-74126000D01*
X201016000Y-74380000D02*
X201270000Y-74634000D01*
X201270000Y-74126000D02*
X201016000Y-74380000D01*
X198730000Y-74634000D02*
X198984000Y-74380000D01*
X198730000Y-72094000D02*
X198984000Y-71840000D01*
X201016000Y-71840000D02*
X201270000Y-72094000D01*
X201270000Y-72094000D02*
X201270000Y-74126000D01*
X198730000Y-74126000D02*
X198730000Y-72094000D01*
X198984000Y-74380000D02*
X198730000Y-74126000D01*
X201270000Y-74126000D02*
X201016000Y-74380000D01*
X201270000Y-69046000D02*
X201016000Y-69300000D01*
X198984000Y-69300000D02*
X198730000Y-69046000D01*
X198730000Y-69046000D02*
X198730000Y-67014000D01*
X201270000Y-67014000D02*
X201270000Y-69046000D01*
X201016000Y-66760000D02*
X201270000Y-67014000D01*
X198730000Y-67014000D02*
X198984000Y-66760000D01*
X198730000Y-69554000D02*
X198984000Y-69300000D01*
X201270000Y-69046000D02*
X201016000Y-69300000D01*
X201016000Y-69300000D02*
X201270000Y-69554000D01*
X201270000Y-67014000D02*
X201270000Y-69046000D01*
X198984000Y-69300000D02*
X198730000Y-69046000D01*
X198730000Y-69046000D02*
X198730000Y-67014000D01*
X198984000Y-66760000D02*
X201016000Y-66760000D01*
X201016000Y-66760000D02*
X201270000Y-67014000D01*
X201270000Y-69554000D02*
X201270000Y-71586000D01*
X198730000Y-67014000D02*
X198984000Y-66760000D01*
X198730000Y-71586000D02*
X198730000Y-69554000D01*
X198984000Y-71840000D02*
X198730000Y-71586000D01*
X201270000Y-71586000D02*
X201016000Y-71840000D01*
D12*
X109230000Y-108875600D02*
X109230000Y-114769600D01*
X111770000Y-108875600D02*
X111770000Y-114769600D01*
D11*
X113040000Y-106121600D02*
X113040000Y-108621600D01*
X107960000Y-106121600D02*
X113040000Y-106121600D01*
X113040000Y-108621600D02*
X107960000Y-108621600D01*
X110500000Y-108621600D02*
X110500000Y-106121600D01*
X107960000Y-108621600D02*
X107960000Y-106121600D01*
X184340500Y-102997000D02*
X184340500Y-102743000D01*
X184340500Y-102997000D02*
X184340500Y-103251000D01*
X183451500Y-102997000D02*
X183451500Y-103251000D01*
X183451500Y-102997000D02*
X183451500Y-102743000D01*
X185102500Y-102997000D02*
X185102500Y-102743000D01*
X185102500Y-102997000D02*
X185102500Y-103251000D01*
X185991500Y-102997000D02*
X185991500Y-103251000D01*
X185991500Y-102997000D02*
X185991500Y-102743000D01*
X156167666Y-57023000D02*
X156167666Y-56418238D01*
X156530523Y-57143952D02*
X155260523Y-56720619D01*
X156530523Y-56297285D01*
X155260523Y-55873952D02*
X156288619Y-55873952D01*
X156409571Y-55813476D01*
X156470047Y-55753000D01*
X156530523Y-55632047D01*
X156530523Y-55390142D01*
X156470047Y-55269190D01*
X156409571Y-55208714D01*
X156288619Y-55148238D01*
X155260523Y-55148238D01*
X156530523Y-54543476D02*
X155260523Y-54543476D01*
X155260523Y-54241095D01*
X155321000Y-54059666D01*
X155441952Y-53938714D01*
X155562904Y-53878238D01*
X155804809Y-53817761D01*
X155986238Y-53817761D01*
X156228142Y-53878238D01*
X156349095Y-53938714D01*
X156470047Y-54059666D01*
X156530523Y-54241095D01*
X156530523Y-54543476D01*
X156530523Y-53273476D02*
X155260523Y-53273476D01*
X155260523Y-52426809D02*
X155260523Y-52184904D01*
X155321000Y-52063952D01*
X155441952Y-51943000D01*
X155683857Y-51882523D01*
X156107190Y-51882523D01*
X156349095Y-51943000D01*
X156470047Y-52063952D01*
X156530523Y-52184904D01*
X156530523Y-52426809D01*
X156470047Y-52547761D01*
X156349095Y-52668714D01*
X156107190Y-52729190D01*
X155683857Y-52729190D01*
X155441952Y-52668714D01*
X155321000Y-52547761D01*
X155260523Y-52426809D01*
X156530523Y-50673000D02*
X156530523Y-51398714D01*
X156530523Y-51035857D02*
X155260523Y-51035857D01*
X155441952Y-51156809D01*
X155562904Y-51277761D01*
X155623380Y-51398714D01*
X203004728Y-64335714D02*
X203057109Y-64178571D01*
X203109490Y-64126190D01*
X203214252Y-64073809D01*
X203371395Y-64073809D01*
X203476157Y-64126190D01*
X203528538Y-64178571D01*
X203580919Y-64283333D01*
X203580919Y-64702380D01*
X202480919Y-64702380D01*
X202480919Y-64335714D01*
X202533300Y-64230952D01*
X202585680Y-64178571D01*
X202690442Y-64126190D01*
X202795204Y-64126190D01*
X202899966Y-64178571D01*
X202952347Y-64230952D01*
X203004728Y-64335714D01*
X203004728Y-64702380D01*
X203266633Y-63654761D02*
X203266633Y-63130952D01*
X203580919Y-63759523D02*
X202480919Y-63392857D01*
X203580919Y-63026190D01*
X202480919Y-62816666D02*
X202480919Y-62188095D01*
X203580919Y-62502380D02*
X202480919Y-62502380D01*
X203580919Y-61245238D02*
X203580919Y-61873809D01*
X203580919Y-61559523D02*
X202480919Y-61559523D01*
X202638061Y-61664285D01*
X202742823Y-61769047D01*
X202795204Y-61873809D01*
X199176559Y-61702734D02*
X199176559Y-62331305D01*
X199176559Y-62017020D02*
X198076559Y-62017020D01*
X198233701Y-62121781D01*
X198338463Y-62226543D01*
X198390844Y-62331305D01*
X198232120Y-64335365D02*
X198179740Y-64282984D01*
X198127359Y-64178222D01*
X198127359Y-63916318D01*
X198179740Y-63811556D01*
X198232120Y-63759175D01*
X198336882Y-63706794D01*
X198441644Y-63706794D01*
X198598787Y-63759175D01*
X199227359Y-64387746D01*
X199227359Y-63706794D01*
X138215952Y-74204285D02*
X138397380Y-74264761D01*
X138457857Y-74325238D01*
X138518333Y-74446190D01*
X138518333Y-74627619D01*
X138457857Y-74748571D01*
X138397380Y-74809047D01*
X138276428Y-74869523D01*
X137792619Y-74869523D01*
X137792619Y-73599523D01*
X138215952Y-73599523D01*
X138336904Y-73660000D01*
X138397380Y-73720476D01*
X138457857Y-73841428D01*
X138457857Y-73962380D01*
X138397380Y-74083333D01*
X138336904Y-74143809D01*
X138215952Y-74204285D01*
X137792619Y-74204285D01*
X139062619Y-73599523D02*
X139062619Y-74627619D01*
X139123095Y-74748571D01*
X139183571Y-74809047D01*
X139304523Y-74869523D01*
X139546428Y-74869523D01*
X139667380Y-74809047D01*
X139727857Y-74748571D01*
X139788333Y-74627619D01*
X139788333Y-73599523D01*
X140272142Y-73599523D02*
X141118809Y-73599523D01*
X140272142Y-74869523D01*
X141118809Y-74869523D01*
X142267857Y-74869523D02*
X141542142Y-74869523D01*
X141905000Y-74869523D02*
X141905000Y-73599523D01*
X141784047Y-73780952D01*
X141663095Y-73901904D01*
X141542142Y-73962380D01*
X181821666Y-71863857D02*
X181773285Y-71912238D01*
X181628142Y-71960619D01*
X181531380Y-71960619D01*
X181386238Y-71912238D01*
X181289476Y-71815476D01*
X181241095Y-71718714D01*
X181192714Y-71525190D01*
X181192714Y-71380047D01*
X181241095Y-71186523D01*
X181289476Y-71089761D01*
X181386238Y-70993000D01*
X181531380Y-70944619D01*
X181628142Y-70944619D01*
X181773285Y-70993000D01*
X181821666Y-71041380D01*
X182692523Y-70944619D02*
X182499000Y-70944619D01*
X182402238Y-70993000D01*
X182353857Y-71041380D01*
X182257095Y-71186523D01*
X182208714Y-71380047D01*
X182208714Y-71767095D01*
X182257095Y-71863857D01*
X182305476Y-71912238D01*
X182402238Y-71960619D01*
X182595761Y-71960619D01*
X182692523Y-71912238D01*
X182740904Y-71863857D01*
X182789285Y-71767095D01*
X182789285Y-71525190D01*
X182740904Y-71428428D01*
X182692523Y-71380047D01*
X182595761Y-71331666D01*
X182402238Y-71331666D01*
X182305476Y-71380047D01*
X182257095Y-71428428D01*
X182208714Y-71525190D01*
X171685857Y-71035333D02*
X171734238Y-71083714D01*
X171782619Y-71228857D01*
X171782619Y-71325619D01*
X171734238Y-71470761D01*
X171637476Y-71567523D01*
X171540714Y-71615904D01*
X171347190Y-71664285D01*
X171202047Y-71664285D01*
X171008523Y-71615904D01*
X170911761Y-71567523D01*
X170815000Y-71470761D01*
X170766619Y-71325619D01*
X170766619Y-71228857D01*
X170815000Y-71083714D01*
X170863380Y-71035333D01*
X171782619Y-70551523D02*
X171782619Y-70358000D01*
X171734238Y-70261238D01*
X171685857Y-70212857D01*
X171540714Y-70116095D01*
X171347190Y-70067714D01*
X170960142Y-70067714D01*
X170863380Y-70116095D01*
X170815000Y-70164476D01*
X170766619Y-70261238D01*
X170766619Y-70454761D01*
X170815000Y-70551523D01*
X170863380Y-70599904D01*
X170960142Y-70648285D01*
X171202047Y-70648285D01*
X171298809Y-70599904D01*
X171347190Y-70551523D01*
X171395571Y-70454761D01*
X171395571Y-70261238D01*
X171347190Y-70164476D01*
X171298809Y-70116095D01*
X171202047Y-70067714D01*
X179051857Y-83203142D02*
X179100238Y-83251523D01*
X179148619Y-83396666D01*
X179148619Y-83493428D01*
X179100238Y-83638571D01*
X179003476Y-83735333D01*
X178906714Y-83783714D01*
X178713190Y-83832095D01*
X178568047Y-83832095D01*
X178374523Y-83783714D01*
X178277761Y-83735333D01*
X178181000Y-83638571D01*
X178132619Y-83493428D01*
X178132619Y-83396666D01*
X178181000Y-83251523D01*
X178229380Y-83203142D01*
X179148619Y-82235523D02*
X179148619Y-82816095D01*
X179148619Y-82525809D02*
X178132619Y-82525809D01*
X178277761Y-82622571D01*
X178374523Y-82719333D01*
X178422904Y-82816095D01*
X178132619Y-81606571D02*
X178132619Y-81509809D01*
X178181000Y-81413047D01*
X178229380Y-81364666D01*
X178326142Y-81316285D01*
X178519666Y-81267904D01*
X178761571Y-81267904D01*
X178955095Y-81316285D01*
X179051857Y-81364666D01*
X179100238Y-81413047D01*
X179148619Y-81509809D01*
X179148619Y-81606571D01*
X179100238Y-81703333D01*
X179051857Y-81751714D01*
X178955095Y-81800095D01*
X178761571Y-81848476D01*
X178519666Y-81848476D01*
X178326142Y-81800095D01*
X178229380Y-81751714D01*
X178181000Y-81703333D01*
X178132619Y-81606571D01*
X177400857Y-83203142D02*
X177449238Y-83251523D01*
X177497619Y-83396666D01*
X177497619Y-83493428D01*
X177449238Y-83638571D01*
X177352476Y-83735333D01*
X177255714Y-83783714D01*
X177062190Y-83832095D01*
X176917047Y-83832095D01*
X176723523Y-83783714D01*
X176626761Y-83735333D01*
X176530000Y-83638571D01*
X176481619Y-83493428D01*
X176481619Y-83396666D01*
X176530000Y-83251523D01*
X176578380Y-83203142D01*
X177497619Y-82235523D02*
X177497619Y-82816095D01*
X177497619Y-82525809D02*
X176481619Y-82525809D01*
X176626761Y-82622571D01*
X176723523Y-82719333D01*
X176771904Y-82816095D01*
X177497619Y-81267904D02*
X177497619Y-81848476D01*
X177497619Y-81558190D02*
X176481619Y-81558190D01*
X176626761Y-81654952D01*
X176723523Y-81751714D01*
X176771904Y-81848476D01*
X106280857Y-87865857D02*
X106232476Y-87914238D01*
X106087333Y-87962619D01*
X105990571Y-87962619D01*
X105845428Y-87914238D01*
X105748666Y-87817476D01*
X105700285Y-87720714D01*
X105651904Y-87527190D01*
X105651904Y-87382047D01*
X105700285Y-87188523D01*
X105748666Y-87091761D01*
X105845428Y-86995000D01*
X105990571Y-86946619D01*
X106087333Y-86946619D01*
X106232476Y-86995000D01*
X106280857Y-87043380D01*
X107248476Y-87962619D02*
X106667904Y-87962619D01*
X106958190Y-87962619D02*
X106958190Y-86946619D01*
X106861428Y-87091761D01*
X106764666Y-87188523D01*
X106667904Y-87236904D01*
X108167714Y-86946619D02*
X107683904Y-86946619D01*
X107635523Y-87430428D01*
X107683904Y-87382047D01*
X107780666Y-87333666D01*
X108022571Y-87333666D01*
X108119333Y-87382047D01*
X108167714Y-87430428D01*
X108216095Y-87527190D01*
X108216095Y-87769095D01*
X108167714Y-87865857D01*
X108119333Y-87914238D01*
X108022571Y-87962619D01*
X107780666Y-87962619D01*
X107683904Y-87914238D01*
X107635523Y-87865857D01*
X111868857Y-87140142D02*
X111917238Y-87188523D01*
X111965619Y-87333666D01*
X111965619Y-87430428D01*
X111917238Y-87575571D01*
X111820476Y-87672333D01*
X111723714Y-87720714D01*
X111530190Y-87769095D01*
X111385047Y-87769095D01*
X111191523Y-87720714D01*
X111094761Y-87672333D01*
X110998000Y-87575571D01*
X110949619Y-87430428D01*
X110949619Y-87333666D01*
X110998000Y-87188523D01*
X111046380Y-87140142D01*
X111965619Y-86172523D02*
X111965619Y-86753095D01*
X111965619Y-86462809D02*
X110949619Y-86462809D01*
X111094761Y-86559571D01*
X111191523Y-86656333D01*
X111239904Y-86753095D01*
X110949619Y-85301666D02*
X110949619Y-85495190D01*
X110998000Y-85591952D01*
X111046380Y-85640333D01*
X111191523Y-85737095D01*
X111385047Y-85785476D01*
X111772095Y-85785476D01*
X111868857Y-85737095D01*
X111917238Y-85688714D01*
X111965619Y-85591952D01*
X111965619Y-85398428D01*
X111917238Y-85301666D01*
X111868857Y-85253285D01*
X111772095Y-85204904D01*
X111530190Y-85204904D01*
X111433428Y-85253285D01*
X111385047Y-85301666D01*
X111336666Y-85398428D01*
X111336666Y-85591952D01*
X111385047Y-85688714D01*
X111433428Y-85737095D01*
X111530190Y-85785476D01*
X161743571Y-97874666D02*
X161804047Y-97935142D01*
X161864523Y-98116571D01*
X161864523Y-98237523D01*
X161804047Y-98418952D01*
X161683095Y-98539904D01*
X161562142Y-98600380D01*
X161320238Y-98660857D01*
X161138809Y-98660857D01*
X160896904Y-98600380D01*
X160775952Y-98539904D01*
X160655000Y-98418952D01*
X160594523Y-98237523D01*
X160594523Y-98116571D01*
X160655000Y-97935142D01*
X160715476Y-97874666D01*
X161864523Y-97330380D02*
X160594523Y-97330380D01*
X160594523Y-97028000D01*
X160655000Y-96846571D01*
X160775952Y-96725619D01*
X160896904Y-96665142D01*
X161138809Y-96604666D01*
X161320238Y-96604666D01*
X161562142Y-96665142D01*
X161683095Y-96725619D01*
X161804047Y-96846571D01*
X161864523Y-97028000D01*
X161864523Y-97330380D01*
X161017857Y-96120857D02*
X161017857Y-95213714D01*
X160473571Y-95758000D02*
X162106428Y-96120857D01*
X161562142Y-95334666D02*
X161562142Y-96241809D01*
X162106428Y-95697523D02*
X160473571Y-95334666D01*
X161864523Y-94125142D02*
X161864523Y-94850857D01*
X161864523Y-94488000D02*
X160594523Y-94488000D01*
X160775952Y-94608952D01*
X160896904Y-94729904D01*
X160957380Y-94850857D01*
X196081952Y-55607857D02*
X196033571Y-55656238D01*
X195888428Y-55704619D01*
X195791666Y-55704619D01*
X195646523Y-55656238D01*
X195549761Y-55559476D01*
X195501380Y-55462714D01*
X195453000Y-55269190D01*
X195453000Y-55124047D01*
X195501380Y-54930523D01*
X195549761Y-54833761D01*
X195646523Y-54737000D01*
X195791666Y-54688619D01*
X195888428Y-54688619D01*
X196033571Y-54737000D01*
X196081952Y-54785380D01*
X196517380Y-55704619D02*
X196517380Y-54688619D01*
X196517380Y-55172428D02*
X197097952Y-55172428D01*
X197097952Y-55704619D02*
X197097952Y-54688619D01*
X197533380Y-55414333D02*
X198017190Y-55414333D01*
X197436619Y-55704619D02*
X197775285Y-54688619D01*
X198113952Y-55704619D01*
X199033190Y-55704619D02*
X198694523Y-55220809D01*
X198452619Y-55704619D02*
X198452619Y-54688619D01*
X198839666Y-54688619D01*
X198936428Y-54737000D01*
X198984809Y-54785380D01*
X199033190Y-54882142D01*
X199033190Y-55027285D01*
X198984809Y-55124047D01*
X198936428Y-55172428D01*
X198839666Y-55220809D01*
X198452619Y-55220809D01*
X200000809Y-54737000D02*
X199904047Y-54688619D01*
X199758904Y-54688619D01*
X199613761Y-54737000D01*
X199517000Y-54833761D01*
X199468619Y-54930523D01*
X199420238Y-55124047D01*
X199420238Y-55269190D01*
X199468619Y-55462714D01*
X199517000Y-55559476D01*
X199613761Y-55656238D01*
X199758904Y-55704619D01*
X199855666Y-55704619D01*
X200000809Y-55656238D01*
X200049190Y-55607857D01*
X200049190Y-55269190D01*
X199855666Y-55269190D01*
X200484619Y-55704619D02*
X200484619Y-54688619D01*
X200968428Y-55704619D02*
X200968428Y-54688619D01*
X201549000Y-55704619D01*
X201549000Y-54688619D01*
X202565000Y-54737000D02*
X202468238Y-54688619D01*
X202323095Y-54688619D01*
X202177952Y-54737000D01*
X202081190Y-54833761D01*
X202032809Y-54930523D01*
X201984428Y-55124047D01*
X201984428Y-55269190D01*
X202032809Y-55462714D01*
X202081190Y-55559476D01*
X202177952Y-55656238D01*
X202323095Y-55704619D01*
X202419857Y-55704619D01*
X202565000Y-55656238D01*
X202613380Y-55607857D01*
X202613380Y-55269190D01*
X202419857Y-55269190D01*
X203581000Y-55704619D02*
X203000428Y-55704619D01*
X203290714Y-55704619D02*
X203290714Y-54688619D01*
X203193952Y-54833761D01*
X203097190Y-54930523D01*
X203000428Y-54978904D01*
X182831619Y-96634904D02*
X181815619Y-96634904D01*
X181815619Y-96393000D01*
X181864000Y-96247857D01*
X181960761Y-96151095D01*
X182057523Y-96102714D01*
X182251047Y-96054333D01*
X182396190Y-96054333D01*
X182589714Y-96102714D01*
X182686476Y-96151095D01*
X182783238Y-96247857D01*
X182831619Y-96393000D01*
X182831619Y-96634904D01*
X182831619Y-95086714D02*
X182831619Y-95667285D01*
X182831619Y-95377000D02*
X181815619Y-95377000D01*
X181960761Y-95473761D01*
X182057523Y-95570523D01*
X182105904Y-95667285D01*
X186321095Y-74246619D02*
X186321095Y-73230619D01*
X186563000Y-73230619D01*
X186708142Y-73279000D01*
X186804904Y-73375761D01*
X186853285Y-73472523D01*
X186901666Y-73666047D01*
X186901666Y-73811190D01*
X186853285Y-74004714D01*
X186804904Y-74101476D01*
X186708142Y-74198238D01*
X186563000Y-74246619D01*
X186321095Y-74246619D01*
X187288714Y-73327380D02*
X187337095Y-73279000D01*
X187433857Y-73230619D01*
X187675761Y-73230619D01*
X187772523Y-73279000D01*
X187820904Y-73327380D01*
X187869285Y-73424142D01*
X187869285Y-73520904D01*
X187820904Y-73666047D01*
X187240333Y-74246619D01*
X187869285Y-74246619D01*
X194267666Y-70158428D02*
X193929000Y-70158428D01*
X193929000Y-70690619D02*
X193929000Y-69674619D01*
X194412809Y-69674619D01*
X194799857Y-70158428D02*
X195138523Y-70158428D01*
X195283666Y-70690619D02*
X194799857Y-70690619D01*
X194799857Y-69674619D01*
X195283666Y-69674619D01*
X195573952Y-69674619D02*
X196154523Y-69674619D01*
X195864238Y-70690619D02*
X195864238Y-69674619D01*
X197025380Y-70690619D02*
X196444809Y-70690619D01*
X196735095Y-70690619D02*
X196735095Y-69674619D01*
X196638333Y-69819761D01*
X196541571Y-69916523D01*
X196444809Y-69964904D01*
X133180666Y-111052428D02*
X132842000Y-111052428D01*
X132842000Y-111584619D02*
X132842000Y-110568619D01*
X133325809Y-110568619D01*
X133712857Y-111052428D02*
X134051523Y-111052428D01*
X134196666Y-111584619D02*
X133712857Y-111584619D01*
X133712857Y-110568619D01*
X134196666Y-110568619D01*
X134486952Y-110568619D02*
X135067523Y-110568619D01*
X134777238Y-111584619D02*
X134777238Y-110568619D01*
X135357809Y-110665380D02*
X135406190Y-110617000D01*
X135502952Y-110568619D01*
X135744857Y-110568619D01*
X135841619Y-110617000D01*
X135890000Y-110665380D01*
X135938380Y-110762142D01*
X135938380Y-110858904D01*
X135890000Y-111004047D01*
X135309428Y-111584619D01*
X135938380Y-111584619D01*
X162384619Y-74845333D02*
X162384619Y-75329142D01*
X161368619Y-75329142D01*
X162384619Y-73974476D02*
X162384619Y-74555047D01*
X162384619Y-74264761D02*
X161368619Y-74264761D01*
X161513761Y-74361523D01*
X161610523Y-74458285D01*
X161658904Y-74555047D01*
D24*
X184348380Y-78017666D02*
X184348380Y-78493857D01*
X183348380Y-78493857D01*
X183443619Y-77731952D02*
X183396000Y-77684333D01*
X183348380Y-77589095D01*
X183348380Y-77351000D01*
X183396000Y-77255761D01*
X183443619Y-77208142D01*
X183538857Y-77160523D01*
X183634095Y-77160523D01*
X183776952Y-77208142D01*
X184348380Y-77779571D01*
X184348380Y-77160523D01*
D11*
X171909619Y-92625333D02*
X171909619Y-93109142D01*
X170893619Y-93109142D01*
X170893619Y-92383428D02*
X170893619Y-91754476D01*
X171280666Y-92093142D01*
X171280666Y-91948000D01*
X171329047Y-91851238D01*
X171377428Y-91802857D01*
X171474190Y-91754476D01*
X171716095Y-91754476D01*
X171812857Y-91802857D01*
X171861238Y-91851238D01*
X171909619Y-91948000D01*
X171909619Y-92238285D01*
X171861238Y-92335047D01*
X171812857Y-92383428D01*
X169010714Y-99801363D02*
X169010714Y-98531363D01*
X169434047Y-99438506D01*
X169857380Y-98531363D01*
X169857380Y-99801363D01*
X170462142Y-99801363D02*
X170462142Y-98531363D01*
X171792619Y-99680411D02*
X171732142Y-99740887D01*
X171550714Y-99801363D01*
X171429761Y-99801363D01*
X171248333Y-99740887D01*
X171127380Y-99619935D01*
X171066904Y-99498982D01*
X171006428Y-99257078D01*
X171006428Y-99075649D01*
X171066904Y-98833744D01*
X171127380Y-98712792D01*
X171248333Y-98591840D01*
X171429761Y-98531363D01*
X171550714Y-98531363D01*
X171732142Y-98591840D01*
X171792619Y-98652316D01*
X173062619Y-99801363D02*
X172639285Y-99196601D01*
X172336904Y-99801363D02*
X172336904Y-98531363D01*
X172820714Y-98531363D01*
X172941666Y-98591840D01*
X173002142Y-98652316D01*
X173062619Y-98773268D01*
X173062619Y-98954697D01*
X173002142Y-99075649D01*
X172941666Y-99136125D01*
X172820714Y-99196601D01*
X172336904Y-99196601D01*
X173848809Y-98531363D02*
X174090714Y-98531363D01*
X174211666Y-98591840D01*
X174332619Y-98712792D01*
X174393095Y-98954697D01*
X174393095Y-99378030D01*
X174332619Y-99619935D01*
X174211666Y-99740887D01*
X174090714Y-99801363D01*
X173848809Y-99801363D01*
X173727857Y-99740887D01*
X173606904Y-99619935D01*
X173546428Y-99378030D01*
X173546428Y-98954697D01*
X173606904Y-98712792D01*
X173727857Y-98591840D01*
X173848809Y-98531363D01*
X174635000Y-99922316D02*
X175602619Y-99922316D01*
X175844523Y-99740887D02*
X176025952Y-99801363D01*
X176328333Y-99801363D01*
X176449285Y-99740887D01*
X176509761Y-99680411D01*
X176570238Y-99559459D01*
X176570238Y-99438506D01*
X176509761Y-99317554D01*
X176449285Y-99257078D01*
X176328333Y-99196601D01*
X176086428Y-99136125D01*
X175965476Y-99075649D01*
X175905000Y-99015173D01*
X175844523Y-98894220D01*
X175844523Y-98773268D01*
X175905000Y-98652316D01*
X175965476Y-98591840D01*
X176086428Y-98531363D01*
X176388809Y-98531363D01*
X176570238Y-98591840D01*
X177114523Y-99801363D02*
X177114523Y-98531363D01*
X177416904Y-98531363D01*
X177598333Y-98591840D01*
X177719285Y-98712792D01*
X177779761Y-98833744D01*
X177840238Y-99075649D01*
X177840238Y-99257078D01*
X177779761Y-99498982D01*
X177719285Y-99619935D01*
X177598333Y-99740887D01*
X177416904Y-99801363D01*
X177114523Y-99801363D01*
X179049761Y-99801363D02*
X178324047Y-99801363D01*
X178686904Y-99801363D02*
X178686904Y-98531363D01*
X178565952Y-98712792D01*
X178445000Y-98833744D01*
X178324047Y-98894220D01*
X157500952Y-60799523D02*
X157500952Y-59529523D01*
X157984761Y-59529523D01*
X158105714Y-59590000D01*
X158166190Y-59650476D01*
X158226666Y-59771428D01*
X158226666Y-59952857D01*
X158166190Y-60073809D01*
X158105714Y-60134285D01*
X157984761Y-60194761D01*
X157500952Y-60194761D01*
X158710476Y-60739047D02*
X158891904Y-60799523D01*
X159194285Y-60799523D01*
X159315238Y-60739047D01*
X159375714Y-60678571D01*
X159436190Y-60557619D01*
X159436190Y-60436666D01*
X159375714Y-60315714D01*
X159315238Y-60255238D01*
X159194285Y-60194761D01*
X158952380Y-60134285D01*
X158831428Y-60073809D01*
X158770952Y-60013333D01*
X158710476Y-59892380D01*
X158710476Y-59771428D01*
X158770952Y-59650476D01*
X158831428Y-59590000D01*
X158952380Y-59529523D01*
X159254761Y-59529523D01*
X159436190Y-59590000D01*
X159920000Y-59650476D02*
X159980476Y-59590000D01*
X160101428Y-59529523D01*
X160403809Y-59529523D01*
X160524761Y-59590000D01*
X160585238Y-59650476D01*
X160645714Y-59771428D01*
X160645714Y-59892380D01*
X160585238Y-60073809D01*
X159859523Y-60799523D01*
X160645714Y-60799523D01*
X160887619Y-60920476D02*
X161855238Y-60920476D01*
X162157619Y-60799523D02*
X162157619Y-59529523D01*
X162883333Y-60799523D02*
X162339047Y-60073809D01*
X162883333Y-59529523D02*
X162157619Y-60255238D01*
X163427619Y-60134285D02*
X163850952Y-60134285D01*
X164032380Y-60799523D02*
X163427619Y-60799523D01*
X163427619Y-59529523D01*
X164032380Y-59529523D01*
X164818571Y-60194761D02*
X164818571Y-60799523D01*
X164395238Y-59529523D02*
X164818571Y-60194761D01*
X165241904Y-59529523D01*
X166088571Y-60134285D02*
X166270000Y-60194761D01*
X166330476Y-60255238D01*
X166390952Y-60376190D01*
X166390952Y-60557619D01*
X166330476Y-60678571D01*
X166270000Y-60739047D01*
X166149047Y-60799523D01*
X165665238Y-60799523D01*
X165665238Y-59529523D01*
X166088571Y-59529523D01*
X166209523Y-59590000D01*
X166270000Y-59650476D01*
X166330476Y-59771428D01*
X166330476Y-59892380D01*
X166270000Y-60013333D01*
X166209523Y-60073809D01*
X166088571Y-60134285D01*
X165665238Y-60134285D01*
X167177142Y-59529523D02*
X167419047Y-59529523D01*
X167540000Y-59590000D01*
X167660952Y-59710952D01*
X167721428Y-59952857D01*
X167721428Y-60376190D01*
X167660952Y-60618095D01*
X167540000Y-60739047D01*
X167419047Y-60799523D01*
X167177142Y-60799523D01*
X167056190Y-60739047D01*
X166935238Y-60618095D01*
X166874761Y-60376190D01*
X166874761Y-59952857D01*
X166935238Y-59710952D01*
X167056190Y-59590000D01*
X167177142Y-59529523D01*
X168205238Y-60436666D02*
X168810000Y-60436666D01*
X168084285Y-60799523D02*
X168507619Y-59529523D01*
X168930952Y-60799523D01*
X170080000Y-60799523D02*
X169656666Y-60194761D01*
X169354285Y-60799523D02*
X169354285Y-59529523D01*
X169838095Y-59529523D01*
X169959047Y-59590000D01*
X170019523Y-59650476D01*
X170080000Y-59771428D01*
X170080000Y-59952857D01*
X170019523Y-60073809D01*
X169959047Y-60134285D01*
X169838095Y-60194761D01*
X169354285Y-60194761D01*
X170624285Y-60799523D02*
X170624285Y-59529523D01*
X170926666Y-59529523D01*
X171108095Y-59590000D01*
X171229047Y-59710952D01*
X171289523Y-59831904D01*
X171350000Y-60073809D01*
X171350000Y-60255238D01*
X171289523Y-60497142D01*
X171229047Y-60618095D01*
X171108095Y-60739047D01*
X170926666Y-60799523D01*
X170624285Y-60799523D01*
X172559523Y-60799523D02*
X171833809Y-60799523D01*
X172196666Y-60799523D02*
X172196666Y-59529523D01*
X172075714Y-59710952D01*
X171954761Y-59831904D01*
X171833809Y-59892380D01*
X182133809Y-60799523D02*
X182133809Y-59529523D01*
X182617619Y-59529523D01*
X182738571Y-59590000D01*
X182799047Y-59650476D01*
X182859523Y-59771428D01*
X182859523Y-59952857D01*
X182799047Y-60073809D01*
X182738571Y-60134285D01*
X182617619Y-60194761D01*
X182133809Y-60194761D01*
X183343333Y-60739047D02*
X183524761Y-60799523D01*
X183827142Y-60799523D01*
X183948095Y-60739047D01*
X184008571Y-60678571D01*
X184069047Y-60557619D01*
X184069047Y-60436666D01*
X184008571Y-60315714D01*
X183948095Y-60255238D01*
X183827142Y-60194761D01*
X183585238Y-60134285D01*
X183464285Y-60073809D01*
X183403809Y-60013333D01*
X183343333Y-59892380D01*
X183343333Y-59771428D01*
X183403809Y-59650476D01*
X183464285Y-59590000D01*
X183585238Y-59529523D01*
X183887619Y-59529523D01*
X184069047Y-59590000D01*
X184552857Y-59650476D02*
X184613333Y-59590000D01*
X184734285Y-59529523D01*
X185036666Y-59529523D01*
X185157619Y-59590000D01*
X185218095Y-59650476D01*
X185278571Y-59771428D01*
X185278571Y-59892380D01*
X185218095Y-60073809D01*
X184492380Y-60799523D01*
X185278571Y-60799523D01*
X185520476Y-60920476D02*
X186488095Y-60920476D01*
X186790476Y-60799523D02*
X186790476Y-59529523D01*
X187213809Y-60436666D01*
X187637142Y-59529523D01*
X187637142Y-60799523D01*
X188483809Y-59529523D02*
X188725714Y-59529523D01*
X188846666Y-59590000D01*
X188967619Y-59710952D01*
X189028095Y-59952857D01*
X189028095Y-60376190D01*
X188967619Y-60618095D01*
X188846666Y-60739047D01*
X188725714Y-60799523D01*
X188483809Y-60799523D01*
X188362857Y-60739047D01*
X188241904Y-60618095D01*
X188181428Y-60376190D01*
X188181428Y-59952857D01*
X188241904Y-59710952D01*
X188362857Y-59590000D01*
X188483809Y-59529523D01*
X189572380Y-59529523D02*
X189572380Y-60557619D01*
X189632857Y-60678571D01*
X189693333Y-60739047D01*
X189814285Y-60799523D01*
X190056190Y-60799523D01*
X190177142Y-60739047D01*
X190237619Y-60678571D01*
X190298095Y-60557619D01*
X190298095Y-59529523D01*
X190842380Y-60739047D02*
X191023809Y-60799523D01*
X191326190Y-60799523D01*
X191447142Y-60739047D01*
X191507619Y-60678571D01*
X191568095Y-60557619D01*
X191568095Y-60436666D01*
X191507619Y-60315714D01*
X191447142Y-60255238D01*
X191326190Y-60194761D01*
X191084285Y-60134285D01*
X190963333Y-60073809D01*
X190902857Y-60013333D01*
X190842380Y-59892380D01*
X190842380Y-59771428D01*
X190902857Y-59650476D01*
X190963333Y-59590000D01*
X191084285Y-59529523D01*
X191386666Y-59529523D01*
X191568095Y-59590000D01*
X192112380Y-60134285D02*
X192535714Y-60134285D01*
X192717142Y-60799523D02*
X192112380Y-60799523D01*
X192112380Y-59529523D01*
X192717142Y-59529523D01*
X193926666Y-60799523D02*
X193200952Y-60799523D01*
X193563809Y-60799523D02*
X193563809Y-59529523D01*
X193442857Y-59710952D01*
X193321904Y-59831904D01*
X193200952Y-59892380D01*
X196070619Y-109044619D02*
X196070619Y-108028619D01*
X196457666Y-108028619D01*
X196554428Y-108077000D01*
X196602809Y-108125380D01*
X196651190Y-108222142D01*
X196651190Y-108367285D01*
X196602809Y-108464047D01*
X196554428Y-108512428D01*
X196457666Y-108560809D01*
X196070619Y-108560809D01*
X196989857Y-108028619D02*
X197231761Y-109044619D01*
X197425285Y-108318904D01*
X197618809Y-109044619D01*
X197860714Y-108028619D01*
X198828333Y-109044619D02*
X198489666Y-108560809D01*
X198247761Y-109044619D02*
X198247761Y-108028619D01*
X198634809Y-108028619D01*
X198731571Y-108077000D01*
X198779952Y-108125380D01*
X198828333Y-108222142D01*
X198828333Y-108367285D01*
X198779952Y-108464047D01*
X198731571Y-108512428D01*
X198634809Y-108560809D01*
X198247761Y-108560809D01*
X199021857Y-109141380D02*
X199795952Y-109141380D01*
X200521666Y-109044619D02*
X200037857Y-109044619D01*
X200037857Y-108028619D01*
X200860333Y-108512428D02*
X201199000Y-108512428D01*
X201344142Y-109044619D02*
X200860333Y-109044619D01*
X200860333Y-108028619D01*
X201344142Y-108028619D01*
X201779571Y-109044619D02*
X201779571Y-108028619D01*
X202021476Y-108028619D01*
X202166619Y-108077000D01*
X202263380Y-108173761D01*
X202311761Y-108270523D01*
X202360142Y-108464047D01*
X202360142Y-108609190D01*
X202311761Y-108802714D01*
X202263380Y-108899476D01*
X202166619Y-108996238D01*
X202021476Y-109044619D01*
X201779571Y-109044619D01*
X203327761Y-109044619D02*
X202747190Y-109044619D01*
X203037476Y-109044619D02*
X203037476Y-108028619D01*
X202940714Y-108173761D01*
X202843952Y-108270523D01*
X202747190Y-108318904D01*
X202141666Y-105869619D02*
X201803000Y-105385809D01*
X201561095Y-105869619D02*
X201561095Y-104853619D01*
X201948142Y-104853619D01*
X202044904Y-104902000D01*
X202093285Y-104950380D01*
X202141666Y-105047142D01*
X202141666Y-105192285D01*
X202093285Y-105289047D01*
X202044904Y-105337428D01*
X201948142Y-105385809D01*
X201561095Y-105385809D01*
X203109285Y-105869619D02*
X202528714Y-105869619D01*
X202819000Y-105869619D02*
X202819000Y-104853619D01*
X202722238Y-104998761D01*
X202625476Y-105095523D01*
X202528714Y-105143904D01*
X187022619Y-70400333D02*
X186538809Y-70739000D01*
X187022619Y-70980904D02*
X186006619Y-70980904D01*
X186006619Y-70593857D01*
X186055000Y-70497095D01*
X186103380Y-70448714D01*
X186200142Y-70400333D01*
X186345285Y-70400333D01*
X186442047Y-70448714D01*
X186490428Y-70497095D01*
X186538809Y-70593857D01*
X186538809Y-70980904D01*
X186103380Y-70013285D02*
X186055000Y-69964904D01*
X186006619Y-69868142D01*
X186006619Y-69626238D01*
X186055000Y-69529476D01*
X186103380Y-69481095D01*
X186200142Y-69432714D01*
X186296904Y-69432714D01*
X186442047Y-69481095D01*
X187022619Y-70061666D01*
X187022619Y-69432714D01*
X202070666Y-59061619D02*
X201732000Y-58577809D01*
X201490095Y-59061619D02*
X201490095Y-58045619D01*
X201877142Y-58045619D01*
X201973904Y-58094000D01*
X202022285Y-58142380D01*
X202070666Y-58239142D01*
X202070666Y-58384285D01*
X202022285Y-58481047D01*
X201973904Y-58529428D01*
X201877142Y-58577809D01*
X201490095Y-58577809D01*
X202409333Y-58045619D02*
X203038285Y-58045619D01*
X202699619Y-58432666D01*
X202844761Y-58432666D01*
X202941523Y-58481047D01*
X202989904Y-58529428D01*
X203038285Y-58626190D01*
X203038285Y-58868095D01*
X202989904Y-58964857D01*
X202941523Y-59013238D01*
X202844761Y-59061619D01*
X202554476Y-59061619D01*
X202457714Y-59013238D01*
X202409333Y-58964857D01*
X195664666Y-67769619D02*
X195326000Y-67285809D01*
X195084095Y-67769619D02*
X195084095Y-66753619D01*
X195471142Y-66753619D01*
X195567904Y-66802000D01*
X195616285Y-66850380D01*
X195664666Y-66947142D01*
X195664666Y-67092285D01*
X195616285Y-67189047D01*
X195567904Y-67237428D01*
X195471142Y-67285809D01*
X195084095Y-67285809D01*
X196583904Y-66753619D02*
X196100095Y-66753619D01*
X196051714Y-67237428D01*
X196100095Y-67189047D01*
X196196857Y-67140666D01*
X196438761Y-67140666D01*
X196535523Y-67189047D01*
X196583904Y-67237428D01*
X196632285Y-67334190D01*
X196632285Y-67576095D01*
X196583904Y-67672857D01*
X196535523Y-67721238D01*
X196438761Y-67769619D01*
X196196857Y-67769619D01*
X196100095Y-67721238D01*
X196051714Y-67672857D01*
X194769619Y-94379142D02*
X194285809Y-94717809D01*
X194769619Y-94959714D02*
X193753619Y-94959714D01*
X193753619Y-94572666D01*
X193802000Y-94475904D01*
X193850380Y-94427523D01*
X193947142Y-94379142D01*
X194092285Y-94379142D01*
X194189047Y-94427523D01*
X194237428Y-94475904D01*
X194285809Y-94572666D01*
X194285809Y-94959714D01*
X194769619Y-93411523D02*
X194769619Y-93992095D01*
X194769619Y-93701809D02*
X193753619Y-93701809D01*
X193898761Y-93798571D01*
X193995523Y-93895333D01*
X194043904Y-93992095D01*
X193753619Y-92782571D02*
X193753619Y-92685809D01*
X193802000Y-92589047D01*
X193850380Y-92540666D01*
X193947142Y-92492285D01*
X194140666Y-92443904D01*
X194382571Y-92443904D01*
X194576095Y-92492285D01*
X194672857Y-92540666D01*
X194721238Y-92589047D01*
X194769619Y-92685809D01*
X194769619Y-92782571D01*
X194721238Y-92879333D01*
X194672857Y-92927714D01*
X194576095Y-92976095D01*
X194382571Y-93024476D01*
X194140666Y-93024476D01*
X193947142Y-92976095D01*
X193850380Y-92927714D01*
X193802000Y-92879333D01*
X193753619Y-92782571D01*
X175211619Y-74313142D02*
X174727809Y-74651809D01*
X175211619Y-74893714D02*
X174195619Y-74893714D01*
X174195619Y-74506666D01*
X174244000Y-74409904D01*
X174292380Y-74361523D01*
X174389142Y-74313142D01*
X174534285Y-74313142D01*
X174631047Y-74361523D01*
X174679428Y-74409904D01*
X174727809Y-74506666D01*
X174727809Y-74893714D01*
X175211619Y-73345523D02*
X175211619Y-73926095D01*
X175211619Y-73635809D02*
X174195619Y-73635809D01*
X174340761Y-73732571D01*
X174437523Y-73829333D01*
X174485904Y-73926095D01*
X174292380Y-72958476D02*
X174244000Y-72910095D01*
X174195619Y-72813333D01*
X174195619Y-72571428D01*
X174244000Y-72474666D01*
X174292380Y-72426285D01*
X174389142Y-72377904D01*
X174485904Y-72377904D01*
X174631047Y-72426285D01*
X175211619Y-73006857D01*
X175211619Y-72377904D01*
X175211619Y-71011142D02*
X174727809Y-71349809D01*
X175211619Y-71591714D02*
X174195619Y-71591714D01*
X174195619Y-71204666D01*
X174244000Y-71107904D01*
X174292380Y-71059523D01*
X174389142Y-71011142D01*
X174534285Y-71011142D01*
X174631047Y-71059523D01*
X174679428Y-71107904D01*
X174727809Y-71204666D01*
X174727809Y-71591714D01*
X175211619Y-70043523D02*
X175211619Y-70624095D01*
X175211619Y-70333809D02*
X174195619Y-70333809D01*
X174340761Y-70430571D01*
X174437523Y-70527333D01*
X174485904Y-70624095D01*
X174195619Y-69704857D02*
X174195619Y-69075904D01*
X174582666Y-69414571D01*
X174582666Y-69269428D01*
X174631047Y-69172666D01*
X174679428Y-69124285D01*
X174776190Y-69075904D01*
X175018095Y-69075904D01*
X175114857Y-69124285D01*
X175163238Y-69172666D01*
X175211619Y-69269428D01*
X175211619Y-69559714D01*
X175163238Y-69656476D01*
X175114857Y-69704857D01*
X139554857Y-103075619D02*
X139216190Y-102591809D01*
X138974285Y-103075619D02*
X138974285Y-102059619D01*
X139361333Y-102059619D01*
X139458095Y-102108000D01*
X139506476Y-102156380D01*
X139554857Y-102253142D01*
X139554857Y-102398285D01*
X139506476Y-102495047D01*
X139458095Y-102543428D01*
X139361333Y-102591809D01*
X138974285Y-102591809D01*
X140522476Y-103075619D02*
X139941904Y-103075619D01*
X140232190Y-103075619D02*
X140232190Y-102059619D01*
X140135428Y-102204761D01*
X140038666Y-102301523D01*
X139941904Y-102349904D01*
X141441714Y-102059619D02*
X140957904Y-102059619D01*
X140909523Y-102543428D01*
X140957904Y-102495047D01*
X141054666Y-102446666D01*
X141296571Y-102446666D01*
X141393333Y-102495047D01*
X141441714Y-102543428D01*
X141490095Y-102640190D01*
X141490095Y-102882095D01*
X141441714Y-102978857D01*
X141393333Y-103027238D01*
X141296571Y-103075619D01*
X141054666Y-103075619D01*
X140957904Y-103027238D01*
X140909523Y-102978857D01*
X139554857Y-104726619D02*
X139216190Y-104242809D01*
X138974285Y-104726619D02*
X138974285Y-103710619D01*
X139361333Y-103710619D01*
X139458095Y-103759000D01*
X139506476Y-103807380D01*
X139554857Y-103904142D01*
X139554857Y-104049285D01*
X139506476Y-104146047D01*
X139458095Y-104194428D01*
X139361333Y-104242809D01*
X138974285Y-104242809D01*
X140522476Y-104726619D02*
X139941904Y-104726619D01*
X140232190Y-104726619D02*
X140232190Y-103710619D01*
X140135428Y-103855761D01*
X140038666Y-103952523D01*
X139941904Y-104000904D01*
X141393333Y-103710619D02*
X141199809Y-103710619D01*
X141103047Y-103759000D01*
X141054666Y-103807380D01*
X140957904Y-103952523D01*
X140909523Y-104146047D01*
X140909523Y-104533095D01*
X140957904Y-104629857D01*
X141006285Y-104678238D01*
X141103047Y-104726619D01*
X141296571Y-104726619D01*
X141393333Y-104678238D01*
X141441714Y-104629857D01*
X141490095Y-104533095D01*
X141490095Y-104291190D01*
X141441714Y-104194428D01*
X141393333Y-104146047D01*
X141296571Y-104097666D01*
X141103047Y-104097666D01*
X141006285Y-104146047D01*
X140957904Y-104194428D01*
X140909523Y-104291190D01*
X155048857Y-93423619D02*
X154710190Y-92939809D01*
X154468285Y-93423619D02*
X154468285Y-92407619D01*
X154855333Y-92407619D01*
X154952095Y-92456000D01*
X155000476Y-92504380D01*
X155048857Y-92601142D01*
X155048857Y-92746285D01*
X155000476Y-92843047D01*
X154952095Y-92891428D01*
X154855333Y-92939809D01*
X154468285Y-92939809D01*
X156016476Y-93423619D02*
X155435904Y-93423619D01*
X155726190Y-93423619D02*
X155726190Y-92407619D01*
X155629428Y-92552761D01*
X155532666Y-92649523D01*
X155435904Y-92697904D01*
X156355142Y-92407619D02*
X157032476Y-92407619D01*
X156597047Y-93423619D01*
X155048857Y-94947619D02*
X154710190Y-94463809D01*
X154468285Y-94947619D02*
X154468285Y-93931619D01*
X154855333Y-93931619D01*
X154952095Y-93980000D01*
X155000476Y-94028380D01*
X155048857Y-94125142D01*
X155048857Y-94270285D01*
X155000476Y-94367047D01*
X154952095Y-94415428D01*
X154855333Y-94463809D01*
X154468285Y-94463809D01*
X156016476Y-94947619D02*
X155435904Y-94947619D01*
X155726190Y-94947619D02*
X155726190Y-93931619D01*
X155629428Y-94076761D01*
X155532666Y-94173523D01*
X155435904Y-94221904D01*
X156597047Y-94367047D02*
X156500285Y-94318666D01*
X156451904Y-94270285D01*
X156403523Y-94173523D01*
X156403523Y-94125142D01*
X156451904Y-94028380D01*
X156500285Y-93980000D01*
X156597047Y-93931619D01*
X156790571Y-93931619D01*
X156887333Y-93980000D01*
X156935714Y-94028380D01*
X156984095Y-94125142D01*
X156984095Y-94173523D01*
X156935714Y-94270285D01*
X156887333Y-94318666D01*
X156790571Y-94367047D01*
X156597047Y-94367047D01*
X156500285Y-94415428D01*
X156451904Y-94463809D01*
X156403523Y-94560571D01*
X156403523Y-94754095D01*
X156451904Y-94850857D01*
X156500285Y-94899238D01*
X156597047Y-94947619D01*
X156790571Y-94947619D01*
X156887333Y-94899238D01*
X156935714Y-94850857D01*
X156984095Y-94754095D01*
X156984095Y-94560571D01*
X156935714Y-94463809D01*
X156887333Y-94415428D01*
X156790571Y-94367047D01*
X166067619Y-65677142D02*
X165583809Y-66015809D01*
X166067619Y-66257714D02*
X165051619Y-66257714D01*
X165051619Y-65870666D01*
X165100000Y-65773904D01*
X165148380Y-65725523D01*
X165245142Y-65677142D01*
X165390285Y-65677142D01*
X165487047Y-65725523D01*
X165535428Y-65773904D01*
X165583809Y-65870666D01*
X165583809Y-66257714D01*
X166067619Y-64709523D02*
X166067619Y-65290095D01*
X166067619Y-64999809D02*
X165051619Y-64999809D01*
X165196761Y-65096571D01*
X165293523Y-65193333D01*
X165341904Y-65290095D01*
X166067619Y-64225714D02*
X166067619Y-64032190D01*
X166019238Y-63935428D01*
X165970857Y-63887047D01*
X165825714Y-63790285D01*
X165632190Y-63741904D01*
X165245142Y-63741904D01*
X165148380Y-63790285D01*
X165100000Y-63838666D01*
X165051619Y-63935428D01*
X165051619Y-64128952D01*
X165100000Y-64225714D01*
X165148380Y-64274095D01*
X165245142Y-64322476D01*
X165487047Y-64322476D01*
X165583809Y-64274095D01*
X165632190Y-64225714D01*
X165680571Y-64128952D01*
X165680571Y-63935428D01*
X165632190Y-63838666D01*
X165583809Y-63790285D01*
X165487047Y-63741904D01*
X164416619Y-65677142D02*
X163932809Y-66015809D01*
X164416619Y-66257714D02*
X163400619Y-66257714D01*
X163400619Y-65870666D01*
X163449000Y-65773904D01*
X163497380Y-65725523D01*
X163594142Y-65677142D01*
X163739285Y-65677142D01*
X163836047Y-65725523D01*
X163884428Y-65773904D01*
X163932809Y-65870666D01*
X163932809Y-66257714D01*
X163497380Y-65290095D02*
X163449000Y-65241714D01*
X163400619Y-65144952D01*
X163400619Y-64903047D01*
X163449000Y-64806285D01*
X163497380Y-64757904D01*
X163594142Y-64709523D01*
X163690904Y-64709523D01*
X163836047Y-64757904D01*
X164416619Y-65338476D01*
X164416619Y-64709523D01*
X163400619Y-64080571D02*
X163400619Y-63983809D01*
X163449000Y-63887047D01*
X163497380Y-63838666D01*
X163594142Y-63790285D01*
X163787666Y-63741904D01*
X164029571Y-63741904D01*
X164223095Y-63790285D01*
X164319857Y-63838666D01*
X164368238Y-63887047D01*
X164416619Y-63983809D01*
X164416619Y-64080571D01*
X164368238Y-64177333D01*
X164319857Y-64225714D01*
X164223095Y-64274095D01*
X164029571Y-64322476D01*
X163787666Y-64322476D01*
X163594142Y-64274095D01*
X163497380Y-64225714D01*
X163449000Y-64177333D01*
X163400619Y-64080571D01*
X167718619Y-65677142D02*
X167234809Y-66015809D01*
X167718619Y-66257714D02*
X166702619Y-66257714D01*
X166702619Y-65870666D01*
X166751000Y-65773904D01*
X166799380Y-65725523D01*
X166896142Y-65677142D01*
X167041285Y-65677142D01*
X167138047Y-65725523D01*
X167186428Y-65773904D01*
X167234809Y-65870666D01*
X167234809Y-66257714D01*
X166799380Y-65290095D02*
X166751000Y-65241714D01*
X166702619Y-65144952D01*
X166702619Y-64903047D01*
X166751000Y-64806285D01*
X166799380Y-64757904D01*
X166896142Y-64709523D01*
X166992904Y-64709523D01*
X167138047Y-64757904D01*
X167718619Y-65338476D01*
X167718619Y-64709523D01*
X167138047Y-64128952D02*
X167089666Y-64225714D01*
X167041285Y-64274095D01*
X166944523Y-64322476D01*
X166896142Y-64322476D01*
X166799380Y-64274095D01*
X166751000Y-64225714D01*
X166702619Y-64128952D01*
X166702619Y-63935428D01*
X166751000Y-63838666D01*
X166799380Y-63790285D01*
X166896142Y-63741904D01*
X166944523Y-63741904D01*
X167041285Y-63790285D01*
X167089666Y-63838666D01*
X167138047Y-63935428D01*
X167138047Y-64128952D01*
X167186428Y-64225714D01*
X167234809Y-64274095D01*
X167331571Y-64322476D01*
X167525095Y-64322476D01*
X167621857Y-64274095D01*
X167670238Y-64225714D01*
X167718619Y-64128952D01*
X167718619Y-63935428D01*
X167670238Y-63838666D01*
X167621857Y-63790285D01*
X167525095Y-63741904D01*
X167331571Y-63741904D01*
X167234809Y-63790285D01*
X167186428Y-63838666D01*
X167138047Y-63935428D01*
X162765619Y-65677142D02*
X162281809Y-66015809D01*
X162765619Y-66257714D02*
X161749619Y-66257714D01*
X161749619Y-65870666D01*
X161798000Y-65773904D01*
X161846380Y-65725523D01*
X161943142Y-65677142D01*
X162088285Y-65677142D01*
X162185047Y-65725523D01*
X162233428Y-65773904D01*
X162281809Y-65870666D01*
X162281809Y-66257714D01*
X161846380Y-65290095D02*
X161798000Y-65241714D01*
X161749619Y-65144952D01*
X161749619Y-64903047D01*
X161798000Y-64806285D01*
X161846380Y-64757904D01*
X161943142Y-64709523D01*
X162039904Y-64709523D01*
X162185047Y-64757904D01*
X162765619Y-65338476D01*
X162765619Y-64709523D01*
X162765619Y-64225714D02*
X162765619Y-64032190D01*
X162717238Y-63935428D01*
X162668857Y-63887047D01*
X162523714Y-63790285D01*
X162330190Y-63741904D01*
X161943142Y-63741904D01*
X161846380Y-63790285D01*
X161798000Y-63838666D01*
X161749619Y-63935428D01*
X161749619Y-64128952D01*
X161798000Y-64225714D01*
X161846380Y-64274095D01*
X161943142Y-64322476D01*
X162185047Y-64322476D01*
X162281809Y-64274095D01*
X162330190Y-64225714D01*
X162378571Y-64128952D01*
X162378571Y-63935428D01*
X162330190Y-63838666D01*
X162281809Y-63790285D01*
X162185047Y-63741904D01*
X116029619Y-64153142D02*
X115545809Y-64491809D01*
X116029619Y-64733714D02*
X115013619Y-64733714D01*
X115013619Y-64346666D01*
X115062000Y-64249904D01*
X115110380Y-64201523D01*
X115207142Y-64153142D01*
X115352285Y-64153142D01*
X115449047Y-64201523D01*
X115497428Y-64249904D01*
X115545809Y-64346666D01*
X115545809Y-64733714D01*
X115110380Y-63766095D02*
X115062000Y-63717714D01*
X115013619Y-63620952D01*
X115013619Y-63379047D01*
X115062000Y-63282285D01*
X115110380Y-63233904D01*
X115207142Y-63185523D01*
X115303904Y-63185523D01*
X115449047Y-63233904D01*
X116029619Y-63814476D01*
X116029619Y-63185523D01*
X115110380Y-62798476D02*
X115062000Y-62750095D01*
X115013619Y-62653333D01*
X115013619Y-62411428D01*
X115062000Y-62314666D01*
X115110380Y-62266285D01*
X115207142Y-62217904D01*
X115303904Y-62217904D01*
X115449047Y-62266285D01*
X116029619Y-62846857D01*
X116029619Y-62217904D01*
X117934619Y-64153142D02*
X117450809Y-64491809D01*
X117934619Y-64733714D02*
X116918619Y-64733714D01*
X116918619Y-64346666D01*
X116967000Y-64249904D01*
X117015380Y-64201523D01*
X117112142Y-64153142D01*
X117257285Y-64153142D01*
X117354047Y-64201523D01*
X117402428Y-64249904D01*
X117450809Y-64346666D01*
X117450809Y-64733714D01*
X117015380Y-63766095D02*
X116967000Y-63717714D01*
X116918619Y-63620952D01*
X116918619Y-63379047D01*
X116967000Y-63282285D01*
X117015380Y-63233904D01*
X117112142Y-63185523D01*
X117208904Y-63185523D01*
X117354047Y-63233904D01*
X117934619Y-63814476D01*
X117934619Y-63185523D01*
X116918619Y-62846857D02*
X116918619Y-62217904D01*
X117305666Y-62556571D01*
X117305666Y-62411428D01*
X117354047Y-62314666D01*
X117402428Y-62266285D01*
X117499190Y-62217904D01*
X117741095Y-62217904D01*
X117837857Y-62266285D01*
X117886238Y-62314666D01*
X117934619Y-62411428D01*
X117934619Y-62701714D01*
X117886238Y-62798476D01*
X117837857Y-62846857D01*
X121490619Y-64026142D02*
X121006809Y-64364809D01*
X121490619Y-64606714D02*
X120474619Y-64606714D01*
X120474619Y-64219666D01*
X120523000Y-64122904D01*
X120571380Y-64074523D01*
X120668142Y-64026142D01*
X120813285Y-64026142D01*
X120910047Y-64074523D01*
X120958428Y-64122904D01*
X121006809Y-64219666D01*
X121006809Y-64606714D01*
X120571380Y-63639095D02*
X120523000Y-63590714D01*
X120474619Y-63493952D01*
X120474619Y-63252047D01*
X120523000Y-63155285D01*
X120571380Y-63106904D01*
X120668142Y-63058523D01*
X120764904Y-63058523D01*
X120910047Y-63106904D01*
X121490619Y-63687476D01*
X121490619Y-63058523D01*
X120813285Y-62187666D02*
X121490619Y-62187666D01*
X120426238Y-62429571D02*
X121151952Y-62671476D01*
X121151952Y-62042523D01*
X123268619Y-64026142D02*
X122784809Y-64364809D01*
X123268619Y-64606714D02*
X122252619Y-64606714D01*
X122252619Y-64219666D01*
X122301000Y-64122904D01*
X122349380Y-64074523D01*
X122446142Y-64026142D01*
X122591285Y-64026142D01*
X122688047Y-64074523D01*
X122736428Y-64122904D01*
X122784809Y-64219666D01*
X122784809Y-64606714D01*
X122349380Y-63639095D02*
X122301000Y-63590714D01*
X122252619Y-63493952D01*
X122252619Y-63252047D01*
X122301000Y-63155285D01*
X122349380Y-63106904D01*
X122446142Y-63058523D01*
X122542904Y-63058523D01*
X122688047Y-63106904D01*
X123268619Y-63687476D01*
X123268619Y-63058523D01*
X122252619Y-62139285D02*
X122252619Y-62623095D01*
X122736428Y-62671476D01*
X122688047Y-62623095D01*
X122639666Y-62526333D01*
X122639666Y-62284428D01*
X122688047Y-62187666D01*
X122736428Y-62139285D01*
X122833190Y-62090904D01*
X123075095Y-62090904D01*
X123171857Y-62139285D01*
X123220238Y-62187666D01*
X123268619Y-62284428D01*
X123268619Y-62526333D01*
X123220238Y-62623095D01*
X123171857Y-62671476D01*
X141556619Y-111651142D02*
X141072809Y-111989809D01*
X141556619Y-112231714D02*
X140540619Y-112231714D01*
X140540619Y-111844666D01*
X140589000Y-111747904D01*
X140637380Y-111699523D01*
X140734142Y-111651142D01*
X140879285Y-111651142D01*
X140976047Y-111699523D01*
X141024428Y-111747904D01*
X141072809Y-111844666D01*
X141072809Y-112231714D01*
X140540619Y-111312476D02*
X140540619Y-110683523D01*
X140927666Y-111022190D01*
X140927666Y-110877047D01*
X140976047Y-110780285D01*
X141024428Y-110731904D01*
X141121190Y-110683523D01*
X141363095Y-110683523D01*
X141459857Y-110731904D01*
X141508238Y-110780285D01*
X141556619Y-110877047D01*
X141556619Y-111167333D01*
X141508238Y-111264095D01*
X141459857Y-111312476D01*
X140540619Y-110054571D02*
X140540619Y-109957809D01*
X140589000Y-109861047D01*
X140637380Y-109812666D01*
X140734142Y-109764285D01*
X140927666Y-109715904D01*
X141169571Y-109715904D01*
X141363095Y-109764285D01*
X141459857Y-109812666D01*
X141508238Y-109861047D01*
X141556619Y-109957809D01*
X141556619Y-110054571D01*
X141508238Y-110151333D01*
X141459857Y-110199714D01*
X141363095Y-110248095D01*
X141169571Y-110296476D01*
X140927666Y-110296476D01*
X140734142Y-110248095D01*
X140637380Y-110199714D01*
X140589000Y-110151333D01*
X140540619Y-110054571D01*
X139778619Y-111651142D02*
X139294809Y-111989809D01*
X139778619Y-112231714D02*
X138762619Y-112231714D01*
X138762619Y-111844666D01*
X138811000Y-111747904D01*
X138859380Y-111699523D01*
X138956142Y-111651142D01*
X139101285Y-111651142D01*
X139198047Y-111699523D01*
X139246428Y-111747904D01*
X139294809Y-111844666D01*
X139294809Y-112231714D01*
X138762619Y-111312476D02*
X138762619Y-110683523D01*
X139149666Y-111022190D01*
X139149666Y-110877047D01*
X139198047Y-110780285D01*
X139246428Y-110731904D01*
X139343190Y-110683523D01*
X139585095Y-110683523D01*
X139681857Y-110731904D01*
X139730238Y-110780285D01*
X139778619Y-110877047D01*
X139778619Y-111167333D01*
X139730238Y-111264095D01*
X139681857Y-111312476D01*
X139778619Y-109715904D02*
X139778619Y-110296476D01*
X139778619Y-110006190D02*
X138762619Y-110006190D01*
X138907761Y-110102952D01*
X139004523Y-110199714D01*
X139052904Y-110296476D01*
X124030619Y-102761142D02*
X123546809Y-103099809D01*
X124030619Y-103341714D02*
X123014619Y-103341714D01*
X123014619Y-102954666D01*
X123063000Y-102857904D01*
X123111380Y-102809523D01*
X123208142Y-102761142D01*
X123353285Y-102761142D01*
X123450047Y-102809523D01*
X123498428Y-102857904D01*
X123546809Y-102954666D01*
X123546809Y-103341714D01*
X123014619Y-102422476D02*
X123014619Y-101793523D01*
X123401666Y-102132190D01*
X123401666Y-101987047D01*
X123450047Y-101890285D01*
X123498428Y-101841904D01*
X123595190Y-101793523D01*
X123837095Y-101793523D01*
X123933857Y-101841904D01*
X123982238Y-101890285D01*
X124030619Y-101987047D01*
X124030619Y-102277333D01*
X123982238Y-102374095D01*
X123933857Y-102422476D01*
X123111380Y-101406476D02*
X123063000Y-101358095D01*
X123014619Y-101261333D01*
X123014619Y-101019428D01*
X123063000Y-100922666D01*
X123111380Y-100874285D01*
X123208142Y-100825904D01*
X123304904Y-100825904D01*
X123450047Y-100874285D01*
X124030619Y-101454857D01*
X124030619Y-100825904D01*
X184355619Y-65677142D02*
X183871809Y-66015809D01*
X184355619Y-66257714D02*
X183339619Y-66257714D01*
X183339619Y-65870666D01*
X183388000Y-65773904D01*
X183436380Y-65725523D01*
X183533142Y-65677142D01*
X183678285Y-65677142D01*
X183775047Y-65725523D01*
X183823428Y-65773904D01*
X183871809Y-65870666D01*
X183871809Y-66257714D01*
X183339619Y-65338476D02*
X183339619Y-64709523D01*
X183726666Y-65048190D01*
X183726666Y-64903047D01*
X183775047Y-64806285D01*
X183823428Y-64757904D01*
X183920190Y-64709523D01*
X184162095Y-64709523D01*
X184258857Y-64757904D01*
X184307238Y-64806285D01*
X184355619Y-64903047D01*
X184355619Y-65193333D01*
X184307238Y-65290095D01*
X184258857Y-65338476D01*
X183678285Y-63838666D02*
X184355619Y-63838666D01*
X183291238Y-64080571D02*
X184016952Y-64322476D01*
X184016952Y-63693523D01*
X182704619Y-65677142D02*
X182220809Y-66015809D01*
X182704619Y-66257714D02*
X181688619Y-66257714D01*
X181688619Y-65870666D01*
X181737000Y-65773904D01*
X181785380Y-65725523D01*
X181882142Y-65677142D01*
X182027285Y-65677142D01*
X182124047Y-65725523D01*
X182172428Y-65773904D01*
X182220809Y-65870666D01*
X182220809Y-66257714D01*
X181688619Y-65338476D02*
X181688619Y-64709523D01*
X182075666Y-65048190D01*
X182075666Y-64903047D01*
X182124047Y-64806285D01*
X182172428Y-64757904D01*
X182269190Y-64709523D01*
X182511095Y-64709523D01*
X182607857Y-64757904D01*
X182656238Y-64806285D01*
X182704619Y-64903047D01*
X182704619Y-65193333D01*
X182656238Y-65290095D01*
X182607857Y-65338476D01*
X181688619Y-63790285D02*
X181688619Y-64274095D01*
X182172428Y-64322476D01*
X182124047Y-64274095D01*
X182075666Y-64177333D01*
X182075666Y-63935428D01*
X182124047Y-63838666D01*
X182172428Y-63790285D01*
X182269190Y-63741904D01*
X182511095Y-63741904D01*
X182607857Y-63790285D01*
X182656238Y-63838666D01*
X182704619Y-63935428D01*
X182704619Y-64177333D01*
X182656238Y-64274095D01*
X182607857Y-64322476D01*
X186006619Y-65677142D02*
X185522809Y-66015809D01*
X186006619Y-66257714D02*
X184990619Y-66257714D01*
X184990619Y-65870666D01*
X185039000Y-65773904D01*
X185087380Y-65725523D01*
X185184142Y-65677142D01*
X185329285Y-65677142D01*
X185426047Y-65725523D01*
X185474428Y-65773904D01*
X185522809Y-65870666D01*
X185522809Y-66257714D01*
X184990619Y-65338476D02*
X184990619Y-64709523D01*
X185377666Y-65048190D01*
X185377666Y-64903047D01*
X185426047Y-64806285D01*
X185474428Y-64757904D01*
X185571190Y-64709523D01*
X185813095Y-64709523D01*
X185909857Y-64757904D01*
X185958238Y-64806285D01*
X186006619Y-64903047D01*
X186006619Y-65193333D01*
X185958238Y-65290095D01*
X185909857Y-65338476D01*
X185426047Y-64128952D02*
X185377666Y-64225714D01*
X185329285Y-64274095D01*
X185232523Y-64322476D01*
X185184142Y-64322476D01*
X185087380Y-64274095D01*
X185039000Y-64225714D01*
X184990619Y-64128952D01*
X184990619Y-63935428D01*
X185039000Y-63838666D01*
X185087380Y-63790285D01*
X185184142Y-63741904D01*
X185232523Y-63741904D01*
X185329285Y-63790285D01*
X185377666Y-63838666D01*
X185426047Y-63935428D01*
X185426047Y-64128952D01*
X185474428Y-64225714D01*
X185522809Y-64274095D01*
X185619571Y-64322476D01*
X185813095Y-64322476D01*
X185909857Y-64274095D01*
X185958238Y-64225714D01*
X186006619Y-64128952D01*
X186006619Y-63935428D01*
X185958238Y-63838666D01*
X185909857Y-63790285D01*
X185813095Y-63741904D01*
X185619571Y-63741904D01*
X185522809Y-63790285D01*
X185474428Y-63838666D01*
X185426047Y-63935428D01*
X181053619Y-65677142D02*
X180569809Y-66015809D01*
X181053619Y-66257714D02*
X180037619Y-66257714D01*
X180037619Y-65870666D01*
X180086000Y-65773904D01*
X180134380Y-65725523D01*
X180231142Y-65677142D01*
X180376285Y-65677142D01*
X180473047Y-65725523D01*
X180521428Y-65773904D01*
X180569809Y-65870666D01*
X180569809Y-66257714D01*
X180037619Y-65338476D02*
X180037619Y-64709523D01*
X180424666Y-65048190D01*
X180424666Y-64903047D01*
X180473047Y-64806285D01*
X180521428Y-64757904D01*
X180618190Y-64709523D01*
X180860095Y-64709523D01*
X180956857Y-64757904D01*
X181005238Y-64806285D01*
X181053619Y-64903047D01*
X181053619Y-65193333D01*
X181005238Y-65290095D01*
X180956857Y-65338476D01*
X181053619Y-64225714D02*
X181053619Y-64032190D01*
X181005238Y-63935428D01*
X180956857Y-63887047D01*
X180811714Y-63790285D01*
X180618190Y-63741904D01*
X180231142Y-63741904D01*
X180134380Y-63790285D01*
X180086000Y-63838666D01*
X180037619Y-63935428D01*
X180037619Y-64128952D01*
X180086000Y-64225714D01*
X180134380Y-64274095D01*
X180231142Y-64322476D01*
X180473047Y-64322476D01*
X180569809Y-64274095D01*
X180618190Y-64225714D01*
X180666571Y-64128952D01*
X180666571Y-63935428D01*
X180618190Y-63838666D01*
X180569809Y-63790285D01*
X180473047Y-63741904D01*
X125808619Y-102761142D02*
X125324809Y-103099809D01*
X125808619Y-103341714D02*
X124792619Y-103341714D01*
X124792619Y-102954666D01*
X124841000Y-102857904D01*
X124889380Y-102809523D01*
X124986142Y-102761142D01*
X125131285Y-102761142D01*
X125228047Y-102809523D01*
X125276428Y-102857904D01*
X125324809Y-102954666D01*
X125324809Y-103341714D01*
X124792619Y-102422476D02*
X124792619Y-101793523D01*
X125179666Y-102132190D01*
X125179666Y-101987047D01*
X125228047Y-101890285D01*
X125276428Y-101841904D01*
X125373190Y-101793523D01*
X125615095Y-101793523D01*
X125711857Y-101841904D01*
X125760238Y-101890285D01*
X125808619Y-101987047D01*
X125808619Y-102277333D01*
X125760238Y-102374095D01*
X125711857Y-102422476D01*
X124792619Y-101454857D02*
X124792619Y-100777523D01*
X125808619Y-101212952D01*
X153397857Y-74754619D02*
X153059190Y-74270809D01*
X152817285Y-74754619D02*
X152817285Y-73738619D01*
X153204333Y-73738619D01*
X153301095Y-73787000D01*
X153349476Y-73835380D01*
X153397857Y-73932142D01*
X153397857Y-74077285D01*
X153349476Y-74174047D01*
X153301095Y-74222428D01*
X153204333Y-74270809D01*
X152817285Y-74270809D01*
X153736523Y-73738619D02*
X154365476Y-73738619D01*
X154026809Y-74125666D01*
X154171952Y-74125666D01*
X154268714Y-74174047D01*
X154317095Y-74222428D01*
X154365476Y-74319190D01*
X154365476Y-74561095D01*
X154317095Y-74657857D01*
X154268714Y-74706238D01*
X154171952Y-74754619D01*
X153881666Y-74754619D01*
X153784904Y-74706238D01*
X153736523Y-74657857D01*
X154704142Y-73738619D02*
X155333095Y-73738619D01*
X154994428Y-74125666D01*
X155139571Y-74125666D01*
X155236333Y-74174047D01*
X155284714Y-74222428D01*
X155333095Y-74319190D01*
X155333095Y-74561095D01*
X155284714Y-74657857D01*
X155236333Y-74706238D01*
X155139571Y-74754619D01*
X154849285Y-74754619D01*
X154752523Y-74706238D01*
X154704142Y-74657857D01*
X147936857Y-63832619D02*
X147598190Y-63348809D01*
X147356285Y-63832619D02*
X147356285Y-62816619D01*
X147743333Y-62816619D01*
X147840095Y-62865000D01*
X147888476Y-62913380D01*
X147936857Y-63010142D01*
X147936857Y-63155285D01*
X147888476Y-63252047D01*
X147840095Y-63300428D01*
X147743333Y-63348809D01*
X147356285Y-63348809D01*
X148275523Y-62816619D02*
X148904476Y-62816619D01*
X148565809Y-63203666D01*
X148710952Y-63203666D01*
X148807714Y-63252047D01*
X148856095Y-63300428D01*
X148904476Y-63397190D01*
X148904476Y-63639095D01*
X148856095Y-63735857D01*
X148807714Y-63784238D01*
X148710952Y-63832619D01*
X148420666Y-63832619D01*
X148323904Y-63784238D01*
X148275523Y-63735857D01*
X149775333Y-62816619D02*
X149581809Y-62816619D01*
X149485047Y-62865000D01*
X149436666Y-62913380D01*
X149339904Y-63058523D01*
X149291523Y-63252047D01*
X149291523Y-63639095D01*
X149339904Y-63735857D01*
X149388285Y-63784238D01*
X149485047Y-63832619D01*
X149678571Y-63832619D01*
X149775333Y-63784238D01*
X149823714Y-63735857D01*
X149872095Y-63639095D01*
X149872095Y-63397190D01*
X149823714Y-63300428D01*
X149775333Y-63252047D01*
X149678571Y-63203666D01*
X149485047Y-63203666D01*
X149388285Y-63252047D01*
X149339904Y-63300428D01*
X149291523Y-63397190D01*
X133682619Y-62756142D02*
X133198809Y-63094809D01*
X133682619Y-63336714D02*
X132666619Y-63336714D01*
X132666619Y-62949666D01*
X132715000Y-62852904D01*
X132763380Y-62804523D01*
X132860142Y-62756142D01*
X133005285Y-62756142D01*
X133102047Y-62804523D01*
X133150428Y-62852904D01*
X133198809Y-62949666D01*
X133198809Y-63336714D01*
X133005285Y-61885285D02*
X133682619Y-61885285D01*
X132618238Y-62127190D02*
X133343952Y-62369095D01*
X133343952Y-61740142D01*
X132666619Y-61159571D02*
X132666619Y-61062809D01*
X132715000Y-60966047D01*
X132763380Y-60917666D01*
X132860142Y-60869285D01*
X133053666Y-60820904D01*
X133295571Y-60820904D01*
X133489095Y-60869285D01*
X133585857Y-60917666D01*
X133634238Y-60966047D01*
X133682619Y-61062809D01*
X133682619Y-61159571D01*
X133634238Y-61256333D01*
X133585857Y-61304714D01*
X133489095Y-61353095D01*
X133295571Y-61401476D01*
X133053666Y-61401476D01*
X132860142Y-61353095D01*
X132763380Y-61304714D01*
X132715000Y-61256333D01*
X132666619Y-61159571D01*
X147809857Y-66753619D02*
X147471190Y-66269809D01*
X147229285Y-66753619D02*
X147229285Y-65737619D01*
X147616333Y-65737619D01*
X147713095Y-65786000D01*
X147761476Y-65834380D01*
X147809857Y-65931142D01*
X147809857Y-66076285D01*
X147761476Y-66173047D01*
X147713095Y-66221428D01*
X147616333Y-66269809D01*
X147229285Y-66269809D01*
X148680714Y-66076285D02*
X148680714Y-66753619D01*
X148438809Y-65689238D02*
X148196904Y-66414952D01*
X148825857Y-66414952D01*
X149745095Y-66753619D02*
X149164523Y-66753619D01*
X149454809Y-66753619D02*
X149454809Y-65737619D01*
X149358047Y-65882761D01*
X149261285Y-65979523D01*
X149164523Y-66027904D01*
X165366095Y-98376619D02*
X165027428Y-97892809D01*
X164785523Y-98376619D02*
X164785523Y-97360619D01*
X165172571Y-97360619D01*
X165269333Y-97409000D01*
X165317714Y-97457380D01*
X165366095Y-97554142D01*
X165366095Y-97699285D01*
X165317714Y-97796047D01*
X165269333Y-97844428D01*
X165172571Y-97892809D01*
X164785523Y-97892809D01*
X165801523Y-98376619D02*
X165801523Y-97360619D01*
X166140190Y-98086333D01*
X166478857Y-97360619D01*
X166478857Y-98376619D01*
X167494857Y-98376619D02*
X166914285Y-98376619D01*
X167204571Y-98376619D02*
X167204571Y-97360619D01*
X167107809Y-97505761D01*
X167011047Y-97602523D01*
X166914285Y-97650904D01*
X123903619Y-64050333D02*
X123903619Y-63469761D01*
X124919619Y-63760047D02*
X123903619Y-63760047D01*
X123903619Y-63276238D02*
X124919619Y-62937571D01*
X123903619Y-62598904D01*
X124871238Y-62308619D02*
X124919619Y-62163476D01*
X124919619Y-61921571D01*
X124871238Y-61824809D01*
X124822857Y-61776428D01*
X124726095Y-61728047D01*
X124629333Y-61728047D01*
X124532571Y-61776428D01*
X124484190Y-61824809D01*
X124435809Y-61921571D01*
X124387428Y-62115095D01*
X124339047Y-62211857D01*
X124290666Y-62260238D01*
X124193904Y-62308619D01*
X124097142Y-62308619D01*
X124000380Y-62260238D01*
X123952000Y-62211857D01*
X123903619Y-62115095D01*
X123903619Y-61873190D01*
X123952000Y-61728047D01*
X123903619Y-61389380D02*
X123903619Y-60760428D01*
X124290666Y-61099095D01*
X124290666Y-60953952D01*
X124339047Y-60857190D01*
X124387428Y-60808809D01*
X124484190Y-60760428D01*
X124726095Y-60760428D01*
X124822857Y-60808809D01*
X124871238Y-60857190D01*
X124919619Y-60953952D01*
X124919619Y-61244238D01*
X124871238Y-61341000D01*
X124822857Y-61389380D01*
X136095619Y-61256333D02*
X136095619Y-60675761D01*
X137111619Y-60966047D02*
X136095619Y-60966047D01*
X136095619Y-60482238D02*
X137111619Y-60143571D01*
X136095619Y-59804904D01*
X137063238Y-59514619D02*
X137111619Y-59369476D01*
X137111619Y-59127571D01*
X137063238Y-59030809D01*
X137014857Y-58982428D01*
X136918095Y-58934047D01*
X136821333Y-58934047D01*
X136724571Y-58982428D01*
X136676190Y-59030809D01*
X136627809Y-59127571D01*
X136579428Y-59321095D01*
X136531047Y-59417857D01*
X136482666Y-59466238D01*
X136385904Y-59514619D01*
X136289142Y-59514619D01*
X136192380Y-59466238D01*
X136144000Y-59417857D01*
X136095619Y-59321095D01*
X136095619Y-59079190D01*
X136144000Y-58934047D01*
X136434285Y-58063190D02*
X137111619Y-58063190D01*
X136047238Y-58305095D02*
X136772952Y-58547000D01*
X136772952Y-57918047D01*
X184416095Y-104714523D02*
X184416095Y-105742619D01*
X184476571Y-105863571D01*
X184537047Y-105924047D01*
X184658000Y-105984523D01*
X184899904Y-105984523D01*
X185020857Y-105924047D01*
X185081333Y-105863571D01*
X185141809Y-105742619D01*
X185141809Y-104714523D01*
X185686095Y-105924047D02*
X185867523Y-105984523D01*
X186169904Y-105984523D01*
X186290857Y-105924047D01*
X186351333Y-105863571D01*
X186411809Y-105742619D01*
X186411809Y-105621666D01*
X186351333Y-105500714D01*
X186290857Y-105440238D01*
X186169904Y-105379761D01*
X185928000Y-105319285D01*
X185807047Y-105258809D01*
X185746571Y-105198333D01*
X185686095Y-105077380D01*
X185686095Y-104956428D01*
X185746571Y-104835476D01*
X185807047Y-104775000D01*
X185928000Y-104714523D01*
X186230380Y-104714523D01*
X186411809Y-104775000D01*
X187379428Y-105319285D02*
X187560857Y-105379761D01*
X187621333Y-105440238D01*
X187681809Y-105561190D01*
X187681809Y-105742619D01*
X187621333Y-105863571D01*
X187560857Y-105924047D01*
X187439904Y-105984523D01*
X186956095Y-105984523D01*
X186956095Y-104714523D01*
X187379428Y-104714523D01*
X187500380Y-104775000D01*
X187560857Y-104835476D01*
X187621333Y-104956428D01*
X187621333Y-105077380D01*
X187560857Y-105198333D01*
X187500380Y-105258809D01*
X187379428Y-105319285D01*
X186956095Y-105319285D01*
X188226095Y-105500714D02*
X189193714Y-105500714D01*
X189798476Y-104714523D02*
X189798476Y-105742619D01*
X189858952Y-105863571D01*
X189919428Y-105924047D01*
X190040380Y-105984523D01*
X190282285Y-105984523D01*
X190403238Y-105924047D01*
X190463714Y-105863571D01*
X190524190Y-105742619D01*
X190524190Y-104714523D01*
X191068476Y-105621666D02*
X191673238Y-105621666D01*
X190947523Y-105984523D02*
X191370857Y-104714523D01*
X191794190Y-105984523D01*
X192943238Y-105984523D02*
X192519904Y-105379761D01*
X192217523Y-105984523D02*
X192217523Y-104714523D01*
X192701333Y-104714523D01*
X192822285Y-104775000D01*
X192882761Y-104835476D01*
X192943238Y-104956428D01*
X192943238Y-105137857D01*
X192882761Y-105258809D01*
X192822285Y-105319285D01*
X192701333Y-105379761D01*
X192217523Y-105379761D01*
X193306095Y-104714523D02*
X194031809Y-104714523D01*
X193668952Y-105984523D02*
X193668952Y-104714523D01*
X195120380Y-105984523D02*
X194394666Y-105984523D01*
X194757523Y-105984523D02*
X194757523Y-104714523D01*
X194636571Y-104895952D01*
X194515619Y-105016904D01*
X194394666Y-105077380D01*
D18*
X192996000Y-110887047D02*
X192971809Y-110935428D01*
X192971809Y-111008000D01*
X192996000Y-111080571D01*
X193044380Y-111128952D01*
X193092761Y-111153142D01*
X193189523Y-111177333D01*
X193262095Y-111177333D01*
X193358857Y-111153142D01*
X193407238Y-111128952D01*
X193455619Y-111080571D01*
X193479809Y-111008000D01*
X193479809Y-110959619D01*
X193455619Y-110887047D01*
X193431428Y-110862857D01*
X193262095Y-110862857D01*
X193262095Y-110959619D01*
X193479809Y-110645142D02*
X192971809Y-110645142D01*
X193479809Y-110354857D01*
X192971809Y-110354857D01*
X193479809Y-110112952D02*
X192971809Y-110112952D01*
X192971809Y-109992000D01*
X192996000Y-109919428D01*
X193044380Y-109871047D01*
X193092761Y-109846857D01*
X193189523Y-109822666D01*
X193262095Y-109822666D01*
X193358857Y-109846857D01*
X193407238Y-109871047D01*
X193455619Y-109919428D01*
X193479809Y-109992000D01*
X193479809Y-110112952D01*
X192221809Y-111681333D02*
X192729809Y-111512000D01*
X192221809Y-111342666D01*
X192463714Y-111004000D02*
X192487904Y-110931428D01*
X192512095Y-110907238D01*
X192560476Y-110883047D01*
X192633047Y-110883047D01*
X192681428Y-110907238D01*
X192705619Y-110931428D01*
X192729809Y-110979809D01*
X192729809Y-111173333D01*
X192221809Y-111173333D01*
X192221809Y-111004000D01*
X192246000Y-110955619D01*
X192270190Y-110931428D01*
X192318571Y-110907238D01*
X192366952Y-110907238D01*
X192415333Y-110931428D01*
X192439523Y-110955619D01*
X192463714Y-111004000D01*
X192463714Y-111173333D01*
X192221809Y-110665333D02*
X192633047Y-110665333D01*
X192681428Y-110641142D01*
X192705619Y-110616952D01*
X192729809Y-110568571D01*
X192729809Y-110471809D01*
X192705619Y-110423428D01*
X192681428Y-110399238D01*
X192633047Y-110375047D01*
X192221809Y-110375047D01*
X192705619Y-110157333D02*
X192729809Y-110084761D01*
X192729809Y-109963809D01*
X192705619Y-109915428D01*
X192681428Y-109891238D01*
X192633047Y-109867047D01*
X192584666Y-109867047D01*
X192536285Y-109891238D01*
X192512095Y-109915428D01*
X192487904Y-109963809D01*
X192463714Y-110060571D01*
X192439523Y-110108952D01*
X192415333Y-110133142D01*
X192366952Y-110157333D01*
X192318571Y-110157333D01*
X192270190Y-110133142D01*
X192246000Y-110108952D01*
X192221809Y-110060571D01*
X192221809Y-109939619D01*
X192246000Y-109867047D01*
X191931428Y-110838666D02*
X191955619Y-110862857D01*
X191979809Y-110935428D01*
X191979809Y-110983809D01*
X191955619Y-111056380D01*
X191907238Y-111104761D01*
X191858857Y-111128952D01*
X191762095Y-111153142D01*
X191689523Y-111153142D01*
X191592761Y-111128952D01*
X191544380Y-111104761D01*
X191496000Y-111056380D01*
X191471809Y-110983809D01*
X191471809Y-110935428D01*
X191496000Y-110862857D01*
X191520190Y-110838666D01*
X191931428Y-110330666D02*
X191955619Y-110354857D01*
X191979809Y-110427428D01*
X191979809Y-110475809D01*
X191955619Y-110548380D01*
X191907238Y-110596761D01*
X191858857Y-110620952D01*
X191762095Y-110645142D01*
X191689523Y-110645142D01*
X191592761Y-110620952D01*
X191544380Y-110596761D01*
X191496000Y-110548380D01*
X191471809Y-110475809D01*
X191471809Y-110427428D01*
X191496000Y-110354857D01*
X191520190Y-110330666D01*
X191520190Y-110137142D02*
X191496000Y-110112952D01*
X191471809Y-110064571D01*
X191471809Y-109943619D01*
X191496000Y-109895238D01*
X191520190Y-109871047D01*
X191568571Y-109846857D01*
X191616952Y-109846857D01*
X191689523Y-109871047D01*
X191979809Y-110161333D01*
X191979809Y-109846857D01*
X191455619Y-113407142D02*
X191479809Y-113334571D01*
X191479809Y-113213619D01*
X191455619Y-113165238D01*
X191431428Y-113141047D01*
X191383047Y-113116857D01*
X191334666Y-113116857D01*
X191286285Y-113141047D01*
X191262095Y-113165238D01*
X191237904Y-113213619D01*
X191213714Y-113310380D01*
X191189523Y-113358761D01*
X191165333Y-113382952D01*
X191116952Y-113407142D01*
X191068571Y-113407142D01*
X191020190Y-113382952D01*
X190996000Y-113358761D01*
X190971809Y-113310380D01*
X190971809Y-113189428D01*
X190996000Y-113116857D01*
X191213714Y-112729809D02*
X191237904Y-112657238D01*
X191262095Y-112633047D01*
X191310476Y-112608857D01*
X191383047Y-112608857D01*
X191431428Y-112633047D01*
X191455619Y-112657238D01*
X191479809Y-112705619D01*
X191479809Y-112899142D01*
X190971809Y-112899142D01*
X190971809Y-112729809D01*
X190996000Y-112681428D01*
X191020190Y-112657238D01*
X191068571Y-112633047D01*
X191116952Y-112633047D01*
X191165333Y-112657238D01*
X191189523Y-112681428D01*
X191213714Y-112729809D01*
X191213714Y-112899142D01*
X190971809Y-112391142D02*
X191383047Y-112391142D01*
X191431428Y-112366952D01*
X191455619Y-112342761D01*
X191479809Y-112294380D01*
X191479809Y-112197619D01*
X191455619Y-112149238D01*
X191431428Y-112125047D01*
X191383047Y-112100857D01*
X190971809Y-112100857D01*
X191479809Y-111592857D02*
X191479809Y-111883142D01*
X191479809Y-111738000D02*
X190971809Y-111738000D01*
X191044380Y-111786380D01*
X191092761Y-111834761D01*
X191116952Y-111883142D01*
X190979809Y-111128952D02*
X190471809Y-111128952D01*
X190471809Y-111008000D01*
X190496000Y-110935428D01*
X190544380Y-110887047D01*
X190592761Y-110862857D01*
X190689523Y-110838666D01*
X190762095Y-110838666D01*
X190858857Y-110862857D01*
X190907238Y-110887047D01*
X190955619Y-110935428D01*
X190979809Y-111008000D01*
X190979809Y-111128952D01*
X190979809Y-110620952D02*
X190471809Y-110620952D01*
X190471809Y-110427428D01*
X190496000Y-110379047D01*
X190520190Y-110354857D01*
X190568571Y-110330666D01*
X190641142Y-110330666D01*
X190689523Y-110354857D01*
X190713714Y-110379047D01*
X190737904Y-110427428D01*
X190737904Y-110620952D01*
X190520190Y-110137142D02*
X190496000Y-110112952D01*
X190471809Y-110064571D01*
X190471809Y-109943619D01*
X190496000Y-109895238D01*
X190520190Y-109871047D01*
X190568571Y-109846857D01*
X190616952Y-109846857D01*
X190689523Y-109871047D01*
X190979809Y-110161333D01*
X190979809Y-109846857D01*
X190479809Y-112891047D02*
X189971809Y-112891047D01*
X189971809Y-112770095D01*
X189996000Y-112697523D01*
X190044380Y-112649142D01*
X190092761Y-112624952D01*
X190189523Y-112600761D01*
X190262095Y-112600761D01*
X190358857Y-112624952D01*
X190407238Y-112649142D01*
X190455619Y-112697523D01*
X190479809Y-112770095D01*
X190479809Y-112891047D01*
X190479809Y-112383047D02*
X189971809Y-112383047D01*
X190479809Y-112092761D01*
X189971809Y-112092761D01*
X190479809Y-111584761D02*
X190479809Y-111875047D01*
X190479809Y-111729904D02*
X189971809Y-111729904D01*
X190044380Y-111778285D01*
X190092761Y-111826666D01*
X190116952Y-111875047D01*
X189979809Y-111128952D02*
X189471809Y-111128952D01*
X189471809Y-111008000D01*
X189496000Y-110935428D01*
X189544380Y-110887047D01*
X189592761Y-110862857D01*
X189689523Y-110838666D01*
X189762095Y-110838666D01*
X189858857Y-110862857D01*
X189907238Y-110887047D01*
X189955619Y-110935428D01*
X189979809Y-111008000D01*
X189979809Y-111128952D01*
X189979809Y-110620952D02*
X189471809Y-110620952D01*
X189471809Y-110427428D01*
X189496000Y-110379047D01*
X189520190Y-110354857D01*
X189568571Y-110330666D01*
X189641142Y-110330666D01*
X189689523Y-110354857D01*
X189713714Y-110379047D01*
X189737904Y-110427428D01*
X189737904Y-110620952D01*
X189979809Y-109846857D02*
X189979809Y-110137142D01*
X189979809Y-109992000D02*
X189471809Y-109992000D01*
X189544380Y-110040380D01*
X189592761Y-110088761D01*
X189616952Y-110137142D01*
X189479809Y-112891047D02*
X188971809Y-112891047D01*
X188971809Y-112770095D01*
X188996000Y-112697523D01*
X189044380Y-112649142D01*
X189092761Y-112624952D01*
X189189523Y-112600761D01*
X189262095Y-112600761D01*
X189358857Y-112624952D01*
X189407238Y-112649142D01*
X189455619Y-112697523D01*
X189479809Y-112770095D01*
X189479809Y-112891047D01*
X189479809Y-112383047D02*
X188971809Y-112383047D01*
X189479809Y-112092761D01*
X188971809Y-112092761D01*
X189020190Y-111875047D02*
X188996000Y-111850857D01*
X188971809Y-111802476D01*
X188971809Y-111681523D01*
X188996000Y-111633142D01*
X189020190Y-111608952D01*
X189068571Y-111584761D01*
X189116952Y-111584761D01*
X189189523Y-111608952D01*
X189479809Y-111899238D01*
X189479809Y-111584761D01*
X188931428Y-110838666D02*
X188955619Y-110862857D01*
X188979809Y-110935428D01*
X188979809Y-110983809D01*
X188955619Y-111056380D01*
X188907238Y-111104761D01*
X188858857Y-111128952D01*
X188762095Y-111153142D01*
X188689523Y-111153142D01*
X188592761Y-111128952D01*
X188544380Y-111104761D01*
X188496000Y-111056380D01*
X188471809Y-110983809D01*
X188471809Y-110935428D01*
X188496000Y-110862857D01*
X188520190Y-110838666D01*
X188931428Y-110330666D02*
X188955619Y-110354857D01*
X188979809Y-110427428D01*
X188979809Y-110475809D01*
X188955619Y-110548380D01*
X188907238Y-110596761D01*
X188858857Y-110620952D01*
X188762095Y-110645142D01*
X188689523Y-110645142D01*
X188592761Y-110620952D01*
X188544380Y-110596761D01*
X188496000Y-110548380D01*
X188471809Y-110475809D01*
X188471809Y-110427428D01*
X188496000Y-110354857D01*
X188520190Y-110330666D01*
X188979809Y-109846857D02*
X188979809Y-110137142D01*
X188979809Y-109992000D02*
X188471809Y-109992000D01*
X188544380Y-110040380D01*
X188592761Y-110088761D01*
X188616952Y-110137142D01*
X188455619Y-113407142D02*
X188479809Y-113334571D01*
X188479809Y-113213619D01*
X188455619Y-113165238D01*
X188431428Y-113141047D01*
X188383047Y-113116857D01*
X188334666Y-113116857D01*
X188286285Y-113141047D01*
X188262095Y-113165238D01*
X188237904Y-113213619D01*
X188213714Y-113310380D01*
X188189523Y-113358761D01*
X188165333Y-113382952D01*
X188116952Y-113407142D01*
X188068571Y-113407142D01*
X188020190Y-113382952D01*
X187996000Y-113358761D01*
X187971809Y-113310380D01*
X187971809Y-113189428D01*
X187996000Y-113116857D01*
X188213714Y-112729809D02*
X188237904Y-112657238D01*
X188262095Y-112633047D01*
X188310476Y-112608857D01*
X188383047Y-112608857D01*
X188431428Y-112633047D01*
X188455619Y-112657238D01*
X188479809Y-112705619D01*
X188479809Y-112899142D01*
X187971809Y-112899142D01*
X187971809Y-112729809D01*
X187996000Y-112681428D01*
X188020190Y-112657238D01*
X188068571Y-112633047D01*
X188116952Y-112633047D01*
X188165333Y-112657238D01*
X188189523Y-112681428D01*
X188213714Y-112729809D01*
X188213714Y-112899142D01*
X187971809Y-112391142D02*
X188383047Y-112391142D01*
X188431428Y-112366952D01*
X188455619Y-112342761D01*
X188479809Y-112294380D01*
X188479809Y-112197619D01*
X188455619Y-112149238D01*
X188431428Y-112125047D01*
X188383047Y-112100857D01*
X187971809Y-112100857D01*
X188020190Y-111883142D02*
X187996000Y-111858952D01*
X187971809Y-111810571D01*
X187971809Y-111689619D01*
X187996000Y-111641238D01*
X188020190Y-111617047D01*
X188068571Y-111592857D01*
X188116952Y-111592857D01*
X188189523Y-111617047D01*
X188479809Y-111907333D01*
X188479809Y-111592857D01*
X187221809Y-111681333D02*
X187729809Y-111512000D01*
X187221809Y-111342666D01*
X187463714Y-111004000D02*
X187487904Y-110931428D01*
X187512095Y-110907238D01*
X187560476Y-110883047D01*
X187633047Y-110883047D01*
X187681428Y-110907238D01*
X187705619Y-110931428D01*
X187729809Y-110979809D01*
X187729809Y-111173333D01*
X187221809Y-111173333D01*
X187221809Y-111004000D01*
X187246000Y-110955619D01*
X187270190Y-110931428D01*
X187318571Y-110907238D01*
X187366952Y-110907238D01*
X187415333Y-110931428D01*
X187439523Y-110955619D01*
X187463714Y-111004000D01*
X187463714Y-111173333D01*
X187221809Y-110665333D02*
X187633047Y-110665333D01*
X187681428Y-110641142D01*
X187705619Y-110616952D01*
X187729809Y-110568571D01*
X187729809Y-110471809D01*
X187705619Y-110423428D01*
X187681428Y-110399238D01*
X187633047Y-110375047D01*
X187221809Y-110375047D01*
X187705619Y-110157333D02*
X187729809Y-110084761D01*
X187729809Y-109963809D01*
X187705619Y-109915428D01*
X187681428Y-109891238D01*
X187633047Y-109867047D01*
X187584666Y-109867047D01*
X187536285Y-109891238D01*
X187512095Y-109915428D01*
X187487904Y-109963809D01*
X187463714Y-110060571D01*
X187439523Y-110108952D01*
X187415333Y-110133142D01*
X187366952Y-110157333D01*
X187318571Y-110157333D01*
X187270190Y-110133142D01*
X187246000Y-110108952D01*
X187221809Y-110060571D01*
X187221809Y-109939619D01*
X187246000Y-109867047D01*
X186496000Y-110887047D02*
X186471809Y-110935428D01*
X186471809Y-111008000D01*
X186496000Y-111080571D01*
X186544380Y-111128952D01*
X186592761Y-111153142D01*
X186689523Y-111177333D01*
X186762095Y-111177333D01*
X186858857Y-111153142D01*
X186907238Y-111128952D01*
X186955619Y-111080571D01*
X186979809Y-111008000D01*
X186979809Y-110959619D01*
X186955619Y-110887047D01*
X186931428Y-110862857D01*
X186762095Y-110862857D01*
X186762095Y-110959619D01*
X186979809Y-110645142D02*
X186471809Y-110645142D01*
X186979809Y-110354857D01*
X186471809Y-110354857D01*
X186979809Y-110112952D02*
X186471809Y-110112952D01*
X186471809Y-109992000D01*
X186496000Y-109919428D01*
X186544380Y-109871047D01*
X186592761Y-109846857D01*
X186689523Y-109822666D01*
X186762095Y-109822666D01*
X186858857Y-109846857D01*
X186907238Y-109871047D01*
X186955619Y-109919428D01*
X186979809Y-109992000D01*
X186979809Y-110112952D01*
X186056952Y-114584666D02*
X186298857Y-114584666D01*
X186008571Y-114729809D02*
X186177904Y-114221809D01*
X186347238Y-114729809D01*
X186734285Y-114391142D02*
X186734285Y-114729809D01*
X186613333Y-114197619D02*
X186492380Y-114560476D01*
X186806857Y-114560476D01*
X187097142Y-114221809D02*
X187145523Y-114221809D01*
X187193904Y-114246000D01*
X187218095Y-114270190D01*
X187242285Y-114318571D01*
X187266476Y-114415333D01*
X187266476Y-114536285D01*
X187242285Y-114633047D01*
X187218095Y-114681428D01*
X187193904Y-114705619D01*
X187145523Y-114729809D01*
X187097142Y-114729809D01*
X187048761Y-114705619D01*
X187024571Y-114681428D01*
X187000380Y-114633047D01*
X186976190Y-114536285D01*
X186976190Y-114415333D01*
X187000380Y-114318571D01*
X187024571Y-114270190D01*
X187048761Y-114246000D01*
X187097142Y-114221809D01*
X187484190Y-114536285D02*
X187871238Y-114536285D01*
X188209904Y-114221809D02*
X188258285Y-114221809D01*
X188306666Y-114246000D01*
X188330857Y-114270190D01*
X188355047Y-114318571D01*
X188379238Y-114415333D01*
X188379238Y-114536285D01*
X188355047Y-114633047D01*
X188330857Y-114681428D01*
X188306666Y-114705619D01*
X188258285Y-114729809D01*
X188209904Y-114729809D01*
X188161523Y-114705619D01*
X188137333Y-114681428D01*
X188113142Y-114633047D01*
X188088952Y-114536285D01*
X188088952Y-114415333D01*
X188113142Y-114318571D01*
X188137333Y-114270190D01*
X188161523Y-114246000D01*
X188209904Y-114221809D01*
X188693714Y-114221809D02*
X188742095Y-114221809D01*
X188790476Y-114246000D01*
X188814666Y-114270190D01*
X188838857Y-114318571D01*
X188863047Y-114415333D01*
X188863047Y-114536285D01*
X188838857Y-114633047D01*
X188814666Y-114681428D01*
X188790476Y-114705619D01*
X188742095Y-114729809D01*
X188693714Y-114729809D01*
X188645333Y-114705619D01*
X188621142Y-114681428D01*
X188596952Y-114633047D01*
X188572761Y-114536285D01*
X188572761Y-114415333D01*
X188596952Y-114318571D01*
X188621142Y-114270190D01*
X188645333Y-114246000D01*
X188693714Y-114221809D01*
X189346857Y-114729809D02*
X189056571Y-114729809D01*
X189201714Y-114729809D02*
X189201714Y-114221809D01*
X189153333Y-114294380D01*
X189104952Y-114342761D01*
X189056571Y-114366952D01*
X189830666Y-114729809D02*
X189540380Y-114729809D01*
X189685523Y-114729809D02*
X189685523Y-114221809D01*
X189637142Y-114294380D01*
X189588761Y-114342761D01*
X189540380Y-114366952D01*
X190072571Y-114729809D02*
X190169333Y-114729809D01*
X190217714Y-114705619D01*
X190241904Y-114681428D01*
X190290285Y-114608857D01*
X190314476Y-114512095D01*
X190314476Y-114318571D01*
X190290285Y-114270190D01*
X190266095Y-114246000D01*
X190217714Y-114221809D01*
X190120952Y-114221809D01*
X190072571Y-114246000D01*
X190048380Y-114270190D01*
X190024190Y-114318571D01*
X190024190Y-114439523D01*
X190048380Y-114487904D01*
X190072571Y-114512095D01*
X190120952Y-114536285D01*
X190217714Y-114536285D01*
X190266095Y-114512095D01*
X190290285Y-114487904D01*
X190314476Y-114439523D01*
X190532190Y-114536285D02*
X190919238Y-114536285D01*
X191136952Y-114584666D02*
X191378857Y-114584666D01*
X191088571Y-114729809D02*
X191257904Y-114221809D01*
X191427238Y-114729809D01*
X191838476Y-114221809D02*
X191596571Y-114221809D01*
X191572380Y-114463714D01*
X191596571Y-114439523D01*
X191644952Y-114415333D01*
X191765904Y-114415333D01*
X191814285Y-114439523D01*
X191838476Y-114463714D01*
X191862666Y-114512095D01*
X191862666Y-114633047D01*
X191838476Y-114681428D01*
X191814285Y-114705619D01*
X191765904Y-114729809D01*
X191644952Y-114729809D01*
X191596571Y-114705619D01*
X191572380Y-114681428D01*
X192056190Y-114270190D02*
X192080380Y-114246000D01*
X192128761Y-114221809D01*
X192249714Y-114221809D01*
X192298095Y-114246000D01*
X192322285Y-114270190D01*
X192346476Y-114318571D01*
X192346476Y-114366952D01*
X192322285Y-114439523D01*
X192032000Y-114729809D01*
X192346476Y-114729809D01*
X192564190Y-114536285D02*
X192951238Y-114536285D01*
X193459238Y-114729809D02*
X193168952Y-114729809D01*
X193314095Y-114729809D02*
X193314095Y-114221809D01*
X193265714Y-114294380D01*
X193217333Y-114342761D01*
X193168952Y-114366952D01*
X193652761Y-114270190D02*
X193676952Y-114246000D01*
X193725333Y-114221809D01*
X193846285Y-114221809D01*
X193894666Y-114246000D01*
X193918857Y-114270190D01*
X193943047Y-114318571D01*
X193943047Y-114366952D01*
X193918857Y-114439523D01*
X193628571Y-114729809D01*
X193943047Y-114729809D01*
D11*
X139657666Y-106280857D02*
X139609285Y-106329238D01*
X139464142Y-106377619D01*
X139367380Y-106377619D01*
X139222238Y-106329238D01*
X139125476Y-106232476D01*
X139077095Y-106135714D01*
X139028714Y-105942190D01*
X139028714Y-105797047D01*
X139077095Y-105603523D01*
X139125476Y-105506761D01*
X139222238Y-105410000D01*
X139367380Y-105361619D01*
X139464142Y-105361619D01*
X139609285Y-105410000D01*
X139657666Y-105458380D01*
X140625285Y-106377619D02*
X140044714Y-106377619D01*
X140335000Y-106377619D02*
X140335000Y-105361619D01*
X140238238Y-105506761D01*
X140141476Y-105603523D01*
X140044714Y-105651904D01*
X191243857Y-67352333D02*
X191292238Y-67400714D01*
X191340619Y-67545857D01*
X191340619Y-67642619D01*
X191292238Y-67787761D01*
X191195476Y-67884523D01*
X191098714Y-67932904D01*
X190905190Y-67981285D01*
X190760047Y-67981285D01*
X190566523Y-67932904D01*
X190469761Y-67884523D01*
X190373000Y-67787761D01*
X190324619Y-67642619D01*
X190324619Y-67545857D01*
X190373000Y-67400714D01*
X190421380Y-67352333D01*
X190421380Y-66965285D02*
X190373000Y-66916904D01*
X190324619Y-66820142D01*
X190324619Y-66578238D01*
X190373000Y-66481476D01*
X190421380Y-66433095D01*
X190518142Y-66384714D01*
X190614904Y-66384714D01*
X190760047Y-66433095D01*
X191340619Y-67013666D01*
X191340619Y-66384714D01*
X186393666Y-90532857D02*
X186345285Y-90581238D01*
X186200142Y-90629619D01*
X186103380Y-90629619D01*
X185958238Y-90581238D01*
X185861476Y-90484476D01*
X185813095Y-90387714D01*
X185764714Y-90194190D01*
X185764714Y-90049047D01*
X185813095Y-89855523D01*
X185861476Y-89758761D01*
X185958238Y-89662000D01*
X186103380Y-89613619D01*
X186200142Y-89613619D01*
X186345285Y-89662000D01*
X186393666Y-89710380D01*
X186732333Y-89613619D02*
X187361285Y-89613619D01*
X187022619Y-90000666D01*
X187167761Y-90000666D01*
X187264523Y-90049047D01*
X187312904Y-90097428D01*
X187361285Y-90194190D01*
X187361285Y-90436095D01*
X187312904Y-90532857D01*
X187264523Y-90581238D01*
X187167761Y-90629619D01*
X186877476Y-90629619D01*
X186780714Y-90581238D01*
X186732333Y-90532857D01*
X181821666Y-70085857D02*
X181773285Y-70134238D01*
X181628142Y-70182619D01*
X181531380Y-70182619D01*
X181386238Y-70134238D01*
X181289476Y-70037476D01*
X181241095Y-69940714D01*
X181192714Y-69747190D01*
X181192714Y-69602047D01*
X181241095Y-69408523D01*
X181289476Y-69311761D01*
X181386238Y-69215000D01*
X181531380Y-69166619D01*
X181628142Y-69166619D01*
X181773285Y-69215000D01*
X181821666Y-69263380D01*
X182692523Y-69505285D02*
X182692523Y-70182619D01*
X182450619Y-69118238D02*
X182208714Y-69843952D01*
X182837666Y-69843952D01*
X173336857Y-83354333D02*
X173385238Y-83402714D01*
X173433619Y-83547857D01*
X173433619Y-83644619D01*
X173385238Y-83789761D01*
X173288476Y-83886523D01*
X173191714Y-83934904D01*
X172998190Y-83983285D01*
X172853047Y-83983285D01*
X172659523Y-83934904D01*
X172562761Y-83886523D01*
X172466000Y-83789761D01*
X172417619Y-83644619D01*
X172417619Y-83547857D01*
X172466000Y-83402714D01*
X172514380Y-83354333D01*
X172417619Y-82435095D02*
X172417619Y-82918904D01*
X172901428Y-82967285D01*
X172853047Y-82918904D01*
X172804666Y-82822142D01*
X172804666Y-82580238D01*
X172853047Y-82483476D01*
X172901428Y-82435095D01*
X172998190Y-82386714D01*
X173240095Y-82386714D01*
X173336857Y-82435095D01*
X173385238Y-82483476D01*
X173433619Y-82580238D01*
X173433619Y-82822142D01*
X173385238Y-82918904D01*
X173336857Y-82967285D01*
X171558857Y-83354333D02*
X171607238Y-83402714D01*
X171655619Y-83547857D01*
X171655619Y-83644619D01*
X171607238Y-83789761D01*
X171510476Y-83886523D01*
X171413714Y-83934904D01*
X171220190Y-83983285D01*
X171075047Y-83983285D01*
X170881523Y-83934904D01*
X170784761Y-83886523D01*
X170688000Y-83789761D01*
X170639619Y-83644619D01*
X170639619Y-83547857D01*
X170688000Y-83402714D01*
X170736380Y-83354333D01*
X170639619Y-83015666D02*
X170639619Y-82338333D01*
X171655619Y-82773761D01*
X155048857Y-96501857D02*
X155000476Y-96550238D01*
X154855333Y-96598619D01*
X154758571Y-96598619D01*
X154613428Y-96550238D01*
X154516666Y-96453476D01*
X154468285Y-96356714D01*
X154419904Y-96163190D01*
X154419904Y-96018047D01*
X154468285Y-95824523D01*
X154516666Y-95727761D01*
X154613428Y-95631000D01*
X154758571Y-95582619D01*
X154855333Y-95582619D01*
X155000476Y-95631000D01*
X155048857Y-95679380D01*
X156016476Y-96598619D02*
X155435904Y-96598619D01*
X155726190Y-96598619D02*
X155726190Y-95582619D01*
X155629428Y-95727761D01*
X155532666Y-95824523D01*
X155435904Y-95872904D01*
X156403523Y-95679380D02*
X156451904Y-95631000D01*
X156548666Y-95582619D01*
X156790571Y-95582619D01*
X156887333Y-95631000D01*
X156935714Y-95679380D01*
X156984095Y-95776142D01*
X156984095Y-95872904D01*
X156935714Y-96018047D01*
X156355142Y-96598619D01*
X156984095Y-96598619D01*
X176257857Y-63264142D02*
X176306238Y-63312523D01*
X176354619Y-63457666D01*
X176354619Y-63554428D01*
X176306238Y-63699571D01*
X176209476Y-63796333D01*
X176112714Y-63844714D01*
X175919190Y-63893095D01*
X175774047Y-63893095D01*
X175580523Y-63844714D01*
X175483761Y-63796333D01*
X175387000Y-63699571D01*
X175338619Y-63554428D01*
X175338619Y-63457666D01*
X175387000Y-63312523D01*
X175435380Y-63264142D01*
X176354619Y-62296523D02*
X176354619Y-62877095D01*
X176354619Y-62586809D02*
X175338619Y-62586809D01*
X175483761Y-62683571D01*
X175580523Y-62780333D01*
X175628904Y-62877095D01*
X175338619Y-61957857D02*
X175338619Y-61328904D01*
X175725666Y-61667571D01*
X175725666Y-61522428D01*
X175774047Y-61425666D01*
X175822428Y-61377285D01*
X175919190Y-61328904D01*
X176161095Y-61328904D01*
X176257857Y-61377285D01*
X176306238Y-61425666D01*
X176354619Y-61522428D01*
X176354619Y-61812714D01*
X176306238Y-61909476D01*
X176257857Y-61957857D01*
X107677857Y-93199857D02*
X107629476Y-93248238D01*
X107484333Y-93296619D01*
X107387571Y-93296619D01*
X107242428Y-93248238D01*
X107145666Y-93151476D01*
X107097285Y-93054714D01*
X107048904Y-92861190D01*
X107048904Y-92716047D01*
X107097285Y-92522523D01*
X107145666Y-92425761D01*
X107242428Y-92329000D01*
X107387571Y-92280619D01*
X107484333Y-92280619D01*
X107629476Y-92329000D01*
X107677857Y-92377380D01*
X108645476Y-93296619D02*
X108064904Y-93296619D01*
X108355190Y-93296619D02*
X108355190Y-92280619D01*
X108258428Y-92425761D01*
X108161666Y-92522523D01*
X108064904Y-92570904D01*
X109516333Y-92619285D02*
X109516333Y-93296619D01*
X109274428Y-92232238D02*
X109032523Y-92957952D01*
X109661476Y-92957952D01*
X137903857Y-112286142D02*
X137952238Y-112334523D01*
X138000619Y-112479666D01*
X138000619Y-112576428D01*
X137952238Y-112721571D01*
X137855476Y-112818333D01*
X137758714Y-112866714D01*
X137565190Y-112915095D01*
X137420047Y-112915095D01*
X137226523Y-112866714D01*
X137129761Y-112818333D01*
X137033000Y-112721571D01*
X136984619Y-112576428D01*
X136984619Y-112479666D01*
X137033000Y-112334523D01*
X137081380Y-112286142D01*
X138000619Y-111318523D02*
X138000619Y-111899095D01*
X138000619Y-111608809D02*
X136984619Y-111608809D01*
X137129761Y-111705571D01*
X137226523Y-111802333D01*
X137274904Y-111899095D01*
X136984619Y-110979857D02*
X136984619Y-110302523D01*
X138000619Y-110737952D01*
X187941857Y-65677142D02*
X187990238Y-65725523D01*
X188038619Y-65870666D01*
X188038619Y-65967428D01*
X187990238Y-66112571D01*
X187893476Y-66209333D01*
X187796714Y-66257714D01*
X187603190Y-66306095D01*
X187458047Y-66306095D01*
X187264523Y-66257714D01*
X187167761Y-66209333D01*
X187071000Y-66112571D01*
X187022619Y-65967428D01*
X187022619Y-65870666D01*
X187071000Y-65725523D01*
X187119380Y-65677142D01*
X188038619Y-64709523D02*
X188038619Y-65290095D01*
X188038619Y-64999809D02*
X187022619Y-64999809D01*
X187167761Y-65096571D01*
X187264523Y-65193333D01*
X187312904Y-65290095D01*
X187458047Y-64128952D02*
X187409666Y-64225714D01*
X187361285Y-64274095D01*
X187264523Y-64322476D01*
X187216142Y-64322476D01*
X187119380Y-64274095D01*
X187071000Y-64225714D01*
X187022619Y-64128952D01*
X187022619Y-63935428D01*
X187071000Y-63838666D01*
X187119380Y-63790285D01*
X187216142Y-63741904D01*
X187264523Y-63741904D01*
X187361285Y-63790285D01*
X187409666Y-63838666D01*
X187458047Y-63935428D01*
X187458047Y-64128952D01*
X187506428Y-64225714D01*
X187554809Y-64274095D01*
X187651571Y-64322476D01*
X187845095Y-64322476D01*
X187941857Y-64274095D01*
X187990238Y-64225714D01*
X188038619Y-64128952D01*
X188038619Y-63935428D01*
X187990238Y-63838666D01*
X187941857Y-63790285D01*
X187845095Y-63741904D01*
X187651571Y-63741904D01*
X187554809Y-63790285D01*
X187506428Y-63838666D01*
X187458047Y-63935428D01*
X147428857Y-61957857D02*
X147380476Y-62006238D01*
X147235333Y-62054619D01*
X147138571Y-62054619D01*
X146993428Y-62006238D01*
X146896666Y-61909476D01*
X146848285Y-61812714D01*
X146799904Y-61619190D01*
X146799904Y-61474047D01*
X146848285Y-61280523D01*
X146896666Y-61183761D01*
X146993428Y-61087000D01*
X147138571Y-61038619D01*
X147235333Y-61038619D01*
X147380476Y-61087000D01*
X147428857Y-61135380D01*
X148396476Y-62054619D02*
X147815904Y-62054619D01*
X148106190Y-62054619D02*
X148106190Y-61038619D01*
X148009428Y-61183761D01*
X147912666Y-61280523D01*
X147815904Y-61328904D01*
X148880285Y-62054619D02*
X149073809Y-62054619D01*
X149170571Y-62006238D01*
X149218952Y-61957857D01*
X149315714Y-61812714D01*
X149364095Y-61619190D01*
X149364095Y-61232142D01*
X149315714Y-61135380D01*
X149267333Y-61087000D01*
X149170571Y-61038619D01*
X148977047Y-61038619D01*
X148880285Y-61087000D01*
X148831904Y-61135380D01*
X148783523Y-61232142D01*
X148783523Y-61474047D01*
X148831904Y-61570809D01*
X148880285Y-61619190D01*
X148977047Y-61667571D01*
X149170571Y-61667571D01*
X149267333Y-61619190D01*
X149315714Y-61570809D01*
X149364095Y-61474047D01*
X151365857Y-66656857D02*
X151317476Y-66705238D01*
X151172333Y-66753619D01*
X151075571Y-66753619D01*
X150930428Y-66705238D01*
X150833666Y-66608476D01*
X150785285Y-66511714D01*
X150736904Y-66318190D01*
X150736904Y-66173047D01*
X150785285Y-65979523D01*
X150833666Y-65882761D01*
X150930428Y-65786000D01*
X151075571Y-65737619D01*
X151172333Y-65737619D01*
X151317476Y-65786000D01*
X151365857Y-65834380D01*
X151752904Y-65834380D02*
X151801285Y-65786000D01*
X151898047Y-65737619D01*
X152139952Y-65737619D01*
X152236714Y-65786000D01*
X152285095Y-65834380D01*
X152333476Y-65931142D01*
X152333476Y-66027904D01*
X152285095Y-66173047D01*
X151704523Y-66753619D01*
X152333476Y-66753619D01*
X152962428Y-65737619D02*
X153059190Y-65737619D01*
X153155952Y-65786000D01*
X153204333Y-65834380D01*
X153252714Y-65931142D01*
X153301095Y-66124666D01*
X153301095Y-66366571D01*
X153252714Y-66560095D01*
X153204333Y-66656857D01*
X153155952Y-66705238D01*
X153059190Y-66753619D01*
X152962428Y-66753619D01*
X152865666Y-66705238D01*
X152817285Y-66656857D01*
X152768904Y-66560095D01*
X152720523Y-66366571D01*
X152720523Y-66124666D01*
X152768904Y-65931142D01*
X152817285Y-65834380D01*
X152865666Y-65786000D01*
X152962428Y-65737619D01*
X173590857Y-92474142D02*
X173639238Y-92522523D01*
X173687619Y-92667666D01*
X173687619Y-92764428D01*
X173639238Y-92909571D01*
X173542476Y-93006333D01*
X173445714Y-93054714D01*
X173252190Y-93103095D01*
X173107047Y-93103095D01*
X172913523Y-93054714D01*
X172816761Y-93006333D01*
X172720000Y-92909571D01*
X172671619Y-92764428D01*
X172671619Y-92667666D01*
X172720000Y-92522523D01*
X172768380Y-92474142D01*
X172768380Y-92087095D02*
X172720000Y-92038714D01*
X172671619Y-91941952D01*
X172671619Y-91700047D01*
X172720000Y-91603285D01*
X172768380Y-91554904D01*
X172865142Y-91506523D01*
X172961904Y-91506523D01*
X173107047Y-91554904D01*
X173687619Y-92135476D01*
X173687619Y-91506523D01*
X173687619Y-90538904D02*
X173687619Y-91119476D01*
X173687619Y-90829190D02*
X172671619Y-90829190D01*
X172816761Y-90925952D01*
X172913523Y-91022714D01*
X172961904Y-91119476D01*
X160921095Y-80088619D02*
X160921095Y-79072619D01*
X161163000Y-79072619D01*
X161308142Y-79121000D01*
X161404904Y-79217761D01*
X161453285Y-79314523D01*
X161501666Y-79508047D01*
X161501666Y-79653190D01*
X161453285Y-79846714D01*
X161404904Y-79943476D01*
X161308142Y-80040238D01*
X161163000Y-80088619D01*
X160921095Y-80088619D01*
X161840333Y-79072619D02*
X162469285Y-79072619D01*
X162130619Y-79459666D01*
X162275761Y-79459666D01*
X162372523Y-79508047D01*
X162420904Y-79556428D01*
X162469285Y-79653190D01*
X162469285Y-79895095D01*
X162420904Y-79991857D01*
X162372523Y-80040238D01*
X162275761Y-80088619D01*
X161985476Y-80088619D01*
X161888714Y-80040238D01*
X161840333Y-79991857D01*
X188353095Y-89232619D02*
X188353095Y-88216619D01*
X188595000Y-88216619D01*
X188740142Y-88265000D01*
X188836904Y-88361761D01*
X188885285Y-88458523D01*
X188933666Y-88652047D01*
X188933666Y-88797190D01*
X188885285Y-88990714D01*
X188836904Y-89087476D01*
X188740142Y-89184238D01*
X188595000Y-89232619D01*
X188353095Y-89232619D01*
X189804523Y-88555285D02*
X189804523Y-89232619D01*
X189562619Y-88168238D02*
X189320714Y-88893952D01*
X189949666Y-88893952D01*
X147205095Y-76278619D02*
X147205095Y-75262619D01*
X147447000Y-75262619D01*
X147592142Y-75311000D01*
X147688904Y-75407761D01*
X147737285Y-75504523D01*
X147785666Y-75698047D01*
X147785666Y-75843190D01*
X147737285Y-76036714D01*
X147688904Y-76133476D01*
X147592142Y-76230238D01*
X147447000Y-76278619D01*
X147205095Y-76278619D01*
X148704904Y-75262619D02*
X148221095Y-75262619D01*
X148172714Y-75746428D01*
X148221095Y-75698047D01*
X148317857Y-75649666D01*
X148559761Y-75649666D01*
X148656523Y-75698047D01*
X148704904Y-75746428D01*
X148753285Y-75843190D01*
X148753285Y-76085095D01*
X148704904Y-76181857D01*
X148656523Y-76230238D01*
X148559761Y-76278619D01*
X148317857Y-76278619D01*
X148221095Y-76230238D01*
X148172714Y-76181857D01*
X153042095Y-68531619D02*
X153042095Y-67515619D01*
X153284000Y-67515619D01*
X153429142Y-67564000D01*
X153525904Y-67660761D01*
X153574285Y-67757523D01*
X153622666Y-67951047D01*
X153622666Y-68096190D01*
X153574285Y-68289714D01*
X153525904Y-68386476D01*
X153429142Y-68483238D01*
X153284000Y-68531619D01*
X153042095Y-68531619D01*
X154493523Y-67515619D02*
X154300000Y-67515619D01*
X154203238Y-67564000D01*
X154154857Y-67612380D01*
X154058095Y-67757523D01*
X154009714Y-67951047D01*
X154009714Y-68338095D01*
X154058095Y-68434857D01*
X154106476Y-68483238D01*
X154203238Y-68531619D01*
X154396761Y-68531619D01*
X154493523Y-68483238D01*
X154541904Y-68434857D01*
X154590285Y-68338095D01*
X154590285Y-68096190D01*
X154541904Y-67999428D01*
X154493523Y-67951047D01*
X154396761Y-67902666D01*
X154203238Y-67902666D01*
X154106476Y-67951047D01*
X154058095Y-67999428D01*
X154009714Y-68096190D01*
X154581238Y-72865380D02*
X154476476Y-72813000D01*
X154371714Y-72708238D01*
X154214571Y-72551095D01*
X154109809Y-72498714D01*
X154005047Y-72498714D01*
X154057428Y-72760619D02*
X153952666Y-72708238D01*
X153847904Y-72603476D01*
X153795523Y-72393952D01*
X153795523Y-72027285D01*
X153847904Y-71817761D01*
X153952666Y-71713000D01*
X154057428Y-71660619D01*
X154266952Y-71660619D01*
X154371714Y-71713000D01*
X154476476Y-71817761D01*
X154528857Y-72027285D01*
X154528857Y-72393952D01*
X154476476Y-72603476D01*
X154371714Y-72708238D01*
X154266952Y-72760619D01*
X154057428Y-72760619D01*
X154895523Y-71660619D02*
X155576476Y-71660619D01*
X155209809Y-72079666D01*
X155366952Y-72079666D01*
X155471714Y-72132047D01*
X155524095Y-72184428D01*
X155576476Y-72289190D01*
X155576476Y-72551095D01*
X155524095Y-72655857D01*
X155471714Y-72708238D01*
X155366952Y-72760619D01*
X155052666Y-72760619D01*
X154947904Y-72708238D01*
X154895523Y-72655857D01*
X173439666Y-78183619D02*
X173101000Y-77699809D01*
X172859095Y-78183619D02*
X172859095Y-77167619D01*
X173246142Y-77167619D01*
X173342904Y-77216000D01*
X173391285Y-77264380D01*
X173439666Y-77361142D01*
X173439666Y-77506285D01*
X173391285Y-77603047D01*
X173342904Y-77651428D01*
X173246142Y-77699809D01*
X172859095Y-77699809D01*
X173923476Y-78183619D02*
X174117000Y-78183619D01*
X174213761Y-78135238D01*
X174262142Y-78086857D01*
X174358904Y-77941714D01*
X174407285Y-77748190D01*
X174407285Y-77361142D01*
X174358904Y-77264380D01*
X174310523Y-77216000D01*
X174213761Y-77167619D01*
X174020238Y-77167619D01*
X173923476Y-77216000D01*
X173875095Y-77264380D01*
X173826714Y-77361142D01*
X173826714Y-77603047D01*
X173875095Y-77699809D01*
X173923476Y-77748190D01*
X174020238Y-77796571D01*
X174213761Y-77796571D01*
X174310523Y-77748190D01*
X174358904Y-77699809D01*
X174407285Y-77603047D01*
X188292619Y-80560333D02*
X187808809Y-80899000D01*
X188292619Y-81140904D02*
X187276619Y-81140904D01*
X187276619Y-80753857D01*
X187325000Y-80657095D01*
X187373380Y-80608714D01*
X187470142Y-80560333D01*
X187615285Y-80560333D01*
X187712047Y-80608714D01*
X187760428Y-80657095D01*
X187808809Y-80753857D01*
X187808809Y-81140904D01*
X187276619Y-80221666D02*
X187276619Y-79544333D01*
X188292619Y-79979761D01*
X173336857Y-76532619D02*
X172998190Y-76048809D01*
X172756285Y-76532619D02*
X172756285Y-75516619D01*
X173143333Y-75516619D01*
X173240095Y-75565000D01*
X173288476Y-75613380D01*
X173336857Y-75710142D01*
X173336857Y-75855285D01*
X173288476Y-75952047D01*
X173240095Y-76000428D01*
X173143333Y-76048809D01*
X172756285Y-76048809D01*
X174304476Y-76532619D02*
X173723904Y-76532619D01*
X174014190Y-76532619D02*
X174014190Y-75516619D01*
X173917428Y-75661761D01*
X173820666Y-75758523D01*
X173723904Y-75806904D01*
X175272095Y-76532619D02*
X174691523Y-76532619D01*
X174981809Y-76532619D02*
X174981809Y-75516619D01*
X174885047Y-75661761D01*
X174788285Y-75758523D01*
X174691523Y-75806904D01*
X144955380Y-93157523D02*
X144955380Y-94185619D01*
X145015857Y-94306571D01*
X145076333Y-94367047D01*
X145197285Y-94427523D01*
X145439190Y-94427523D01*
X145560142Y-94367047D01*
X145620619Y-94306571D01*
X145681095Y-94185619D01*
X145681095Y-93157523D01*
X146951095Y-94427523D02*
X146225380Y-94427523D01*
X146588238Y-94427523D02*
X146588238Y-93157523D01*
X146467285Y-93338952D01*
X146346333Y-93459904D01*
X146225380Y-93520380D01*
X143461619Y-94560571D02*
X143413238Y-94657333D01*
X143364857Y-94705714D01*
X143268095Y-94754095D01*
X142977809Y-94754095D01*
X142881047Y-94705714D01*
X142832666Y-94657333D01*
X142784285Y-94560571D01*
X142784285Y-94415428D01*
X142832666Y-94318666D01*
X142881047Y-94270285D01*
X142977809Y-94221904D01*
X143268095Y-94221904D01*
X143364857Y-94270285D01*
X143413238Y-94318666D01*
X143461619Y-94415428D01*
X143461619Y-94560571D01*
D25*
X146157142Y-101387857D02*
X146157142Y-100873571D01*
X147057142Y-101130714D02*
X146157142Y-101130714D01*
X147014285Y-100616428D02*
X147057142Y-100487857D01*
X147057142Y-100273571D01*
X147014285Y-100187857D01*
X146971428Y-100145000D01*
X146885714Y-100102142D01*
X146800000Y-100102142D01*
X146714285Y-100145000D01*
X146671428Y-100187857D01*
X146628571Y-100273571D01*
X146585714Y-100445000D01*
X146542857Y-100530714D01*
X146500000Y-100573571D01*
X146414285Y-100616428D01*
X146328571Y-100616428D01*
X146242857Y-100573571D01*
X146200000Y-100530714D01*
X146157142Y-100445000D01*
X146157142Y-100230714D01*
X146200000Y-100102142D01*
X147014285Y-99759285D02*
X147057142Y-99630714D01*
X147057142Y-99416428D01*
X147014285Y-99330714D01*
X146971428Y-99287857D01*
X146885714Y-99245000D01*
X146800000Y-99245000D01*
X146714285Y-99287857D01*
X146671428Y-99330714D01*
X146628571Y-99416428D01*
X146585714Y-99587857D01*
X146542857Y-99673571D01*
X146500000Y-99716428D01*
X146414285Y-99759285D01*
X146328571Y-99759285D01*
X146242857Y-99716428D01*
X146200000Y-99673571D01*
X146157142Y-99587857D01*
X146157142Y-99373571D01*
X146200000Y-99245000D01*
X146157142Y-98687857D02*
X146157142Y-98516428D01*
X146200000Y-98430714D01*
X146285714Y-98345000D01*
X146457142Y-98302142D01*
X146757142Y-98302142D01*
X146928571Y-98345000D01*
X147014285Y-98430714D01*
X147057142Y-98516428D01*
X147057142Y-98687857D01*
X147014285Y-98773571D01*
X146928571Y-98859285D01*
X146757142Y-98902142D01*
X146457142Y-98902142D01*
X146285714Y-98859285D01*
X146200000Y-98773571D01*
X146157142Y-98687857D01*
X147057142Y-97916428D02*
X146157142Y-97916428D01*
X146157142Y-97573571D01*
X146200000Y-97487857D01*
X146242857Y-97445000D01*
X146328571Y-97402142D01*
X146457142Y-97402142D01*
X146542857Y-97445000D01*
X146585714Y-97487857D01*
X146628571Y-97573571D01*
X146628571Y-97916428D01*
X146242857Y-97059285D02*
X146200000Y-97016428D01*
X146157142Y-96930714D01*
X146157142Y-96716428D01*
X146200000Y-96630714D01*
X146242857Y-96587857D01*
X146328571Y-96545000D01*
X146414285Y-96545000D01*
X146542857Y-96587857D01*
X147057142Y-97102142D01*
X147057142Y-96545000D01*
X146157142Y-95987857D02*
X146157142Y-95902142D01*
X146200000Y-95816428D01*
X146242857Y-95773571D01*
X146328571Y-95730714D01*
X146500000Y-95687857D01*
X146714285Y-95687857D01*
X146885714Y-95730714D01*
X146971428Y-95773571D01*
X147014285Y-95816428D01*
X147057142Y-95902142D01*
X147057142Y-95987857D01*
X147014285Y-96073571D01*
X146971428Y-96116428D01*
X146885714Y-96159285D01*
X146714285Y-96202142D01*
X146500000Y-96202142D01*
X146328571Y-96159285D01*
X146242857Y-96116428D01*
X146200000Y-96073571D01*
X146157142Y-95987857D01*
D11*
X193154904Y-61673619D02*
X193154904Y-62496095D01*
X193203285Y-62592857D01*
X193251666Y-62641238D01*
X193348428Y-62689619D01*
X193541952Y-62689619D01*
X193638714Y-62641238D01*
X193687095Y-62592857D01*
X193735476Y-62496095D01*
X193735476Y-61673619D01*
X194170904Y-61770380D02*
X194219285Y-61722000D01*
X194316047Y-61673619D01*
X194557952Y-61673619D01*
X194654714Y-61722000D01*
X194703095Y-61770380D01*
X194751476Y-61867142D01*
X194751476Y-61963904D01*
X194703095Y-62109047D01*
X194122523Y-62689619D01*
X194751476Y-62689619D01*
X191376904Y-102313619D02*
X191376904Y-103136095D01*
X191425285Y-103232857D01*
X191473666Y-103281238D01*
X191570428Y-103329619D01*
X191763952Y-103329619D01*
X191860714Y-103281238D01*
X191909095Y-103232857D01*
X191957476Y-103136095D01*
X191957476Y-102313619D01*
X192344523Y-102313619D02*
X192973476Y-102313619D01*
X192634809Y-102700666D01*
X192779952Y-102700666D01*
X192876714Y-102749047D01*
X192925095Y-102797428D01*
X192973476Y-102894190D01*
X192973476Y-103136095D01*
X192925095Y-103232857D01*
X192876714Y-103281238D01*
X192779952Y-103329619D01*
X192489666Y-103329619D01*
X192392904Y-103281238D01*
X192344523Y-103232857D01*
X191062428Y-101835619D02*
X190965666Y-101787238D01*
X190917285Y-101738857D01*
X190868904Y-101642095D01*
X190868904Y-101351809D01*
X190917285Y-101255047D01*
X190965666Y-101206666D01*
X191062428Y-101158285D01*
X191207571Y-101158285D01*
X191304333Y-101206666D01*
X191352714Y-101255047D01*
X191401095Y-101351809D01*
X191401095Y-101642095D01*
X191352714Y-101738857D01*
X191304333Y-101787238D01*
X191207571Y-101835619D01*
X191062428Y-101835619D01*
X186768619Y-96659095D02*
X187591095Y-96659095D01*
X187687857Y-96610714D01*
X187736238Y-96562333D01*
X187784619Y-96465571D01*
X187784619Y-96272047D01*
X187736238Y-96175285D01*
X187687857Y-96126904D01*
X187591095Y-96078523D01*
X186768619Y-96078523D01*
X187107285Y-95159285D02*
X187784619Y-95159285D01*
X186720238Y-95401190D02*
X187445952Y-95643095D01*
X187445952Y-95014142D01*
X180672619Y-75450095D02*
X181495095Y-75450095D01*
X181591857Y-75401714D01*
X181640238Y-75353333D01*
X181688619Y-75256571D01*
X181688619Y-75063047D01*
X181640238Y-74966285D01*
X181591857Y-74917904D01*
X181495095Y-74869523D01*
X180672619Y-74869523D01*
X180672619Y-73901904D02*
X180672619Y-74385714D01*
X181156428Y-74434095D01*
X181108047Y-74385714D01*
X181059666Y-74288952D01*
X181059666Y-74047047D01*
X181108047Y-73950285D01*
X181156428Y-73901904D01*
X181253190Y-73853523D01*
X181495095Y-73853523D01*
X181591857Y-73901904D01*
X181640238Y-73950285D01*
X181688619Y-74047047D01*
X181688619Y-74288952D01*
X181640238Y-74385714D01*
X181591857Y-74434095D01*
X167246904Y-71198619D02*
X167246904Y-72021095D01*
X167295285Y-72117857D01*
X167343666Y-72166238D01*
X167440428Y-72214619D01*
X167633952Y-72214619D01*
X167730714Y-72166238D01*
X167779095Y-72117857D01*
X167827476Y-72021095D01*
X167827476Y-71198619D01*
X168214523Y-71198619D02*
X168891857Y-71198619D01*
X168456428Y-72214619D01*
X109776380Y-62677523D02*
X109776380Y-63705619D01*
X109836857Y-63826571D01*
X109897333Y-63887047D01*
X110018285Y-63947523D01*
X110260190Y-63947523D01*
X110381142Y-63887047D01*
X110441619Y-63826571D01*
X110502095Y-63705619D01*
X110502095Y-62677523D01*
X111288285Y-63221809D02*
X111167333Y-63161333D01*
X111106857Y-63100857D01*
X111046380Y-62979904D01*
X111046380Y-62919428D01*
X111106857Y-62798476D01*
X111167333Y-62738000D01*
X111288285Y-62677523D01*
X111530190Y-62677523D01*
X111651142Y-62738000D01*
X111711619Y-62798476D01*
X111772095Y-62919428D01*
X111772095Y-62979904D01*
X111711619Y-63100857D01*
X111651142Y-63161333D01*
X111530190Y-63221809D01*
X111288285Y-63221809D01*
X111167333Y-63282285D01*
X111106857Y-63342761D01*
X111046380Y-63463714D01*
X111046380Y-63705619D01*
X111106857Y-63826571D01*
X111167333Y-63887047D01*
X111288285Y-63947523D01*
X111530190Y-63947523D01*
X111651142Y-63887047D01*
X111711619Y-63826571D01*
X111772095Y-63705619D01*
X111772095Y-63463714D01*
X111711619Y-63342761D01*
X111651142Y-63282285D01*
X111530190Y-63221809D01*
X109921523Y-85815714D02*
X109861047Y-85936666D01*
X109800571Y-85997142D01*
X109679619Y-86057619D01*
X109316761Y-86057619D01*
X109195809Y-85997142D01*
X109135333Y-85936666D01*
X109074857Y-85815714D01*
X109074857Y-85634285D01*
X109135333Y-85513333D01*
X109195809Y-85452857D01*
X109316761Y-85392380D01*
X109679619Y-85392380D01*
X109800571Y-85452857D01*
X109861047Y-85513333D01*
X109921523Y-85634285D01*
X109921523Y-85815714D01*
X104411666Y-78507619D02*
X104411666Y-77902857D01*
X104774523Y-78628571D02*
X103504523Y-78205238D01*
X104774523Y-77781904D01*
X103927857Y-77358571D02*
X104774523Y-77358571D01*
X104048809Y-77358571D02*
X103988333Y-77298095D01*
X103927857Y-77177142D01*
X103927857Y-76995714D01*
X103988333Y-76874761D01*
X104109285Y-76814285D01*
X104774523Y-76814285D01*
X103927857Y-76390952D02*
X103927857Y-75907142D01*
X103504523Y-76209523D02*
X104593095Y-76209523D01*
X104714047Y-76149047D01*
X104774523Y-76028095D01*
X104774523Y-75907142D01*
X104714047Y-75000000D02*
X104774523Y-75120952D01*
X104774523Y-75362857D01*
X104714047Y-75483809D01*
X104593095Y-75544285D01*
X104109285Y-75544285D01*
X103988333Y-75483809D01*
X103927857Y-75362857D01*
X103927857Y-75120952D01*
X103988333Y-75000000D01*
X104109285Y-74939523D01*
X104230238Y-74939523D01*
X104351190Y-75544285D01*
X103927857Y-74395238D02*
X104774523Y-74395238D01*
X104048809Y-74395238D02*
X103988333Y-74334761D01*
X103927857Y-74213809D01*
X103927857Y-74032380D01*
X103988333Y-73911428D01*
X104109285Y-73850952D01*
X104774523Y-73850952D01*
X103927857Y-73246190D02*
X104774523Y-73246190D01*
X104048809Y-73246190D02*
X103988333Y-73185714D01*
X103927857Y-73064761D01*
X103927857Y-72883333D01*
X103988333Y-72762380D01*
X104109285Y-72701904D01*
X104774523Y-72701904D01*
X104774523Y-71552857D02*
X104109285Y-71552857D01*
X103988333Y-71613333D01*
X103927857Y-71734285D01*
X103927857Y-71976190D01*
X103988333Y-72097142D01*
X104714047Y-71552857D02*
X104774523Y-71673809D01*
X104774523Y-71976190D01*
X104714047Y-72097142D01*
X104593095Y-72157619D01*
X104472142Y-72157619D01*
X104351190Y-72097142D01*
X104290714Y-71976190D01*
X104290714Y-71673809D01*
X104230238Y-71552857D01*
X108604619Y-81059714D02*
X108604619Y-81640285D01*
X108604619Y-81350000D02*
X107588619Y-81350000D01*
X107733761Y-81446761D01*
X107830523Y-81543523D01*
X107878904Y-81640285D01*
X131464619Y-80908523D02*
X131464619Y-81489095D01*
X131464619Y-81198809D02*
X130448619Y-81198809D01*
X130593761Y-81295571D01*
X130690523Y-81392333D01*
X130738904Y-81489095D01*
X131464619Y-80424714D02*
X131464619Y-80231190D01*
X131416238Y-80134428D01*
X131367857Y-80086047D01*
X131222714Y-79989285D01*
X131029190Y-79940904D01*
X130642142Y-79940904D01*
X130545380Y-79989285D01*
X130497000Y-80037666D01*
X130448619Y-80134428D01*
X130448619Y-80327952D01*
X130497000Y-80424714D01*
X130545380Y-80473095D01*
X130642142Y-80521476D01*
X130884047Y-80521476D01*
X130980809Y-80473095D01*
X131029190Y-80424714D01*
X131077571Y-80327952D01*
X131077571Y-80134428D01*
X131029190Y-80037666D01*
X130980809Y-79989285D01*
X130884047Y-79940904D01*
X130545380Y-70059095D02*
X130497000Y-70010714D01*
X130448619Y-69913952D01*
X130448619Y-69672047D01*
X130497000Y-69575285D01*
X130545380Y-69526904D01*
X130642142Y-69478523D01*
X130738904Y-69478523D01*
X130884047Y-69526904D01*
X131464619Y-70107476D01*
X131464619Y-69478523D01*
X130448619Y-68849571D02*
X130448619Y-68752809D01*
X130497000Y-68656047D01*
X130545380Y-68607666D01*
X130642142Y-68559285D01*
X130835666Y-68510904D01*
X131077571Y-68510904D01*
X131271095Y-68559285D01*
X131367857Y-68607666D01*
X131416238Y-68656047D01*
X131464619Y-68752809D01*
X131464619Y-68849571D01*
X131416238Y-68946333D01*
X131367857Y-68994714D01*
X131271095Y-69043095D01*
X131077571Y-69091476D01*
X130835666Y-69091476D01*
X130642142Y-69043095D01*
X130545380Y-68994714D01*
X130497000Y-68946333D01*
X130448619Y-68849571D01*
X107588619Y-70107476D02*
X107588619Y-69478523D01*
X107975666Y-69817190D01*
X107975666Y-69672047D01*
X108024047Y-69575285D01*
X108072428Y-69526904D01*
X108169190Y-69478523D01*
X108411095Y-69478523D01*
X108507857Y-69526904D01*
X108556238Y-69575285D01*
X108604619Y-69672047D01*
X108604619Y-69962333D01*
X108556238Y-70059095D01*
X108507857Y-70107476D01*
X108024047Y-68897952D02*
X107975666Y-68994714D01*
X107927285Y-69043095D01*
X107830523Y-69091476D01*
X107782142Y-69091476D01*
X107685380Y-69043095D01*
X107637000Y-68994714D01*
X107588619Y-68897952D01*
X107588619Y-68704428D01*
X107637000Y-68607666D01*
X107685380Y-68559285D01*
X107782142Y-68510904D01*
X107830523Y-68510904D01*
X107927285Y-68559285D01*
X107975666Y-68607666D01*
X108024047Y-68704428D01*
X108024047Y-68897952D01*
X108072428Y-68994714D01*
X108120809Y-69043095D01*
X108217571Y-69091476D01*
X108411095Y-69091476D01*
X108507857Y-69043095D01*
X108556238Y-68994714D01*
X108604619Y-68897952D01*
X108604619Y-68704428D01*
X108556238Y-68607666D01*
X108507857Y-68559285D01*
X108411095Y-68510904D01*
X108217571Y-68510904D01*
X108120809Y-68559285D01*
X108072428Y-68607666D01*
X108024047Y-68704428D01*
X123191476Y-81174619D02*
X122610904Y-81174619D01*
X122901190Y-81174619D02*
X122901190Y-80158619D01*
X122804428Y-80303761D01*
X122707666Y-80400523D01*
X122610904Y-80448904D01*
X124110714Y-80158619D02*
X123626904Y-80158619D01*
X123578523Y-80642428D01*
X123626904Y-80594047D01*
X123723666Y-80545666D01*
X123965571Y-80545666D01*
X124062333Y-80594047D01*
X124110714Y-80642428D01*
X124159095Y-80739190D01*
X124159095Y-80981095D01*
X124110714Y-81077857D01*
X124062333Y-81126238D01*
X123965571Y-81174619D01*
X123723666Y-81174619D01*
X123626904Y-81126238D01*
X123578523Y-81077857D01*
X122610904Y-68825380D02*
X122659285Y-68777000D01*
X122756047Y-68728619D01*
X122997952Y-68728619D01*
X123094714Y-68777000D01*
X123143095Y-68825380D01*
X123191476Y-68922142D01*
X123191476Y-69018904D01*
X123143095Y-69164047D01*
X122562523Y-69744619D01*
X123191476Y-69744619D01*
X124062333Y-69067285D02*
X124062333Y-69744619D01*
X123820428Y-68680238D02*
X123578523Y-69405952D01*
X124207476Y-69405952D01*
X122464285Y-105984523D02*
X122464285Y-107012619D01*
X122524761Y-107133571D01*
X122585238Y-107194047D01*
X122706190Y-107254523D01*
X122948095Y-107254523D01*
X123069047Y-107194047D01*
X123129523Y-107133571D01*
X123190000Y-107012619D01*
X123190000Y-105984523D01*
X123794761Y-106589285D02*
X124218095Y-106589285D01*
X124399523Y-107254523D02*
X123794761Y-107254523D01*
X123794761Y-105984523D01*
X124399523Y-105984523D01*
X124822857Y-105984523D02*
X125669523Y-107254523D01*
X125669523Y-105984523D02*
X124822857Y-107254523D01*
X125971904Y-105984523D02*
X126697619Y-105984523D01*
X126334761Y-107254523D02*
X126334761Y-105984523D01*
X127786190Y-107254523D02*
X127060476Y-107254523D01*
X127423333Y-107254523D02*
X127423333Y-105984523D01*
X127302380Y-106165952D01*
X127181428Y-106286904D01*
X127060476Y-106347380D01*
X113743619Y-87140142D02*
X113259809Y-87478809D01*
X113743619Y-87720714D02*
X112727619Y-87720714D01*
X112727619Y-87333666D01*
X112776000Y-87236904D01*
X112824380Y-87188523D01*
X112921142Y-87140142D01*
X113066285Y-87140142D01*
X113163047Y-87188523D01*
X113211428Y-87236904D01*
X113259809Y-87333666D01*
X113259809Y-87720714D01*
X112824380Y-86753095D02*
X112776000Y-86704714D01*
X112727619Y-86607952D01*
X112727619Y-86366047D01*
X112776000Y-86269285D01*
X112824380Y-86220904D01*
X112921142Y-86172523D01*
X113017904Y-86172523D01*
X113163047Y-86220904D01*
X113743619Y-86801476D01*
X113743619Y-86172523D01*
X113743619Y-85204904D02*
X113743619Y-85785476D01*
X113743619Y-85495190D02*
X112727619Y-85495190D01*
X112872761Y-85591952D01*
X112969523Y-85688714D01*
X113017904Y-85785476D01*
X128221619Y-64026142D02*
X127737809Y-64364809D01*
X128221619Y-64606714D02*
X127205619Y-64606714D01*
X127205619Y-64219666D01*
X127254000Y-64122904D01*
X127302380Y-64074523D01*
X127399142Y-64026142D01*
X127544285Y-64026142D01*
X127641047Y-64074523D01*
X127689428Y-64122904D01*
X127737809Y-64219666D01*
X127737809Y-64606714D01*
X127302380Y-63639095D02*
X127254000Y-63590714D01*
X127205619Y-63493952D01*
X127205619Y-63252047D01*
X127254000Y-63155285D01*
X127302380Y-63106904D01*
X127399142Y-63058523D01*
X127495904Y-63058523D01*
X127641047Y-63106904D01*
X128221619Y-63687476D01*
X128221619Y-63058523D01*
X127205619Y-62187666D02*
X127205619Y-62381190D01*
X127254000Y-62477952D01*
X127302380Y-62526333D01*
X127447523Y-62623095D01*
X127641047Y-62671476D01*
X128028095Y-62671476D01*
X128124857Y-62623095D01*
X128173238Y-62574714D01*
X128221619Y-62477952D01*
X128221619Y-62284428D01*
X128173238Y-62187666D01*
X128124857Y-62139285D01*
X128028095Y-62090904D01*
X127786190Y-62090904D01*
X127689428Y-62139285D01*
X127641047Y-62187666D01*
X127592666Y-62284428D01*
X127592666Y-62477952D01*
X127641047Y-62574714D01*
X127689428Y-62623095D01*
X127786190Y-62671476D01*
X129999619Y-63899142D02*
X129515809Y-64237809D01*
X129999619Y-64479714D02*
X128983619Y-64479714D01*
X128983619Y-64092666D01*
X129032000Y-63995904D01*
X129080380Y-63947523D01*
X129177142Y-63899142D01*
X129322285Y-63899142D01*
X129419047Y-63947523D01*
X129467428Y-63995904D01*
X129515809Y-64092666D01*
X129515809Y-64479714D01*
X129080380Y-63512095D02*
X129032000Y-63463714D01*
X128983619Y-63366952D01*
X128983619Y-63125047D01*
X129032000Y-63028285D01*
X129080380Y-62979904D01*
X129177142Y-62931523D01*
X129273904Y-62931523D01*
X129419047Y-62979904D01*
X129999619Y-63560476D01*
X129999619Y-62931523D01*
X128983619Y-62592857D02*
X128983619Y-61915523D01*
X129999619Y-62350952D01*
X177116619Y-93617142D02*
X176632809Y-93955809D01*
X177116619Y-94197714D02*
X176100619Y-94197714D01*
X176100619Y-93810666D01*
X176149000Y-93713904D01*
X176197380Y-93665523D01*
X176294142Y-93617142D01*
X176439285Y-93617142D01*
X176536047Y-93665523D01*
X176584428Y-93713904D01*
X176632809Y-93810666D01*
X176632809Y-94197714D01*
X176439285Y-92746285D02*
X177116619Y-92746285D01*
X176052238Y-92988190D02*
X176777952Y-93230095D01*
X176777952Y-92601142D01*
X176197380Y-92262476D02*
X176149000Y-92214095D01*
X176100619Y-92117333D01*
X176100619Y-91875428D01*
X176149000Y-91778666D01*
X176197380Y-91730285D01*
X176294142Y-91681904D01*
X176390904Y-91681904D01*
X176536047Y-91730285D01*
X177116619Y-92310857D01*
X177116619Y-91681904D01*
X175465619Y-93744142D02*
X174981809Y-94082809D01*
X175465619Y-94324714D02*
X174449619Y-94324714D01*
X174449619Y-93937666D01*
X174498000Y-93840904D01*
X174546380Y-93792523D01*
X174643142Y-93744142D01*
X174788285Y-93744142D01*
X174885047Y-93792523D01*
X174933428Y-93840904D01*
X174981809Y-93937666D01*
X174981809Y-94324714D01*
X174788285Y-92873285D02*
X175465619Y-92873285D01*
X174401238Y-93115190D02*
X175126952Y-93357095D01*
X175126952Y-92728142D01*
X174449619Y-92437857D02*
X174449619Y-91808904D01*
X174836666Y-92147571D01*
X174836666Y-92002428D01*
X174885047Y-91905666D01*
X174933428Y-91857285D01*
X175030190Y-91808904D01*
X175272095Y-91808904D01*
X175368857Y-91857285D01*
X175417238Y-91905666D01*
X175465619Y-92002428D01*
X175465619Y-92292714D01*
X175417238Y-92389476D01*
X175368857Y-92437857D01*
X125427619Y-64050333D02*
X125427619Y-63469761D01*
X126443619Y-63760047D02*
X125427619Y-63760047D01*
X125427619Y-63276238D02*
X126443619Y-62937571D01*
X125427619Y-62598904D01*
X126395238Y-62308619D02*
X126443619Y-62163476D01*
X126443619Y-61921571D01*
X126395238Y-61824809D01*
X126346857Y-61776428D01*
X126250095Y-61728047D01*
X126153333Y-61728047D01*
X126056571Y-61776428D01*
X126008190Y-61824809D01*
X125959809Y-61921571D01*
X125911428Y-62115095D01*
X125863047Y-62211857D01*
X125814666Y-62260238D01*
X125717904Y-62308619D01*
X125621142Y-62308619D01*
X125524380Y-62260238D01*
X125476000Y-62211857D01*
X125427619Y-62115095D01*
X125427619Y-61873190D01*
X125476000Y-61728047D01*
X126443619Y-60760428D02*
X126443619Y-61341000D01*
X126443619Y-61050714D02*
X125427619Y-61050714D01*
X125572761Y-61147476D01*
X125669523Y-61244238D01*
X125717904Y-61341000D01*
X131015619Y-64812333D02*
X131015619Y-64231761D01*
X132031619Y-64522047D02*
X131015619Y-64522047D01*
X131015619Y-64038238D02*
X132031619Y-63699571D01*
X131015619Y-63360904D01*
X131983238Y-63070619D02*
X132031619Y-62925476D01*
X132031619Y-62683571D01*
X131983238Y-62586809D01*
X131934857Y-62538428D01*
X131838095Y-62490047D01*
X131741333Y-62490047D01*
X131644571Y-62538428D01*
X131596190Y-62586809D01*
X131547809Y-62683571D01*
X131499428Y-62877095D01*
X131451047Y-62973857D01*
X131402666Y-63022238D01*
X131305904Y-63070619D01*
X131209142Y-63070619D01*
X131112380Y-63022238D01*
X131064000Y-62973857D01*
X131015619Y-62877095D01*
X131015619Y-62635190D01*
X131064000Y-62490047D01*
X131112380Y-62103000D02*
X131064000Y-62054619D01*
X131015619Y-61957857D01*
X131015619Y-61715952D01*
X131064000Y-61619190D01*
X131112380Y-61570809D01*
X131209142Y-61522428D01*
X131305904Y-61522428D01*
X131451047Y-61570809D01*
X132031619Y-62151380D01*
X132031619Y-61522428D01*
X118823619Y-64050333D02*
X118823619Y-63469761D01*
X119839619Y-63760047D02*
X118823619Y-63760047D01*
X118823619Y-63276238D02*
X119839619Y-62937571D01*
X118823619Y-62598904D01*
X119791238Y-62308619D02*
X119839619Y-62163476D01*
X119839619Y-61921571D01*
X119791238Y-61824809D01*
X119742857Y-61776428D01*
X119646095Y-61728047D01*
X119549333Y-61728047D01*
X119452571Y-61776428D01*
X119404190Y-61824809D01*
X119355809Y-61921571D01*
X119307428Y-62115095D01*
X119259047Y-62211857D01*
X119210666Y-62260238D01*
X119113904Y-62308619D01*
X119017142Y-62308619D01*
X118920380Y-62260238D01*
X118872000Y-62211857D01*
X118823619Y-62115095D01*
X118823619Y-61873190D01*
X118872000Y-61728047D01*
X118823619Y-60808809D02*
X118823619Y-61292619D01*
X119307428Y-61341000D01*
X119259047Y-61292619D01*
X119210666Y-61195857D01*
X119210666Y-60953952D01*
X119259047Y-60857190D01*
X119307428Y-60808809D01*
X119404190Y-60760428D01*
X119646095Y-60760428D01*
X119742857Y-60808809D01*
X119791238Y-60857190D01*
X119839619Y-60953952D01*
X119839619Y-61195857D01*
X119791238Y-61292619D01*
X119742857Y-61341000D01*
X108782619Y-57724523D02*
X109205952Y-58994523D01*
X109629285Y-57724523D01*
X110717857Y-57785000D02*
X110596904Y-57724523D01*
X110415476Y-57724523D01*
X110234047Y-57785000D01*
X110113095Y-57905952D01*
X110052619Y-58026904D01*
X109992142Y-58268809D01*
X109992142Y-58450238D01*
X110052619Y-58692142D01*
X110113095Y-58813095D01*
X110234047Y-58934047D01*
X110415476Y-58994523D01*
X110536428Y-58994523D01*
X110717857Y-58934047D01*
X110778333Y-58873571D01*
X110778333Y-58450238D01*
X110536428Y-58450238D01*
X111262142Y-58631666D02*
X111866904Y-58631666D01*
X111141190Y-58994523D02*
X111564523Y-57724523D01*
X111987857Y-58994523D01*
X113076428Y-58994523D02*
X112350714Y-58994523D01*
X112713571Y-58994523D02*
X112713571Y-57724523D01*
X112592619Y-57905952D01*
X112471666Y-58026904D01*
X112350714Y-58087380D01*
X117202904Y-52287523D02*
X116961000Y-52287523D01*
X116840047Y-52348000D01*
X116779571Y-52408476D01*
X116658619Y-52589904D01*
X116598142Y-52831809D01*
X116598142Y-53315619D01*
X116658619Y-53436571D01*
X116719095Y-53497047D01*
X116840047Y-53557523D01*
X117081952Y-53557523D01*
X117202904Y-53497047D01*
X117263380Y-53436571D01*
X117323857Y-53315619D01*
X117323857Y-53013238D01*
X117263380Y-52892285D01*
X117202904Y-52831809D01*
X117081952Y-52771333D01*
X116840047Y-52771333D01*
X116719095Y-52831809D01*
X116658619Y-52892285D01*
X116598142Y-53013238D01*
X131497095Y-53684523D02*
X130771380Y-53684523D01*
X131134238Y-53684523D02*
X131134238Y-52414523D01*
X131013285Y-52595952D01*
X130892333Y-52716904D01*
X130771380Y-52777380D01*
X132283285Y-52414523D02*
X132404238Y-52414523D01*
X132525190Y-52475000D01*
X132585666Y-52535476D01*
X132646142Y-52656428D01*
X132706619Y-52898333D01*
X132706619Y-53200714D01*
X132646142Y-53442619D01*
X132585666Y-53563571D01*
X132525190Y-53624047D01*
X132404238Y-53684523D01*
X132283285Y-53684523D01*
X132162333Y-53624047D01*
X132101857Y-53563571D01*
X132041380Y-53442619D01*
X131980904Y-53200714D01*
X131980904Y-52898333D01*
X132041380Y-52656428D01*
X132101857Y-52535476D01*
X132162333Y-52475000D01*
X132283285Y-52414523D01*
X131624095Y-51704523D02*
X130898380Y-51704523D01*
X131261238Y-51704523D02*
X131261238Y-50434523D01*
X131140285Y-50615952D01*
X131019333Y-50736904D01*
X130898380Y-50797380D01*
X132773142Y-50434523D02*
X132168380Y-50434523D01*
X132107904Y-51039285D01*
X132168380Y-50978809D01*
X132289333Y-50918333D01*
X132591714Y-50918333D01*
X132712666Y-50978809D01*
X132773142Y-51039285D01*
X132833619Y-51160238D01*
X132833619Y-51462619D01*
X132773142Y-51583571D01*
X132712666Y-51644047D01*
X132591714Y-51704523D01*
X132289333Y-51704523D01*
X132168380Y-51644047D01*
X132107904Y-51583571D01*
X116892095Y-51704523D02*
X116166380Y-51704523D01*
X116529238Y-51704523D02*
X116529238Y-50434523D01*
X116408285Y-50615952D01*
X116287333Y-50736904D01*
X116166380Y-50797380D01*
X118101619Y-51704523D02*
X117375904Y-51704523D01*
X117738761Y-51704523D02*
X117738761Y-50434523D01*
X117617809Y-50615952D01*
X117496857Y-50736904D01*
X117375904Y-50797380D01*
X121839047Y-49109285D02*
X121415714Y-49109285D01*
X121415714Y-49774523D02*
X121415714Y-48504523D01*
X122020476Y-48504523D01*
X122988095Y-49714047D02*
X122867142Y-49774523D01*
X122625238Y-49774523D01*
X122504285Y-49714047D01*
X122443809Y-49593095D01*
X122443809Y-49109285D01*
X122504285Y-48988333D01*
X122625238Y-48927857D01*
X122867142Y-48927857D01*
X122988095Y-48988333D01*
X123048571Y-49109285D01*
X123048571Y-49230238D01*
X122443809Y-49351190D01*
X123592857Y-49774523D02*
X123592857Y-48927857D01*
X123592857Y-49048809D02*
X123653333Y-48988333D01*
X123774285Y-48927857D01*
X123955714Y-48927857D01*
X124076666Y-48988333D01*
X124137142Y-49109285D01*
X124137142Y-49774523D01*
X124137142Y-49109285D02*
X124197619Y-48988333D01*
X124318571Y-48927857D01*
X124500000Y-48927857D01*
X124620952Y-48988333D01*
X124681428Y-49109285D01*
X124681428Y-49774523D01*
X125830476Y-49774523D02*
X125830476Y-49109285D01*
X125770000Y-48988333D01*
X125649047Y-48927857D01*
X125407142Y-48927857D01*
X125286190Y-48988333D01*
X125830476Y-49714047D02*
X125709523Y-49774523D01*
X125407142Y-49774523D01*
X125286190Y-49714047D01*
X125225714Y-49593095D01*
X125225714Y-49472142D01*
X125286190Y-49351190D01*
X125407142Y-49290714D01*
X125709523Y-49290714D01*
X125830476Y-49230238D01*
X126616666Y-49774523D02*
X126495714Y-49714047D01*
X126435238Y-49593095D01*
X126435238Y-48504523D01*
X127584285Y-49714047D02*
X127463333Y-49774523D01*
X127221428Y-49774523D01*
X127100476Y-49714047D01*
X127040000Y-49593095D01*
X127040000Y-49109285D01*
X127100476Y-48988333D01*
X127221428Y-48927857D01*
X127463333Y-48927857D01*
X127584285Y-48988333D01*
X127644761Y-49109285D01*
X127644761Y-49230238D01*
X127040000Y-49351190D01*
X117323857Y-55537523D02*
X116598142Y-55537523D01*
X116961000Y-55537523D02*
X116961000Y-54267523D01*
X116840047Y-54448952D01*
X116719095Y-54569904D01*
X116598142Y-54630380D01*
X131741380Y-54394523D02*
X131136619Y-54394523D01*
X131076142Y-54999285D01*
X131136619Y-54938809D01*
X131257571Y-54878333D01*
X131559952Y-54878333D01*
X131680904Y-54938809D01*
X131741380Y-54999285D01*
X131801857Y-55120238D01*
X131801857Y-55422619D01*
X131741380Y-55543571D01*
X131680904Y-55604047D01*
X131559952Y-55664523D01*
X131257571Y-55664523D01*
X131136619Y-55604047D01*
X131076142Y-55543571D01*
X135871857Y-102404333D02*
X135920238Y-102452714D01*
X135968619Y-102597857D01*
X135968619Y-102694619D01*
X135920238Y-102839761D01*
X135823476Y-102936523D01*
X135726714Y-102984904D01*
X135533190Y-103033285D01*
X135388047Y-103033285D01*
X135194523Y-102984904D01*
X135097761Y-102936523D01*
X135001000Y-102839761D01*
X134952619Y-102694619D01*
X134952619Y-102597857D01*
X135001000Y-102452714D01*
X135049380Y-102404333D01*
X135388047Y-101823761D02*
X135339666Y-101920523D01*
X135291285Y-101968904D01*
X135194523Y-102017285D01*
X135146142Y-102017285D01*
X135049380Y-101968904D01*
X135001000Y-101920523D01*
X134952619Y-101823761D01*
X134952619Y-101630238D01*
X135001000Y-101533476D01*
X135049380Y-101485095D01*
X135146142Y-101436714D01*
X135194523Y-101436714D01*
X135291285Y-101485095D01*
X135339666Y-101533476D01*
X135388047Y-101630238D01*
X135388047Y-101823761D01*
X135436428Y-101920523D01*
X135484809Y-101968904D01*
X135581571Y-102017285D01*
X135775095Y-102017285D01*
X135871857Y-101968904D01*
X135920238Y-101920523D01*
X135968619Y-101823761D01*
X135968619Y-101630238D01*
X135920238Y-101533476D01*
X135871857Y-101485095D01*
X135775095Y-101436714D01*
X135581571Y-101436714D01*
X135484809Y-101485095D01*
X135436428Y-101533476D01*
X135388047Y-101630238D01*
X147235333Y-114124619D02*
X147235333Y-113108619D01*
X147622380Y-113108619D01*
X147719142Y-113157000D01*
X147767523Y-113205380D01*
X147815904Y-113302142D01*
X147815904Y-113447285D01*
X147767523Y-113544047D01*
X147719142Y-113592428D01*
X147622380Y-113640809D01*
X147235333Y-113640809D01*
X148783523Y-113157000D02*
X148686761Y-113108619D01*
X148541619Y-113108619D01*
X148396476Y-113157000D01*
X148299714Y-113253761D01*
X148251333Y-113350523D01*
X148202952Y-113544047D01*
X148202952Y-113689190D01*
X148251333Y-113882714D01*
X148299714Y-113979476D01*
X148396476Y-114076238D01*
X148541619Y-114124619D01*
X148638380Y-114124619D01*
X148783523Y-114076238D01*
X148831904Y-114027857D01*
X148831904Y-113689190D01*
X148638380Y-113689190D01*
X149267333Y-114124619D02*
X149267333Y-113108619D01*
X149606000Y-113834333D01*
X149944666Y-113108619D01*
X149944666Y-114124619D01*
X151154190Y-113060238D02*
X150283333Y-114366523D01*
X151492857Y-114124619D02*
X151492857Y-113108619D01*
X151734761Y-113108619D01*
X151879904Y-113157000D01*
X151976666Y-113253761D01*
X152025047Y-113350523D01*
X152073428Y-113544047D01*
X152073428Y-113689190D01*
X152025047Y-113882714D01*
X151976666Y-113979476D01*
X151879904Y-114076238D01*
X151734761Y-114124619D01*
X151492857Y-114124619D01*
X152847523Y-113592428D02*
X152992666Y-113640809D01*
X153041047Y-113689190D01*
X153089428Y-113785952D01*
X153089428Y-113931095D01*
X153041047Y-114027857D01*
X152992666Y-114076238D01*
X152895904Y-114124619D01*
X152508857Y-114124619D01*
X152508857Y-113108619D01*
X152847523Y-113108619D01*
X152944285Y-113157000D01*
X152992666Y-113205380D01*
X153041047Y-113302142D01*
X153041047Y-113398904D01*
X152992666Y-113495666D01*
X152944285Y-113544047D01*
X152847523Y-113592428D01*
X152508857Y-113592428D01*
X154057047Y-113157000D02*
X153960285Y-113108619D01*
X153815142Y-113108619D01*
X153670000Y-113157000D01*
X153573238Y-113253761D01*
X153524857Y-113350523D01*
X153476476Y-113544047D01*
X153476476Y-113689190D01*
X153524857Y-113882714D01*
X153573238Y-113979476D01*
X153670000Y-114076238D01*
X153815142Y-114124619D01*
X153911904Y-114124619D01*
X154057047Y-114076238D01*
X154105428Y-114027857D01*
X154105428Y-113689190D01*
X153911904Y-113689190D01*
X155073047Y-114124619D02*
X154492476Y-114124619D01*
X154782761Y-114124619D02*
X154782761Y-113108619D01*
X154686000Y-113253761D01*
X154589238Y-113350523D01*
X154492476Y-113398904D01*
X131495904Y-96298619D02*
X131495904Y-97189095D01*
X131548285Y-97293857D01*
X131600666Y-97346238D01*
X131705428Y-97398619D01*
X131914952Y-97398619D01*
X132019714Y-97346238D01*
X132072095Y-97293857D01*
X132124476Y-97189095D01*
X132124476Y-96298619D01*
X133119714Y-96298619D02*
X132910190Y-96298619D01*
X132805428Y-96351000D01*
X132753047Y-96403380D01*
X132648285Y-96560523D01*
X132595904Y-96770047D01*
X132595904Y-97189095D01*
X132648285Y-97293857D01*
X132700666Y-97346238D01*
X132805428Y-97398619D01*
X133014952Y-97398619D01*
X133119714Y-97346238D01*
X133172095Y-97293857D01*
X133224476Y-97189095D01*
X133224476Y-96927190D01*
X133172095Y-96822428D01*
X133119714Y-96770047D01*
X133014952Y-96717666D01*
X132805428Y-96717666D01*
X132700666Y-96770047D01*
X132648285Y-96822428D01*
X132595904Y-96927190D01*
X195483238Y-81963380D02*
X195386476Y-81915000D01*
X195289714Y-81818238D01*
X195144571Y-81673095D01*
X195047809Y-81624714D01*
X194951047Y-81624714D01*
X194999428Y-81866619D02*
X194902666Y-81818238D01*
X194805904Y-81721476D01*
X194757523Y-81527952D01*
X194757523Y-81189285D01*
X194805904Y-80995761D01*
X194902666Y-80899000D01*
X194999428Y-80850619D01*
X195192952Y-80850619D01*
X195289714Y-80899000D01*
X195386476Y-80995761D01*
X195434857Y-81189285D01*
X195434857Y-81527952D01*
X195386476Y-81721476D01*
X195289714Y-81818238D01*
X195192952Y-81866619D01*
X194999428Y-81866619D01*
X196402476Y-81866619D02*
X195821904Y-81866619D01*
X196112190Y-81866619D02*
X196112190Y-80850619D01*
X196015428Y-80995761D01*
X195918666Y-81092523D01*
X195821904Y-81140904D01*
X188498238Y-85773380D02*
X188401476Y-85725000D01*
X188304714Y-85628238D01*
X188159571Y-85483095D01*
X188062809Y-85434714D01*
X187966047Y-85434714D01*
X188014428Y-85676619D02*
X187917666Y-85628238D01*
X187820904Y-85531476D01*
X187772523Y-85337952D01*
X187772523Y-84999285D01*
X187820904Y-84805761D01*
X187917666Y-84709000D01*
X188014428Y-84660619D01*
X188207952Y-84660619D01*
X188304714Y-84709000D01*
X188401476Y-84805761D01*
X188449857Y-84999285D01*
X188449857Y-85337952D01*
X188401476Y-85531476D01*
X188304714Y-85628238D01*
X188207952Y-85676619D01*
X188014428Y-85676619D01*
X188836904Y-84757380D02*
X188885285Y-84709000D01*
X188982047Y-84660619D01*
X189223952Y-84660619D01*
X189320714Y-84709000D01*
X189369095Y-84757380D01*
X189417476Y-84854142D01*
X189417476Y-84950904D01*
X189369095Y-85096047D01*
X188788523Y-85676619D01*
X189417476Y-85676619D01*
X195912619Y-87521142D02*
X195428809Y-87859809D01*
X195912619Y-88101714D02*
X194896619Y-88101714D01*
X194896619Y-87714666D01*
X194945000Y-87617904D01*
X194993380Y-87569523D01*
X195090142Y-87521142D01*
X195235285Y-87521142D01*
X195332047Y-87569523D01*
X195380428Y-87617904D01*
X195428809Y-87714666D01*
X195428809Y-88101714D01*
X195912619Y-86553523D02*
X195912619Y-87134095D01*
X195912619Y-86843809D02*
X194896619Y-86843809D01*
X195041761Y-86940571D01*
X195138523Y-87037333D01*
X195186904Y-87134095D01*
X195235285Y-85682666D02*
X195912619Y-85682666D01*
X194848238Y-85924571D02*
X195573952Y-86166476D01*
X195573952Y-85537523D01*
X188292619Y-83100333D02*
X187808809Y-83439000D01*
X188292619Y-83680904D02*
X187276619Y-83680904D01*
X187276619Y-83293857D01*
X187325000Y-83197095D01*
X187373380Y-83148714D01*
X187470142Y-83100333D01*
X187615285Y-83100333D01*
X187712047Y-83148714D01*
X187760428Y-83197095D01*
X187808809Y-83293857D01*
X187808809Y-83680904D01*
X187712047Y-82519761D02*
X187663666Y-82616523D01*
X187615285Y-82664904D01*
X187518523Y-82713285D01*
X187470142Y-82713285D01*
X187373380Y-82664904D01*
X187325000Y-82616523D01*
X187276619Y-82519761D01*
X187276619Y-82326238D01*
X187325000Y-82229476D01*
X187373380Y-82181095D01*
X187470142Y-82132714D01*
X187518523Y-82132714D01*
X187615285Y-82181095D01*
X187663666Y-82229476D01*
X187712047Y-82326238D01*
X187712047Y-82519761D01*
X187760428Y-82616523D01*
X187808809Y-82664904D01*
X187905571Y-82713285D01*
X188099095Y-82713285D01*
X188195857Y-82664904D01*
X188244238Y-82616523D01*
X188292619Y-82519761D01*
X188292619Y-82326238D01*
X188244238Y-82229476D01*
X188195857Y-82181095D01*
X188099095Y-82132714D01*
X187905571Y-82132714D01*
X187808809Y-82181095D01*
X187760428Y-82229476D01*
X187712047Y-82326238D01*
X101711666Y-102775476D02*
X101711666Y-102170714D01*
X102074523Y-102896428D02*
X100804523Y-102473095D01*
X102074523Y-102049761D01*
X102014047Y-101082142D02*
X102074523Y-101203095D01*
X102074523Y-101445000D01*
X102014047Y-101565952D01*
X101953571Y-101626428D01*
X101832619Y-101686904D01*
X101469761Y-101686904D01*
X101348809Y-101626428D01*
X101288333Y-101565952D01*
X101227857Y-101445000D01*
X101227857Y-101203095D01*
X101288333Y-101082142D01*
X102014047Y-99993571D02*
X102074523Y-100114523D01*
X102074523Y-100356428D01*
X102014047Y-100477380D01*
X101953571Y-100537857D01*
X101832619Y-100598333D01*
X101469761Y-100598333D01*
X101348809Y-100537857D01*
X101288333Y-100477380D01*
X101227857Y-100356428D01*
X101227857Y-100114523D01*
X101288333Y-99993571D01*
X102014047Y-98965476D02*
X102074523Y-99086428D01*
X102074523Y-99328333D01*
X102014047Y-99449285D01*
X101893095Y-99509761D01*
X101409285Y-99509761D01*
X101288333Y-99449285D01*
X101227857Y-99328333D01*
X101227857Y-99086428D01*
X101288333Y-98965476D01*
X101409285Y-98905000D01*
X101530238Y-98905000D01*
X101651190Y-99509761D01*
X102014047Y-98421190D02*
X102074523Y-98300238D01*
X102074523Y-98058333D01*
X102014047Y-97937380D01*
X101893095Y-97876904D01*
X101832619Y-97876904D01*
X101711666Y-97937380D01*
X101651190Y-98058333D01*
X101651190Y-98239761D01*
X101590714Y-98360714D01*
X101469761Y-98421190D01*
X101409285Y-98421190D01*
X101288333Y-98360714D01*
X101227857Y-98239761D01*
X101227857Y-98058333D01*
X101288333Y-97937380D01*
X102014047Y-97393095D02*
X102074523Y-97272142D01*
X102074523Y-97030238D01*
X102014047Y-96909285D01*
X101893095Y-96848809D01*
X101832619Y-96848809D01*
X101711666Y-96909285D01*
X101651190Y-97030238D01*
X101651190Y-97211666D01*
X101590714Y-97332619D01*
X101469761Y-97393095D01*
X101409285Y-97393095D01*
X101288333Y-97332619D01*
X101227857Y-97211666D01*
X101227857Y-97030238D01*
X101288333Y-96909285D01*
X102195476Y-96606904D02*
X102195476Y-95639285D01*
X101409285Y-94913571D02*
X101469761Y-94732142D01*
X101530238Y-94671666D01*
X101651190Y-94611190D01*
X101832619Y-94611190D01*
X101953571Y-94671666D01*
X102014047Y-94732142D01*
X102074523Y-94853095D01*
X102074523Y-95336904D01*
X100804523Y-95336904D01*
X100804523Y-94913571D01*
X100865000Y-94792619D01*
X100925476Y-94732142D01*
X101046428Y-94671666D01*
X101167380Y-94671666D01*
X101288333Y-94732142D01*
X101348809Y-94792619D01*
X101409285Y-94913571D01*
X101409285Y-95336904D01*
X101227857Y-93522619D02*
X102074523Y-93522619D01*
X101227857Y-94066904D02*
X101893095Y-94066904D01*
X102014047Y-94006428D01*
X102074523Y-93885476D01*
X102074523Y-93704047D01*
X102014047Y-93583095D01*
X101953571Y-93522619D01*
X102014047Y-92978333D02*
X102074523Y-92857380D01*
X102074523Y-92615476D01*
X102014047Y-92494523D01*
X101893095Y-92434047D01*
X101832619Y-92434047D01*
X101711666Y-92494523D01*
X101651190Y-92615476D01*
X101651190Y-92796904D01*
X101590714Y-92917857D01*
X101469761Y-92978333D01*
X101409285Y-92978333D01*
X101288333Y-92917857D01*
X101227857Y-92796904D01*
X101227857Y-92615476D01*
X101288333Y-92494523D01*
X102074523Y-91224523D02*
X102074523Y-91950238D01*
X102074523Y-91587380D02*
X100804523Y-91587380D01*
X100985952Y-91708333D01*
X101106904Y-91829285D01*
X101167380Y-91950238D01*
X203139523Y-85930952D02*
X203139523Y-86535714D01*
X201869523Y-86535714D01*
X203018571Y-84781904D02*
X203079047Y-84842380D01*
X203139523Y-85023809D01*
X203139523Y-85144761D01*
X203079047Y-85326190D01*
X202958095Y-85447142D01*
X202837142Y-85507619D01*
X202595238Y-85568095D01*
X202413809Y-85568095D01*
X202171904Y-85507619D01*
X202050952Y-85447142D01*
X201930000Y-85326190D01*
X201869523Y-85144761D01*
X201869523Y-85023809D01*
X201930000Y-84842380D01*
X201990476Y-84781904D01*
X203139523Y-84237619D02*
X201869523Y-84237619D01*
X201869523Y-83935238D01*
X201930000Y-83753809D01*
X202050952Y-83632857D01*
X202171904Y-83572380D01*
X202413809Y-83511904D01*
X202595238Y-83511904D01*
X202837142Y-83572380D01*
X202958095Y-83632857D01*
X203079047Y-83753809D01*
X203139523Y-83935238D01*
X203139523Y-84237619D01*
X203260476Y-83270000D02*
X203260476Y-82302380D01*
X203018571Y-81274285D02*
X203079047Y-81334761D01*
X203139523Y-81516190D01*
X203139523Y-81637142D01*
X203079047Y-81818571D01*
X202958095Y-81939523D01*
X202837142Y-82000000D01*
X202595238Y-82060476D01*
X202413809Y-82060476D01*
X202171904Y-82000000D01*
X202050952Y-81939523D01*
X201930000Y-81818571D01*
X201869523Y-81637142D01*
X201869523Y-81516190D01*
X201930000Y-81334761D01*
X201990476Y-81274285D01*
X201869523Y-80488095D02*
X201869523Y-80246190D01*
X201930000Y-80125238D01*
X202050952Y-80004285D01*
X202292857Y-79943809D01*
X202716190Y-79943809D01*
X202958095Y-80004285D01*
X203079047Y-80125238D01*
X203139523Y-80246190D01*
X203139523Y-80488095D01*
X203079047Y-80609047D01*
X202958095Y-80730000D01*
X202716190Y-80790476D01*
X202292857Y-80790476D01*
X202050952Y-80730000D01*
X201930000Y-80609047D01*
X201869523Y-80488095D01*
X203139523Y-79399523D02*
X201869523Y-79399523D01*
X203139523Y-78673809D01*
X201869523Y-78673809D01*
X203139523Y-77403809D02*
X203139523Y-78129523D01*
X203139523Y-77766666D02*
X201869523Y-77766666D01*
X202050952Y-77887619D01*
X202171904Y-78008571D01*
X202232380Y-78129523D01*
X114463285Y-110822619D02*
X114523761Y-110641190D01*
X114584238Y-110580714D01*
X114705190Y-110520238D01*
X114886619Y-110520238D01*
X115007571Y-110580714D01*
X115068047Y-110641190D01*
X115128523Y-110762142D01*
X115128523Y-111245952D01*
X113858523Y-111245952D01*
X113858523Y-110822619D01*
X113919000Y-110701666D01*
X113979476Y-110641190D01*
X114100428Y-110580714D01*
X114221380Y-110580714D01*
X114342333Y-110641190D01*
X114402809Y-110701666D01*
X114463285Y-110822619D01*
X114463285Y-111245952D01*
X113858523Y-109975952D02*
X114886619Y-109975952D01*
X115007571Y-109915476D01*
X115068047Y-109855000D01*
X115128523Y-109734047D01*
X115128523Y-109492142D01*
X115068047Y-109371190D01*
X115007571Y-109310714D01*
X114886619Y-109250238D01*
X113858523Y-109250238D01*
X113858523Y-108766428D02*
X113858523Y-107919761D01*
X115128523Y-108766428D01*
X115128523Y-107919761D01*
X115249476Y-107738333D02*
X115249476Y-106770714D01*
X114463285Y-106468333D02*
X114463285Y-106045000D01*
X115128523Y-105863571D02*
X115128523Y-106468333D01*
X113858523Y-106468333D01*
X113858523Y-105863571D01*
X115128523Y-105319285D02*
X113858523Y-105319285D01*
X115128523Y-104593571D01*
X113858523Y-104593571D01*
X115128523Y-103323571D02*
X115128523Y-104049285D01*
X115128523Y-103686428D02*
X113858523Y-103686428D01*
X114039952Y-103807380D01*
X114160904Y-103928333D01*
X114221380Y-104049285D01*
X112132857Y-107867123D02*
X111407142Y-107867123D01*
X111770000Y-107867123D02*
X111770000Y-106597123D01*
X111649047Y-106778552D01*
X111528095Y-106899504D01*
X111407142Y-106959980D01*
X108867142Y-106718076D02*
X108927619Y-106657600D01*
X109048571Y-106597123D01*
X109350952Y-106597123D01*
X109471904Y-106657600D01*
X109532380Y-106718076D01*
X109592857Y-106839028D01*
X109592857Y-106959980D01*
X109532380Y-107141409D01*
X108806666Y-107867123D01*
X109592857Y-107867123D01*
X184355619Y-101007333D02*
X183871809Y-101346000D01*
X184355619Y-101587904D02*
X183339619Y-101587904D01*
X183339619Y-101200857D01*
X183388000Y-101104095D01*
X183436380Y-101055714D01*
X183533142Y-101007333D01*
X183678285Y-101007333D01*
X183775047Y-101055714D01*
X183823428Y-101104095D01*
X183871809Y-101200857D01*
X183871809Y-101587904D01*
X183678285Y-100136476D02*
X184355619Y-100136476D01*
X183291238Y-100378380D02*
X184016952Y-100620285D01*
X184016952Y-99991333D01*
X186006619Y-101007333D02*
X185522809Y-101346000D01*
X186006619Y-101587904D02*
X184990619Y-101587904D01*
X184990619Y-101200857D01*
X185039000Y-101104095D01*
X185087380Y-101055714D01*
X185184142Y-101007333D01*
X185329285Y-101007333D01*
X185426047Y-101055714D01*
X185474428Y-101104095D01*
X185522809Y-101200857D01*
X185522809Y-101587904D01*
X184990619Y-100136476D02*
X184990619Y-100330000D01*
X185039000Y-100426761D01*
X185087380Y-100475142D01*
X185232523Y-100571904D01*
X185426047Y-100620285D01*
X185813095Y-100620285D01*
X185909857Y-100571904D01*
X185958238Y-100523523D01*
X186006619Y-100426761D01*
X186006619Y-100233238D01*
X185958238Y-100136476D01*
X185909857Y-100088095D01*
X185813095Y-100039714D01*
X185571190Y-100039714D01*
X185474428Y-100088095D01*
X185426047Y-100136476D01*
X185377666Y-100233238D01*
X185377666Y-100426761D01*
X185426047Y-100523523D01*
X185474428Y-100571904D01*
X185571190Y-100620285D01*
M02*
