G04 #@! TF.GenerationSoftware,KiCad,Pcbnew,5.1.0-rc2-unknown-036be7d~80~ubuntu16.04.1*
G04 #@! TF.CreationDate,2023-05-31T16:01:49+03:00*
G04 #@! TF.ProjectId,ESP32-SBC-FabGL_Rev_B,45535033-322d-4534-9243-2d466162474c,B*
G04 #@! TF.SameCoordinates,Original*
G04 #@! TF.FileFunction,Soldermask,Bot*
G04 #@! TF.FilePolarity,Negative*
%FSLAX46Y46*%
G04 Gerber Fmt 4.6, Leading zero omitted, Abs format (unit mm)*
G04 Created by KiCad (PCBNEW 5.1.0-rc2-unknown-036be7d~80~ubuntu16.04.1) date 2023-05-31 16:01:49*
%MOMM*%
%LPD*%
G04 APERTURE LIST*
%ADD10C,1.801600*%
%ADD11C,1.501600*%
%ADD12R,1.501600X1.501600*%
%ADD13R,2.301600X2.301600*%
%ADD14C,2.301600*%
%ADD15C,1.879600*%
%ADD16C,3.401601*%
%ADD17C,1.101600*%
%ADD18C,3.601600*%
%ADD19C,1.511600*%
%ADD20C,1.601600*%
%ADD21R,1.879600X1.879600*%
%ADD22C,1.701600*%
%ADD23C,5.401600*%
%ADD24O,1.301600X2.301600*%
%ADD25C,0.701600*%
%ADD26O,1.401600X2.101600*%
G04 APERTURE END LIST*
D10*
X148000000Y-57000000D03*
X148000000Y-51000000D03*
D11*
X200538220Y-64000760D03*
D12*
X200535680Y-61971300D03*
D13*
X140000000Y-63750000D03*
D14*
X140000000Y-70250000D03*
D15*
X163449000Y-96393000D03*
D16*
X104000000Y-112000000D03*
X200000000Y-112000000D03*
X200000000Y-52000000D03*
X104000000Y-52000000D03*
D17*
X177048000Y-111632200D03*
X169047000Y-111632200D03*
D18*
X158700000Y-51500000D03*
X165000000Y-50700000D03*
X171300000Y-51500000D03*
D19*
X163730000Y-56810000D03*
X166270000Y-56810000D03*
X168260000Y-56810000D03*
X161740000Y-56810000D03*
X168260000Y-54270000D03*
X161740000Y-54270000D03*
X166270000Y-54270000D03*
X163730000Y-54270000D03*
D18*
X181700000Y-51500000D03*
X188000000Y-50700000D03*
X194300000Y-51500000D03*
D19*
X186730000Y-56810000D03*
X189270000Y-56810000D03*
X191260000Y-56810000D03*
X184740000Y-56810000D03*
X191260000Y-54270000D03*
X184740000Y-54270000D03*
X189270000Y-54270000D03*
X186730000Y-54270000D03*
D20*
X115940000Y-76500000D03*
D21*
X130080000Y-108730000D03*
D15*
X130080000Y-111270000D03*
X127540000Y-108730000D03*
X127540000Y-111270000D03*
X125000000Y-108730000D03*
X125000000Y-111270000D03*
X122460000Y-108730000D03*
X122460000Y-111270000D03*
X119920000Y-108730000D03*
X119920000Y-111270000D03*
D22*
X120220000Y-55090000D03*
X122510000Y-55090000D03*
X124800000Y-55090000D03*
X127090000Y-55090000D03*
X129380000Y-55090000D03*
X119075000Y-53110000D03*
X121365000Y-53110000D03*
X123655000Y-53110000D03*
X125945000Y-53110000D03*
X128235000Y-53110000D03*
X120220000Y-51130000D03*
X122510000Y-51130000D03*
X124800000Y-51130000D03*
X127090000Y-51130000D03*
X129380000Y-51130000D03*
D23*
X136995000Y-53110000D03*
X112005000Y-53110000D03*
D21*
X151000000Y-108730000D03*
D15*
X151000000Y-111270000D03*
X104000000Y-90650000D03*
X104000000Y-88110000D03*
X104000000Y-93190000D03*
X104000000Y-95730000D03*
D21*
X104000000Y-105890000D03*
D15*
X104000000Y-103350000D03*
X104000000Y-100810000D03*
X104000000Y-98270000D03*
X200000000Y-70570000D03*
X200000000Y-68030000D03*
X200000000Y-73110000D03*
X200000000Y-75650000D03*
X200000000Y-80730000D03*
X200000000Y-78190000D03*
X200000000Y-83270000D03*
X200000000Y-85810000D03*
D21*
X200000000Y-95970000D03*
D15*
X200000000Y-93430000D03*
X200000000Y-90890000D03*
X200000000Y-88350000D03*
D24*
X185680000Y-108470000D03*
D25*
X187110000Y-108970000D03*
D26*
X185680000Y-112650000D03*
X194320000Y-112650000D03*
D24*
X194320000Y-108470000D03*
D25*
X192890000Y-108970000D03*
M02*
