G04 #@! TF.GenerationSoftware,KiCad,Pcbnew,5.1.0-rc2-unknown-036be7d~80~ubuntu16.04.1*
G04 #@! TF.CreationDate,2023-05-31T16:01:49+03:00*
G04 #@! TF.ProjectId,ESP32-SBC-FabGL_Rev_B,45535033-322d-4534-9243-2d466162474c,B*
G04 #@! TF.SameCoordinates,Original*
G04 #@! TF.FileFunction,Paste,Top*
G04 #@! TF.FilePolarity,Positive*
%FSLAX46Y46*%
G04 Gerber Fmt 4.6, Leading zero omitted, Abs format (unit mm)*
G04 Created by KiCad (PCBNEW 5.1.0-rc2-unknown-036be7d~80~ubuntu16.04.1) date 2023-05-31 16:01:49*
%MOMM*%
%LPD*%
G04 APERTURE LIST*
%ADD10R,3.253999X2.354000*%
%ADD11R,3.253999X2.754000*%
%ADD12R,1.016000X1.016000*%
%ADD13R,0.500000X0.550000*%
%ADD14R,0.800000X0.800000*%
%ADD15R,1.700000X2.000000*%
%ADD16R,2.000000X1.700000*%
%ADD17R,1.400000X1.000000*%
%ADD18R,3.000000X1.600000*%
%ADD19R,1.270000X1.524000*%
%ADD20R,1.400000X2.600000*%
%ADD21R,1.800000X1.800000*%
%ADD22R,1.400000X1.800000*%
%ADD23R,0.700000X1.100000*%
%ADD24R,0.550000X0.500000*%
%ADD25R,0.508000X1.016000*%
%ADD26R,0.762000X1.016000*%
%ADD27R,1.524000X1.270000*%
%ADD28R,1.000000X1.400000*%
%ADD29R,1.400000X0.350000*%
%ADD30R,1.200000X0.550000*%
%ADD31R,0.230000X0.980000*%
%ADD32R,0.550000X1.200000*%
%ADD33R,0.900000X0.900000*%
%ADD34R,0.901600X1.901600*%
%ADD35R,1.901600X0.901600*%
%ADD36R,1.905000X3.937000*%
%ADD37R,0.280000X1.130000*%
%ADD38R,0.230000X1.130000*%
%ADD39R,2.100000X3.200000*%
%ADD40R,2.100000X3.000000*%
G04 APERTURE END LIST*
D10*
X153300000Y-53900000D03*
X142700000Y-53100000D03*
X153300000Y-57000000D03*
D11*
X142700000Y-57300000D03*
X153300000Y-50800000D03*
D12*
X177673000Y-71501000D03*
X179451000Y-71501000D03*
X171323000Y-74295000D03*
X171323000Y-72517000D03*
X178562000Y-78359000D03*
X178562000Y-80137000D03*
X176784000Y-78359000D03*
X176784000Y-80137000D03*
D13*
X109093000Y-88773000D03*
X108077000Y-88773000D03*
D12*
X110871000Y-90424000D03*
X110871000Y-88646000D03*
D14*
X200762000Y-57000000D03*
X199238000Y-57000000D03*
D15*
X184785000Y-93385000D03*
X184785000Y-98385000D03*
D16*
X189651000Y-73787000D03*
X194651000Y-73787000D03*
D17*
X189900560Y-69281040D03*
X189900560Y-71183500D03*
X192110360Y-70228460D03*
X135727441Y-109407960D03*
X135727441Y-107505500D03*
X133517641Y-108460540D03*
D18*
X164592000Y-73476000D03*
X164592000Y-75876000D03*
X181102000Y-80448000D03*
X181102000Y-78048000D03*
D19*
X170561000Y-94615000D03*
X170561000Y-96647000D03*
D20*
X166150000Y-111230000D03*
X181850000Y-111230000D03*
D21*
X180950000Y-101630000D03*
D22*
X166150000Y-101630000D03*
D23*
X167450000Y-100750000D03*
X168550000Y-100750000D03*
X169650000Y-100750000D03*
X170750000Y-100750000D03*
X171850000Y-100750000D03*
X172950000Y-100750000D03*
X174050000Y-100750000D03*
X175150000Y-100750000D03*
X176250000Y-100750000D03*
D14*
X200762000Y-107000000D03*
X199238000Y-107000000D03*
D13*
X199517000Y-105410000D03*
X200533000Y-105410000D03*
D24*
X188087000Y-70739000D03*
X188087000Y-69723000D03*
D13*
X199517000Y-58547000D03*
X200533000Y-58547000D03*
X194183000Y-67056000D03*
X193167000Y-67056000D03*
D24*
X192786000Y-93218000D03*
X192786000Y-94234000D03*
X176149000Y-76327000D03*
X176149000Y-75311000D03*
X176149000Y-73025000D03*
X176149000Y-74041000D03*
D13*
X139827000Y-98171000D03*
X138811000Y-98171000D03*
X138811000Y-99568000D03*
X139827000Y-99568000D03*
X151892000Y-92964000D03*
X152908000Y-92964000D03*
X152908000Y-94361000D03*
X151892000Y-94361000D03*
D24*
X165481000Y-62103000D03*
X165481000Y-63119000D03*
X163703000Y-62103000D03*
X163703000Y-63119000D03*
X167005000Y-63119000D03*
X167005000Y-62103000D03*
X162179000Y-63119000D03*
X162179000Y-62103000D03*
X140589000Y-107950000D03*
X140589000Y-108966000D03*
X139192000Y-108966000D03*
X139192000Y-107950000D03*
X123825000Y-105029000D03*
X123825000Y-104013000D03*
X184150000Y-62103000D03*
X184150000Y-63119000D03*
X182372000Y-62103000D03*
X182372000Y-63119000D03*
X185674000Y-63119000D03*
X185674000Y-62103000D03*
X180848000Y-63119000D03*
X180848000Y-62103000D03*
X125349000Y-105029000D03*
X125349000Y-104013000D03*
D13*
X150876000Y-74167999D03*
X151892000Y-74167999D03*
X151638000Y-63373000D03*
X150622000Y-63373000D03*
D24*
X132588000Y-60071000D03*
X132588000Y-59055000D03*
D13*
X148209000Y-64897000D03*
X149225000Y-64897000D03*
D25*
X166878000Y-94361000D03*
X167640000Y-94361000D03*
X166878000Y-95885000D03*
X167640000Y-95885000D03*
D26*
X165989000Y-94361000D03*
X165989000Y-95885000D03*
X168529000Y-94361000D03*
X168529000Y-95885000D03*
D24*
X124333000Y-59690000D03*
X124333000Y-60706000D03*
X134874000Y-59055000D03*
X134874000Y-60071000D03*
D13*
X139827000Y-100965000D03*
X138811000Y-100965000D03*
D12*
X190881000Y-65532000D03*
X190881000Y-63754000D03*
D13*
X187071000Y-91821000D03*
X188087000Y-91821000D03*
D12*
X177673000Y-69850000D03*
X179451000Y-69850000D03*
X172974000Y-81280000D03*
X172974000Y-79502000D03*
X171196000Y-81280000D03*
X171196000Y-79502000D03*
D13*
X151892000Y-95758000D03*
X152908000Y-95758000D03*
D24*
X174371000Y-62103000D03*
X174371000Y-63119000D03*
D12*
X107442000Y-90424000D03*
X109220000Y-90424000D03*
X137541000Y-109346999D03*
X137541000Y-107568999D03*
D24*
X187325000Y-63119000D03*
X187325000Y-62103000D03*
D12*
X152146000Y-61595000D03*
X150368000Y-61595000D03*
D13*
X151638000Y-64897000D03*
X150622000Y-64897000D03*
D27*
X172720000Y-94615000D03*
X172720000Y-96647000D03*
D16*
X168997000Y-79502000D03*
X163997000Y-79502000D03*
D17*
X193378000Y-88773000D03*
X191178000Y-89723000D03*
X191178000Y-87823000D03*
X147955000Y-74168000D03*
X147955000Y-70368000D03*
D28*
X151755000Y-68072000D03*
X147955000Y-68072000D03*
D17*
X152237440Y-72450960D03*
X152237440Y-70548500D03*
X150027640Y-71503540D03*
D13*
X171069000Y-77470000D03*
X172085000Y-77470000D03*
D24*
X189357000Y-80264000D03*
X189357000Y-81280000D03*
D13*
X172085000Y-75946000D03*
X171069000Y-75946000D03*
D29*
X148950000Y-101350000D03*
X148950000Y-100700000D03*
X148950000Y-100050000D03*
X148950000Y-99400000D03*
X148950000Y-98750000D03*
X148950000Y-98100000D03*
X148950000Y-97450000D03*
X148950000Y-96800000D03*
X148950000Y-96150000D03*
X148950000Y-95500000D03*
X143150000Y-95500000D03*
X143150000Y-96150000D03*
X143150000Y-96800000D03*
X143150000Y-97450000D03*
X143150000Y-98100000D03*
X143150000Y-98750000D03*
X143150000Y-99400000D03*
X143150000Y-100050000D03*
X143150000Y-100700000D03*
X143150000Y-101350000D03*
D30*
X195483000Y-65593000D03*
X195483000Y-64643000D03*
X195483000Y-63693000D03*
X192883000Y-65593000D03*
X192883000Y-63693000D03*
D31*
X189865000Y-101806000D03*
X189365000Y-101806000D03*
X190365000Y-101806000D03*
X189365000Y-103426000D03*
X189865000Y-103426000D03*
X190365000Y-103426000D03*
X188865000Y-93485000D03*
X189365000Y-93485000D03*
X189865000Y-93485000D03*
X190365000Y-93485000D03*
X190865000Y-93485000D03*
X190865000Y-98285000D03*
X190365000Y-98285000D03*
X189865000Y-98285000D03*
X189365000Y-98285000D03*
X188865000Y-98285000D03*
D32*
X177612001Y-75976000D03*
X178562001Y-75976000D03*
X179512001Y-75976000D03*
X177612001Y-73376000D03*
X179512001Y-73376000D03*
X167579000Y-75976100D03*
X168529000Y-75976100D03*
X169479000Y-75976100D03*
X169479000Y-73375900D03*
X168529000Y-73375900D03*
X167579000Y-73375900D03*
D33*
X115940000Y-75100000D03*
X115940000Y-77900000D03*
X117340000Y-76500000D03*
X114540000Y-77900000D03*
D34*
X108140000Y-66400000D03*
X109410000Y-66400000D03*
X110680000Y-66400000D03*
X111950000Y-66400000D03*
X113220000Y-66400000D03*
X114490000Y-66400000D03*
X115760000Y-66400000D03*
X117030000Y-66400000D03*
X118300000Y-66400000D03*
X119570000Y-66400000D03*
X120840000Y-66400000D03*
X122110000Y-66400000D03*
X123380000Y-66400000D03*
X124650000Y-66400000D03*
D35*
X125800000Y-69285000D03*
X125800000Y-70555000D03*
X125800000Y-71825000D03*
X125800000Y-73095000D03*
X125800000Y-74365000D03*
X125800000Y-75635000D03*
X125800000Y-76905000D03*
X125800000Y-78175000D03*
X125800000Y-79445000D03*
X125800000Y-80715000D03*
D34*
X124650000Y-83600000D03*
X123380000Y-83600000D03*
X122110000Y-83600000D03*
X120840000Y-83600000D03*
X119570000Y-83600000D03*
X118300000Y-83600000D03*
X117030000Y-83600000D03*
X115760000Y-83600000D03*
X114490000Y-83600000D03*
X113220000Y-83600000D03*
X111950000Y-83600000D03*
X110680000Y-83600000D03*
X109410000Y-83600000D03*
X108140000Y-83600000D03*
D33*
X114540000Y-76500000D03*
D34*
X129730000Y-83600000D03*
X128460000Y-83600000D03*
X127190000Y-83600000D03*
X125920000Y-83600000D03*
X131000000Y-83600000D03*
X131000000Y-66400000D03*
X125920000Y-66400000D03*
X127190000Y-66400000D03*
X128460000Y-66400000D03*
X129730000Y-66400000D03*
D33*
X117340000Y-77900000D03*
X114540000Y-75100000D03*
X117340000Y-75100000D03*
D24*
X112649000Y-88392000D03*
X112649000Y-89408000D03*
X176022000Y-96139000D03*
X176022000Y-95123000D03*
X174625000Y-96139000D03*
X174625000Y-95123000D03*
X125984000Y-59690000D03*
X125984000Y-60706000D03*
X131191000Y-59055000D03*
X131191000Y-60071000D03*
X119380000Y-59690000D03*
X119380000Y-60706000D03*
X135509000Y-99441000D03*
X135509000Y-100457000D03*
D30*
X133634000Y-100391000D03*
X133634000Y-98491000D03*
X131034000Y-100391000D03*
X131034000Y-99441000D03*
X131034000Y-98491000D03*
D17*
X191043560Y-80457040D03*
X191043560Y-82359500D03*
X193253360Y-81404460D03*
X193253360Y-84960460D03*
X191043560Y-85915500D03*
X191043560Y-84013040D03*
D24*
X193929000Y-86360000D03*
X193929000Y-87376000D03*
X189357000Y-82423000D03*
X189357000Y-83439000D03*
D36*
X109230000Y-103000000D03*
X111770000Y-103000000D03*
D24*
X183896000Y-102489000D03*
X183896000Y-103505000D03*
X185547000Y-103505000D03*
X185547000Y-102489000D03*
X116078000Y-59690000D03*
X116078000Y-60706000D03*
X117729000Y-60706000D03*
X117729000Y-59690000D03*
X121031000Y-59690000D03*
X121031000Y-60706000D03*
X122682000Y-60706000D03*
X122682000Y-59690000D03*
X127635000Y-59690000D03*
X127635000Y-60706000D03*
X129286000Y-60706000D03*
X129286000Y-59690000D03*
D37*
X193325000Y-107568000D03*
X186675000Y-107568000D03*
X193075000Y-107568000D03*
X186925000Y-107568000D03*
X192525000Y-107568000D03*
X187475000Y-107568000D03*
X192275000Y-107568000D03*
X187725000Y-107568000D03*
D38*
X189750000Y-107568000D03*
X190750000Y-107568000D03*
X191250000Y-107568000D03*
X190250000Y-107568000D03*
X191750000Y-107568000D03*
X189250000Y-107568000D03*
X188750000Y-107568000D03*
X188250000Y-107568000D03*
D39*
X185072400Y-108470000D03*
D40*
X185072400Y-112650000D03*
D39*
X194927600Y-108470000D03*
D40*
X194927600Y-112650000D03*
M02*
